<svg width="48" height="49" viewBox="0 0 48 49" fill="none" xmlns="http://www.w3.org/2000/svg">
<path d="M32.921 25.4914C32.6582 25.2285 32.3016 25.0808 31.9298 25.0808C31.5581 25.0808 31.2015 25.2285 30.9386 25.4914L25.3978 31.0322L25.4077 14.5882C25.4077 14.2149 25.2594 13.8569 24.9955 13.5929C24.7315 13.329 24.3735 13.1807 24.0002 13.1807C23.6269 13.1807 23.2689 13.329 23.005 13.5929C22.741 13.8569 22.5927 14.2149 22.5927 14.5882L22.6026 31.0322L17.0618 25.4914C16.7989 25.2285 16.4424 25.0808 16.0706 25.0808C15.6988 25.0808 15.3423 25.2285 15.0794 25.4914C14.8165 25.7543 14.6688 26.1108 14.6688 26.4826C14.6688 26.8544 14.8165 27.2109 15.0794 27.4738L23.009 35.4035C23.2719 35.6663 23.6284 35.814 24.0002 35.814C24.372 35.814 24.7285 35.6663 24.9914 35.4035L32.921 27.4738C33.1839 27.2109 33.3316 26.8544 33.3316 26.4826C33.3316 26.1108 33.1839 25.7543 32.921 25.4914Z" fill="#231F20"/>
</svg>
