<svg width="23" height="22" viewBox="0 0 23 22" fill="none" xmlns="http://www.w3.org/2000/svg">
<g clip-path="url(#clip0_40_1240)">
<path d="M22.7247 10.9312C22.7247 4.89405 17.8307 0 11.7935 0C5.75641 0 0.862366 4.89405 0.862366 10.9312C0.862366 16.3872 4.85972 20.9095 10.0855 21.7296V14.091H7.31005V10.9312H10.0855V8.5229C10.0855 5.78327 11.7175 4.26999 14.2144 4.26999C15.41 4.26999 16.6613 4.48349 16.6613 4.48349V7.17358H15.283C13.9251 7.17358 13.5015 8.01627 13.5015 8.88158V10.9312H16.5332L16.0486 14.091H13.5015V21.7296C18.7274 20.9095 22.7247 16.3872 22.7247 10.9312Z" fill="black"/>
</g>
<defs>
<clipPath id="clip0_40_1240">
<rect width="21.8623" height="21.8623" fill="white" transform="translate(0.862366)"/>
</clipPath>
</defs>
</svg>
