<svg width="18" height="21" viewBox="0 0 18 21" fill="none" xmlns="http://www.w3.org/2000/svg">
<path d="M1.75 19.5H16.25" stroke="#1C1818" stroke-width="2" stroke-linecap="round" stroke-linejoin="round"/>
<path d="M9.75 1.5C9.75 0.947715 9.30228 0.5 8.75 0.5C8.19772 0.5 7.75 0.947715 7.75 1.5L9.75 1.5ZM8.04289 16.2071C8.43342 16.5976 9.06658 16.5976 9.45711 16.2071L15.8211 9.84315C16.2116 9.45262 16.2116 8.81946 15.8211 8.42893C15.4305 8.03841 14.7974 8.03841 14.4069 8.42893L8.75 14.0858L3.09315 8.42893C2.70262 8.03841 2.06946 8.03841 1.67893 8.42893C1.28841 8.81946 1.28841 9.45262 1.67893 9.84315L8.04289 16.2071ZM7.75 1.5L7.75 15.5L9.75 15.5L9.75 1.5L7.75 1.5Z" fill="#1C1818"/>
</svg>
