<svg width="186" height="257" viewBox="0 0 186 257" fill="none" xmlns="http://www.w3.org/2000/svg">
<path d="M95.455 36.0434C96.967 31.7151 100.496 23.7213 106.566 21.7706C108.744 21.0705 115.402 19.8087 117.887 19.4006C118.333 19.3294 119.65 19.1123 121.379 18.648C126.521 17.2701 128.284 15.6526 130.844 14.8589C134.616 13.6907 140.582 14.1737 150.136 21.692C144.272 13.3013 134.781 8.23545 124.983 8.23545C123.329 8.23545 121.671 8.37773 120.017 8.67726C112.842 9.96151 106.353 14.0202 101.746 20.1045C98.2207 24.7585 96.0651 30.2736 95.4513 36.0396L95.455 36.0434Z" fill="#8ABB3E"/>
<path d="M130.844 14.8589C128.284 15.6526 126.521 17.2664 121.379 18.648C119.65 19.1123 118.329 19.3257 117.887 19.4006C115.402 19.8087 108.748 21.0667 106.566 21.7706C100.496 23.7251 96.967 31.7151 95.4551 36.0434C95.3877 36.6612 95.3428 37.2827 95.3128 37.908C97.6332 35.7513 100.133 33.7557 102.779 31.9548C108.707 27.9148 115.197 24.9532 122.075 23.1447C133.317 20.1906 143.321 20.8945 150.611 22.3884C150.458 22.1563 150.301 21.9241 150.14 21.6957C140.589 14.1774 134.62 13.6944 130.847 14.8626L130.844 14.8589Z" fill="#709E0B"/>
<path d="M155.492 24.1594C148.624 10.5344 133.793 2.8139 119.429 5.38989C111.424 6.8239 104.201 11.3319 99.0852 18.0901C97.1317 20.6736 95.5561 23.4929 94.3885 26.4696C93.1422 23.1185 91.3608 19.5878 88.8272 16.0907C81.9223 6.55432 72.8731 2.25227 68.094 0.537443C67.7871 0.428862 67.4465 0.556163 67.2856 0.836976L62.9069 8.59864C62.7984 8.78959 62.7909 9.02547 62.8882 9.22017C62.9855 9.41861 63.1726 9.55715 63.3934 9.5871C67.0947 10.1263 76.4471 12.3091 83.352 20.9506C89.1453 28.1994 90.0884 36.0509 90.137 40.0871C90.1408 40.454 90.4402 40.7461 90.8032 40.7461H90.8107C91.1812 40.7423 91.4768 40.439 91.4693 40.0684C91.4693 40.0309 91.4693 39.9897 91.4693 39.9486L91.9334 39.8587C91.9409 40.5626 91.9671 41.2665 92.0195 41.9742C92.0681 42.6369 92.4985 43.206 93.1235 43.4306C93.3069 43.498 93.4978 43.528 93.6849 43.528C94.1377 43.528 94.5793 43.3445 94.8974 43.0038C97.8128 39.9224 101.095 37.1292 104.654 34.703C110.264 30.8802 116.409 28.0721 122.917 26.3647C135.567 23.0399 146.562 24.6124 153.557 26.5145C154.193 26.6867 154.87 26.4696 155.289 25.9603C155.705 25.4474 155.783 24.7397 155.488 24.1519L155.492 24.1594ZM120.017 8.67727C121.671 8.38148 123.329 8.23545 124.983 8.23545C134.777 8.23545 144.268 13.3013 150.136 21.692C150.297 21.9204 150.454 22.1525 150.608 22.3847C143.317 20.8907 133.314 20.1831 122.071 23.141C115.196 24.9494 108.703 27.9111 102.775 31.951C100.129 33.752 97.6294 35.7476 95.3091 37.9042C95.339 37.279 95.3877 36.6574 95.4513 36.0396C96.0651 30.2736 98.2207 24.7585 101.746 20.1045C106.353 14.0202 112.839 9.96152 120.017 8.67727Z" fill="#1C1818"/>
<path d="M156.06 101.117H135.945L121.349 115.719H143.688C144.144 115.719 144.564 116.064 144.766 116.607C145.679 119.033 146.592 121.459 147.505 123.885C147.906 124.952 147.322 126.207 146.427 126.207H39.8085C38.9328 126.207 38.3489 125.005 38.7082 123.945C39.5278 121.519 40.3512 119.093 41.1708 116.667C41.3654 116.09 41.7957 115.723 42.271 115.723H64.8867L50.2911 101.121H29.9397C21.5828 113.6 13.2221 126.083 4.8652 138.562C63.6217 138.439 122.378 138.312 181.135 138.188C172.778 125.832 164.417 113.477 156.06 101.121V101.117Z" fill="white"/>
<path d="M47.1886 171.507C34.9246 172.706 25.0819 173.615 19.4608 174.128V245.533C19.4608 246.627 20.3477 247.514 21.4405 247.514H164.559C165.652 247.514 166.539 246.627 166.539 245.533V173.005C153.287 169.16 142.355 167.471 135.151 166.64C113.161 164.098 99.1451 166.43 47.1886 171.507Z" fill="#627CEF"/>
<path d="M185.985 138.559C186.067 137.48 185.79 136.383 185.165 135.455L172.628 116.921L160.091 98.3875C159.185 97.0509 157.677 96.2496 156.06 96.2496H140.81L143.504 93.5538C152.389 84.6652 157.06 74.335 157.003 63.6828C156.977 58.8678 155.989 54.1689 154.062 49.7133C152.209 45.4263 149.575 41.5623 146.236 38.2225C142.898 34.8827 139.036 32.2505 134.751 30.3934C130.297 28.4652 125.597 27.473 120.788 27.4468C120.724 27.4468 120.66 27.4468 120.597 27.4468C110.881 27.4468 101.439 31.3819 93.1235 38.8665C84.7479 31.3295 75.2421 27.3906 65.4518 27.4393C60.639 27.4655 55.9422 28.454 51.4887 30.3859C47.2036 32.2393 43.3414 34.8752 40.0031 38.215C36.6648 41.5548 34.0339 45.4225 32.1776 49.7059C30.2503 54.1614 29.2585 58.8641 29.2323 63.6754C29.1762 74.2863 33.8056 84.5716 42.6153 93.434C42.6528 93.4752 42.6902 93.5164 42.7313 93.5576L45.4259 96.2534H29.9396C28.3154 96.2534 26.7997 97.0621 25.8978 98.41L13.3606 117.131L0.82334 135.848C0.273199 136.668 0 137.619 0 138.57V149.14C0 151.566 1.96479 153.532 4.3899 153.532H10.4789V245.53C10.4789 251.576 15.3965 256.496 21.4405 256.496H164.559C170.604 256.496 175.521 251.576 175.521 245.53V153.532H183.111C184.705 153.532 186 152.236 186 150.641V138.57C186 138.57 185.993 138.555 185.985 138.555V138.559ZM35.4336 63.7016C35.456 59.729 36.2719 55.8463 37.8662 52.162C39.408 48.5976 41.6011 45.3776 44.3855 42.5957C47.1699 39.81 50.3847 37.6159 53.9475 36.0733C57.6301 34.4783 61.511 33.6584 65.4817 33.6396C65.5341 33.6396 65.5828 33.6396 65.6352 33.6396C67.9742 33.6396 70.2983 33.9204 72.5999 34.4708C79.0519 36.0134 85.2868 39.6865 90.9229 45.3252L90.9304 45.3327C92.143 46.5458 94.104 46.5458 95.3166 45.3327C103.004 37.6421 111.802 33.6022 120.754 33.6509C124.725 33.6733 128.602 34.4896 132.285 36.0846C135.847 37.6272 139.066 39.8213 141.847 42.6069C144.631 45.3926 146.824 48.6088 148.366 52.1733C149.96 55.8575 150.78 59.7402 150.798 63.709C150.843 72.6688 146.805 81.4676 139.118 89.1619L106.589 121.706H79.6507L47.2298 89.2705C47.1961 89.233 47.1624 89.1956 47.125 89.1619C47.125 89.1619 47.1175 89.1544 47.1138 89.1507C39.4268 81.4602 35.3849 72.6576 35.4336 63.6978V63.7016ZM4.86519 138.559C13.2221 126.079 21.5827 113.596 29.9396 101.117H50.2911L64.8867 115.719H42.271C41.7957 115.719 41.3654 116.09 41.1707 116.663C40.3511 119.089 39.5278 121.515 38.7082 123.941C38.3489 125.001 38.9328 126.203 39.8085 126.203H146.424C147.322 126.203 147.902 124.949 147.501 123.882C146.588 121.455 145.675 119.029 144.762 116.603C144.556 116.06 144.141 115.716 143.684 115.716H121.345L135.941 101.113H156.057C164.414 113.469 172.774 125.825 181.131 138.181C122.375 138.304 63.618 138.431 4.86145 138.555L4.86519 138.559ZM166.539 173.005V245.533C166.539 246.627 165.652 247.514 164.559 247.514H21.4405C20.3477 247.514 19.4608 246.627 19.4608 245.533V174.128C19.4608 174.128 19.4533 174.128 19.4458 174.128V153.535H166.539V173.005Z" fill="#1C1818"/>
<path d="M19.4458 174.128C19.4458 174.128 19.4533 174.128 19.4608 174.128C25.0782 173.615 34.9209 172.709 47.1886 171.507C99.1451 166.43 113.161 164.098 135.151 166.64C142.356 167.471 153.287 169.16 166.539 173.005V153.535H19.4458V174.128Z" fill="#4F6FE0"/>
<path d="M56.2304 63.8438C57.6675 70.7106 62.9593 71.1637 72.4053 83.9051C80.6873 95.0702 84.6468 105.543 87.1393 112.278C88.3406 115.528 89.3548 118.681 90.2156 121.71H106.593L139.122 89.1656C146.809 81.4751 150.851 72.6726 150.802 63.7128C150.78 59.7402 149.964 55.8575 148.37 52.177C146.828 48.6126 144.635 45.3926 141.85 42.6107C139.066 39.825 135.851 37.6309 132.288 36.0883C128.606 34.4933 124.725 33.6733 120.758 33.6546C111.806 33.6097 103.007 37.6459 95.3203 45.3364C94.1078 46.5495 92.1467 46.5495 90.9342 45.3364L90.9267 45.3289C85.2905 39.6902 79.0556 36.0172 72.6036 34.4746C57.1323 48.4066 54.9504 57.7221 56.2341 63.8476L56.2304 63.8438ZM141.959 57.3552C143.126 57.1043 144.275 57.8457 144.53 59.0139C144.781 60.182 144.04 61.3315 142.872 61.5861C141.704 61.837 140.555 61.0956 140.301 59.9274C140.05 58.7593 140.791 57.6098 141.959 57.3552ZM129.841 42.1277C130.043 42.0041 130.945 41.4912 132.547 41.7308C136.94 42.3972 139.979 47.8937 141.506 52.031C141.573 52.2182 141.611 52.4017 141.611 52.4017C141.633 52.514 141.652 52.6338 141.656 52.7536C141.723 54.0004 140.765 55.0638 139.519 55.1312C138.751 55.1723 138.179 54.7829 138.063 54.6968C137.629 54.3711 137.468 53.9854 137.217 53.4613C136.667 52.3193 135.918 50.7879 134.676 49.7283C134.369 49.4662 134.096 49.3015 133.95 49.2116C132.333 48.2419 131.341 48.7137 130.159 48.137C129.227 47.684 128.291 46.6281 128.172 45.3327C128.052 43.9997 128.83 42.7417 129.841 42.1277Z" fill="#F63948"/>
<path d="M47.125 89.1656C47.1624 89.2031 47.1961 89.2368 47.2298 89.2742L79.6507 121.71H90.2119C89.3511 118.677 88.3406 115.528 87.1356 112.278C84.6431 105.543 80.6836 95.0739 72.4015 83.9051C62.9556 71.1674 57.6675 70.7106 56.2266 63.8438C54.943 57.7184 57.1286 48.4029 72.5961 34.4708C70.2983 33.9204 67.9705 33.6396 65.6314 33.6396C65.579 33.6396 65.5304 33.6396 65.478 33.6396C61.5072 33.6621 57.6263 34.4783 53.9437 36.0733C50.3809 37.6159 47.1624 39.81 44.3818 42.5957C41.5974 45.3813 39.4043 48.5976 37.8624 52.162C36.2681 55.8463 35.4485 59.729 35.4298 63.7016C35.3812 72.6614 39.423 81.4601 47.11 89.1544C47.11 89.1544 47.1175 89.1619 47.1212 89.1656H47.125Z" fill="#DD283E"/>
<path d="M140.301 59.9274C140.552 61.0956 141.704 61.837 142.872 61.5861C144.04 61.3353 144.781 60.182 144.53 59.0139C144.279 57.8457 143.126 57.1043 141.959 57.3552C140.791 57.6061 140.05 58.7593 140.301 59.9274Z" fill="white"/>
<path d="M130.159 48.1371C131.341 48.7137 132.333 48.2419 133.95 49.2116C134.092 49.2977 134.365 49.4625 134.676 49.7283C135.922 50.7917 136.671 52.3193 137.217 53.4613C137.468 53.9854 137.629 54.3711 138.063 54.6968C138.179 54.7829 138.752 55.1723 139.519 55.1312C140.765 55.0638 141.723 54.0004 141.656 52.7536C141.648 52.6338 141.633 52.5177 141.611 52.4017C141.611 52.4017 141.573 52.2144 141.506 52.031C139.983 47.8937 136.94 42.3935 132.547 41.7308C130.945 41.4874 130.043 42.0041 129.841 42.1277C128.83 42.7417 128.052 43.9997 128.172 45.3327C128.288 46.6319 129.227 47.684 130.159 48.1371Z" fill="white"/>
</svg>
