<svg width="23" height="22" viewBox="0 0 23 22" fill="none" xmlns="http://www.w3.org/2000/svg">
<path d="M20.8311 0H2.20109C1.30866 0 0.587036 0.704548 0.587036 1.57563V20.2825C0.587036 21.1535 1.30866 21.8623 2.20109 21.8623H20.8311C21.7235 21.8623 22.4494 21.1535 22.4494 20.2867V1.57563C22.4494 0.704548 21.7235 0 20.8311 0ZM7.07315 18.63H3.82796V8.19411H7.07315V18.63ZM5.45055 6.7722C4.40868 6.7722 3.56749 5.93102 3.56749 4.89341C3.56749 3.8558 4.40868 3.01461 5.45055 3.01461C6.48816 3.01461 7.32935 3.8558 7.32935 4.89341C7.32935 5.92675 6.48816 6.7722 5.45055 6.7722ZM19.217 18.63H15.9761V13.5572C15.9761 12.3488 15.9547 10.7903 14.2894 10.7903C12.6028 10.7903 12.3466 12.1097 12.3466 13.4718V18.63H9.10994V8.19411H12.2185V9.62029H12.2612C12.6925 8.80045 13.7514 7.93364 15.327 7.93364C18.6107 7.93364 19.217 10.0943 19.217 12.9039V18.63Z" fill="black"/>
</svg>
