<svg width="23" height="22" viewBox="0 0 23 22" fill="none" xmlns="http://www.w3.org/2000/svg">
<g clip-path="url(#clip0_40_1242)">
<path d="M11.6559 1.96847C14.5766 1.96847 14.9224 1.98128 16.0711 2.03251C17.1386 2.07948 17.715 2.25882 18.0993 2.40827C18.6075 2.60469 18.9747 2.84381 19.3547 3.22384C19.739 3.60814 19.9738 3.97109 20.1703 4.47922C20.3197 4.86352 20.4991 5.44424 20.546 6.50746C20.5973 7.66036 20.6101 8.00623 20.6101 10.9226C20.6101 13.8433 20.5973 14.1892 20.546 15.3378C20.4991 16.4053 20.3197 16.9818 20.1703 17.3661C19.9738 17.8742 19.7347 18.2414 19.3547 18.6214C18.9704 19.0057 18.6075 19.2406 18.0993 19.437C17.715 19.5864 17.1343 19.7658 16.0711 19.8128C14.9182 19.864 14.5723 19.8768 11.6559 19.8768C8.73523 19.8768 8.38936 19.864 7.24074 19.8128C6.17324 19.7658 5.59679 19.5864 5.21249 19.437C4.70436 19.2406 4.33714 19.0015 3.95711 18.6214C3.57281 18.2371 3.33797 17.8742 3.14155 17.3661C2.9921 16.9818 2.81276 16.401 2.76579 15.3378C2.71455 14.1849 2.70174 13.839 2.70174 10.9226C2.70174 8.00196 2.71455 7.65609 2.76579 6.50746C2.81276 5.43997 2.9921 4.86352 3.14155 4.47922C3.33797 3.97109 3.57708 3.60387 3.95711 3.22384C4.34141 2.83954 4.70436 2.60469 5.21249 2.40827C5.59679 2.25882 6.17751 2.07948 7.24074 2.03251C8.38936 1.98128 8.73523 1.96847 11.6559 1.96847ZM11.6559 0C8.68826 0 8.31677 0.01281 7.15107 0.0640498C5.98963 0.11529 5.19114 0.303169 4.4994 0.572179C3.77777 0.853998 3.16717 1.22549 2.56083 1.8361C1.95022 2.44243 1.57873 3.05304 1.29691 3.7704C1.0279 4.46641 0.840021 5.26063 0.788781 6.42206C0.737541 7.59204 0.724731 7.96353 0.724731 10.9312C0.724731 13.8988 0.737541 14.2703 0.788781 15.436C0.840021 16.5975 1.0279 17.3959 1.29691 18.0877C1.57873 18.8093 1.95022 19.4199 2.56083 20.0263C3.16717 20.6326 3.77777 21.0084 4.49513 21.2859C5.19114 21.5549 5.98536 21.7428 7.1468 21.794C8.3125 21.8453 8.68399 21.8581 11.6516 21.8581C14.6193 21.8581 14.9908 21.8453 16.1565 21.794C17.3179 21.7428 18.1164 21.5549 18.8081 21.2859C19.5255 21.0084 20.1361 20.6326 20.7424 20.0263C21.3488 19.4199 21.7245 18.8093 22.0021 18.0919C22.2711 17.3959 22.459 16.6017 22.5102 15.4403C22.5615 14.2746 22.5743 13.9031 22.5743 10.9354C22.5743 7.9678 22.5615 7.59631 22.5102 6.4306C22.459 5.26917 22.2711 4.47068 22.0021 3.77894C21.7331 3.05304 21.3616 2.44243 20.751 1.8361C20.1446 1.22976 19.534 0.853998 18.8167 0.576449C18.1207 0.307439 17.3265 0.11956 16.165 0.0683198C14.995 0.01281 14.6236 0 11.6559 0Z" fill="black"/>
<path d="M11.6559 5.31641C8.55592 5.31641 6.04089 7.83143 6.04089 10.9314C6.04089 14.0315 8.55592 16.5465 11.6559 16.5465C14.7559 16.5465 17.271 14.0315 17.271 10.9314C17.271 7.83143 14.7559 5.31641 11.6559 5.31641ZM11.6559 14.5737C9.64477 14.5737 8.01363 12.9426 8.01363 10.9314C8.01363 8.92028 9.64477 7.28914 11.6559 7.28914C13.6671 7.28914 15.2982 8.92028 15.2982 10.9314C15.2982 12.9426 13.6671 14.5737 11.6559 14.5737Z" fill="black"/>
<path d="M18.8039 5.09409C18.8039 5.81999 18.2146 6.40498 17.493 6.40498C16.7671 6.40498 16.1821 5.81572 16.1821 5.09409C16.1821 4.36819 16.7714 3.7832 17.493 3.7832C18.2146 3.7832 18.8039 4.37246 18.8039 5.09409Z" fill="black"/>
</g>
<defs>
<clipPath id="clip0_40_1242">
<rect width="21.8623" height="21.8623" fill="white" transform="translate(0.724731)"/>
</clipPath>
</defs>
</svg>
