<svg width="23" height="22" viewBox="0 0 23 22" fill="none" xmlns="http://www.w3.org/2000/svg">
<g clip-path="url(#clip0_40_1242)">
<path d="M11.6559 1.96847C14.5766 1.96847 14.9224 1.98128 16.071 2.03251C17.1385 2.07948 17.715 2.25882 18.0993 2.40827C18.6074 2.60469 18.9746 2.84381 19.3547 3.22384C19.739 3.60814 19.9738 3.97109 20.1702 4.47922C20.3197 4.86352 20.499 5.44424 20.546 6.50746C20.5972 7.66036 20.61 8.00623 20.61 10.9226C20.61 13.8433 20.5972 14.1892 20.546 15.3378C20.499 16.4053 20.3197 16.9818 20.1702 17.3661C19.9738 17.8742 19.7347 18.2414 19.3547 18.6214C18.9704 19.0057 18.6074 19.2406 18.0993 19.437C17.715 19.5864 17.1343 19.7658 16.071 19.8128C14.9181 19.864 14.5723 19.8768 11.6559 19.8768C8.7352 19.8768 8.38933 19.864 7.24071 19.8128C6.17321 19.7658 5.59676 19.5864 5.21246 19.437C4.70433 19.2406 4.33711 19.0015 3.95708 18.6214C3.57278 18.2371 3.33793 17.8742 3.14152 17.3661C2.99207 16.9818 2.81273 16.401 2.76576 15.3378C2.71452 14.1849 2.70171 13.839 2.70171 10.9226C2.70171 8.00196 2.71452 7.65609 2.76576 6.50746C2.81273 5.43997 2.99207 4.86352 3.14152 4.47922C3.33793 3.97109 3.57705 3.60387 3.95708 3.22384C4.34138 2.83954 4.70433 2.60469 5.21246 2.40827C5.59676 2.25882 6.17748 2.07948 7.24071 2.03251C8.38933 1.98128 8.7352 1.96847 11.6559 1.96847ZM11.6559 0C8.68823 0 8.31674 0.01281 7.15104 0.0640498C5.9896 0.11529 5.19111 0.303169 4.49937 0.572179C3.77774 0.853998 3.16714 1.22549 2.5608 1.8361C1.95019 2.44243 1.5787 3.05304 1.29688 3.7704C1.02787 4.46641 0.839991 5.26063 0.788751 6.42206C0.737511 7.59204 0.724701 7.96353 0.724701 10.9312C0.724701 13.8988 0.737511 14.2703 0.788751 15.436C0.839991 16.5975 1.02787 17.3959 1.29688 18.0877C1.5787 18.8093 1.95019 19.4199 2.5608 20.0263C3.16714 20.6326 3.77774 21.0084 4.4951 21.2859C5.19111 21.5549 5.98533 21.7428 7.14677 21.794C8.31247 21.8453 8.68396 21.8581 11.6516 21.8581C14.6192 21.8581 14.9907 21.8453 16.1564 21.794C17.3179 21.7428 18.1164 21.5549 18.8081 21.2859C19.5255 21.0084 20.1361 20.6326 20.7424 20.0263C21.3488 19.4199 21.7245 18.8093 22.0021 18.0919C22.2711 17.3959 22.459 16.6017 22.5102 15.4403C22.5614 14.2746 22.5742 13.9031 22.5742 10.9354C22.5742 7.9678 22.5614 7.59631 22.5102 6.4306C22.459 5.26917 22.2711 4.47068 22.0021 3.77894C21.7331 3.05304 21.3616 2.44243 20.751 1.8361C20.1446 1.22976 19.534 0.853998 18.8167 0.576449C18.1206 0.307439 17.3264 0.11956 16.165 0.0683198C14.995 0.01281 14.6235 0 11.6559 0Z" fill="black"/>
<path d="M11.6559 5.31592C8.55586 5.31592 6.04083 7.83094 6.04083 10.931C6.04083 14.031 8.55586 16.546 11.6559 16.546C14.7559 16.546 17.2709 14.031 17.2709 10.931C17.2709 7.83094 14.7559 5.31592 11.6559 5.31592ZM11.6559 14.5733C9.6447 14.5733 8.01357 12.9421 8.01357 10.931C8.01357 8.91979 9.6447 7.28865 11.6559 7.28865C13.667 7.28865 15.2982 8.91979 15.2982 10.931C15.2982 12.9421 13.667 14.5733 11.6559 14.5733Z" fill="black"/>
<path d="M18.8038 5.09409C18.8038 5.81999 18.2146 6.40498 17.493 6.40498C16.7671 6.40498 16.1821 5.81572 16.1821 5.09409C16.1821 4.36819 16.7713 3.7832 17.493 3.7832C18.2146 3.7832 18.8038 4.37246 18.8038 5.09409Z" fill="black"/>
</g>
<defs>
<clipPath id="clip0_40_1242">
<rect width="21.8623" height="21.8623" fill="white" transform="translate(0.724701)"/>
</clipPath>
</defs>
</svg>
