<svg width="87" height="94" viewBox="0 0 87 94" fill="none" xmlns="http://www.w3.org/2000/svg">
<g clip-path="url(#clip0_204_2684)">
<path d="M35.3814 35.089L29.0035 19.5706C28.3182 17.9032 26.4025 17.1052 24.7325 17.7915C23.0624 18.4779 22.2615 20.3924 22.9468 22.0599L36.148 54.1805C36.148 54.1805 36.1519 54.1899 36.1541 54.1952L42.2098 51.7064L35.3808 35.0904L35.3814 35.089Z" fill="#F63948"/>
<path d="M46.5338 35.2314L44.872 31.1878C44.1866 29.5203 42.2709 28.7223 40.6009 29.4087C38.9308 30.0951 38.1299 32.0096 38.8152 33.6771L45.6442 50.293L51.7009 47.8038L46.5338 35.2314Z" fill="#F63948"/>
<path d="M57.1197 33.9966L56.0243 31.3314C55.339 29.6639 53.4232 28.8659 51.7532 29.5523C50.0832 30.2386 49.2823 32.1531 49.9676 33.8206L55.1347 46.393L61.1914 43.9037L57.1197 33.9966Z" fill="#F63948"/>
<path d="M66.6101 30.096C65.9248 28.4286 64.009 27.6305 62.339 28.3169C60.669 29.0033 59.8681 30.9178 60.5534 32.5853L64.6251 42.4924L70.6818 40.0032L66.6101 30.096Z" fill="#F63948"/>
<path d="M64.6251 42.4919L36.1548 54.1929L37.9951 58.6707C38.4095 59.679 38.1325 60.835 37.3067 61.5479C36.5099 62.2355 35.381 62.3578 34.46 61.8687L24.0642 56.999C24.011 56.9742 23.9594 56.9475 23.909 56.9178C23.0191 56.3937 21.9364 56.3078 21.0108 56.6882C20.339 56.9643 19.7867 57.4383 19.4552 58.0244C19.4488 58.0356 19.4434 58.0464 19.4365 58.0566C18.518 59.6041 19.0287 61.6076 20.5739 62.5222L42.4726 75.5009C47.5088 78.4858 53.7513 78.9374 59.171 76.7099L66.6871 73.6209C75.0973 70.1644 79.1311 60.522 75.6798 52.1246L70.6955 39.997L70.6818 40.0026L64.6251 42.4919Z" fill="#F63948"/>
<path d="M74.0285 38.3829L70.0428 28.685C68.5805 25.1272 64.4921 23.4241 60.9288 24.8886C59.5905 25.4386 58.5136 26.3581 57.7686 27.4803C55.8337 25.6775 52.9481 25.0532 50.343 26.1238C49.1721 26.6051 48.203 27.3708 47.4786 28.3064C45.6267 25.78 42.2186 24.735 39.1902 25.9797C38.0962 26.4293 37.1777 27.1263 36.4721 27.9792L32.4363 18.1593C30.974 14.6015 26.8856 12.8984 23.3223 14.3629C19.7591 15.8274 18.0498 19.9132 19.512 23.471L32.7219 55.6127C32.7219 55.6127 32.7258 55.6221 32.7279 55.6274L33.4085 57.2833L25.7139 53.679C23.8448 52.6111 21.5659 52.4539 19.6 53.2619C18.168 53.8504 16.9735 54.8883 16.2322 56.1872C14.283 59.4916 15.3769 63.7613 18.6755 65.714L40.5727 78.6921C43.5491 80.4564 46.9476 81.5201 50.401 81.7709C53.854 82.0207 57.3727 81.457 60.5758 80.1405L68.092 77.0515C78.3953 72.8169 83.3375 61.0032 79.1098 50.7165L74.1255 38.5889C74.0961 38.5174 74.0623 38.4502 74.0258 38.3853L74.0285 38.3829ZM70.6955 39.9973L75.6798 52.1249C79.1306 60.5212 75.0962 70.1652 66.6871 73.6212L59.171 76.7102C53.7513 78.9377 47.5088 78.4862 42.4726 75.5012L20.5739 62.5225C19.0287 61.6079 18.5179 59.6044 19.4365 58.0569C19.4429 58.0457 19.4498 58.0355 19.4552 58.0247C19.7867 57.4386 20.34 56.9642 21.0108 56.6885C21.9363 56.3081 23.0191 56.394 23.909 56.9181C23.9593 56.9478 24.0109 56.9745 24.0642 56.9993L34.4599 61.869C35.3799 62.3586 36.5099 62.2358 37.3067 61.5483C38.1325 60.8353 38.4094 59.6793 37.9951 58.671L36.1547 54.1932C36.1547 54.1932 36.1508 54.1837 36.1487 54.1785L22.9479 22.0589C22.2626 20.3915 23.0635 18.4769 24.7335 17.7906C26.4035 17.1042 28.3193 17.9022 29.0046 19.5697L42.2114 51.704L45.6452 50.2927L38.8162 33.6768C38.1309 32.0093 38.9318 30.0948 40.6019 29.4084C42.2719 28.722 44.1876 29.52 44.8729 31.1875L51.7019 47.8035L55.1357 46.3922L49.9686 33.8199C49.2832 32.1524 50.0842 30.2379 51.7542 29.5515C53.4242 28.8651 55.34 29.6632 56.0253 31.3306L61.1924 43.903L64.6261 42.4918L60.5544 32.5846C59.8691 30.9172 60.67 29.0026 62.34 28.3163C64.0101 27.6299 65.9258 28.4279 66.6111 30.0954L70.6828 40.0025L70.6965 39.9969L70.6955 39.9973Z" fill="#1C1818"/>
</g>
<defs>
<clipPath id="clip0_204_2684">
<rect width="63" height="75" fill="white" transform="translate(0 23.9482) rotate(-22.3421)"/>
</clipPath>
</defs>
</svg>
