<svg width="88" height="94" viewBox="0 0 88 94" fill="none" xmlns="http://www.w3.org/2000/svg">
<g clip-path="url(#clip0_204_2673)">
<path d="M35.8814 35.089L29.5035 19.5706C28.8182 17.9032 26.9025 17.1052 25.2325 17.7915C23.5624 18.4779 22.7615 20.3924 23.4468 22.0599L36.648 54.1805C36.648 54.1805 36.6519 54.1899 36.6541 54.1952L42.7098 51.7064L35.8808 35.0904L35.8814 35.089Z" fill="#F63948"/>
<path d="M47.0338 35.2314L45.372 31.1878C44.6866 29.5203 42.7709 28.7223 41.1009 29.4087C39.4308 30.0951 38.6299 32.0096 39.3152 33.6771L46.1442 50.293L52.2009 47.8038L47.0338 35.2314Z" fill="#F63948"/>
<path d="M57.6197 33.9966L56.5243 31.3314C55.839 29.6639 53.9232 28.8659 52.2532 29.5523C50.5832 30.2386 49.7823 32.1531 50.4676 33.8206L55.6347 46.393L61.6914 43.9037L57.6197 33.9966Z" fill="#F63948"/>
<path d="M67.1101 30.096C66.4248 28.4286 64.509 27.6305 62.839 28.3169C61.169 29.0033 60.3681 30.9178 61.0534 32.5853L65.1251 42.4924L71.1818 40.0032L67.1101 30.096Z" fill="#F63948"/>
<path d="M65.1251 42.4919L36.6548 54.1929L38.4951 58.6707C38.9095 59.679 38.6325 60.835 37.8067 61.5479C37.0099 62.2355 35.881 62.3578 34.96 61.8687L24.5642 56.999C24.511 56.9742 24.4594 56.9475 24.409 56.9178C23.5191 56.3937 22.4364 56.3078 21.5108 56.6882C20.839 56.9643 20.2867 57.4383 19.9552 58.0244C19.9488 58.0356 19.9434 58.0464 19.9365 58.0566C19.018 59.6041 19.5287 61.6076 21.0739 62.5222L42.9726 75.5009C48.0088 78.4858 54.2513 78.9374 59.671 76.7099L67.1871 73.6209C75.5973 70.1644 79.6311 60.522 76.1798 52.1246L71.1955 39.997L71.1818 40.0026L65.1251 42.4919Z" fill="#F63948"/>
<path d="M74.5285 38.3829L70.5428 28.685C69.0805 25.1272 64.9921 23.4241 61.4288 24.8886C60.0905 25.4386 59.0136 26.3581 58.2686 27.4803C56.3337 25.6775 53.4481 25.0532 50.843 26.1238C49.6721 26.6051 48.703 27.3708 47.9786 28.3064C46.1267 25.78 42.7186 24.735 39.6902 25.9797C38.5962 26.4293 37.6777 27.1263 36.9721 27.9792L32.9363 18.1593C31.474 14.6015 27.3856 12.8984 23.8223 14.3629C20.2591 15.8274 18.5498 19.9132 20.012 23.471L33.2219 55.6127C33.2219 55.6127 33.2258 55.6221 33.2279 55.6274L33.9085 57.2833L26.2139 53.679C24.3448 52.6111 22.0659 52.4539 20.1 53.2619C18.668 53.8504 17.4735 54.8883 16.7322 56.1872C14.783 59.4916 15.8769 63.7613 19.1755 65.714L41.0727 78.6921C44.0491 80.4564 47.4476 81.5201 50.901 81.7709C54.354 82.0207 57.8727 81.457 61.0758 80.1405L68.592 77.0515C78.8953 72.8169 83.8375 61.0032 79.6098 50.7165L74.6255 38.5889C74.5961 38.5174 74.5623 38.4502 74.5258 38.3853L74.5285 38.3829ZM71.1955 39.9973L76.1798 52.1249C79.6306 60.5212 75.5962 70.1652 67.1871 73.6212L59.671 76.7102C54.2513 78.9377 48.0088 78.4862 42.9726 75.5012L21.0739 62.5225C19.5287 61.6079 19.0179 59.6044 19.9365 58.0569C19.9429 58.0457 19.9498 58.0355 19.9552 58.0247C20.2867 57.4386 20.84 56.9642 21.5108 56.6885C22.4363 56.3081 23.5191 56.394 24.409 56.9181C24.4593 56.9478 24.5109 56.9745 24.5642 56.9993L34.9599 61.869C35.8799 62.3586 37.0099 62.2358 37.8067 61.5483C38.6325 60.8353 38.9094 59.6793 38.4951 58.671L36.6547 54.1932C36.6547 54.1932 36.6508 54.1837 36.6487 54.1785L23.4479 22.0589C22.7626 20.3915 23.5635 18.4769 25.2335 17.7906C26.9035 17.1042 28.8193 17.9022 29.5046 19.5697L42.7114 51.704L46.1452 50.2927L39.3162 33.6768C38.6309 32.0093 39.4318 30.0948 41.1019 29.4084C42.7719 28.722 44.6876 29.52 45.3729 31.1875L52.2019 47.8035L55.6357 46.3922L50.4686 33.8199C49.7832 32.1524 50.5842 30.2379 52.2542 29.5515C53.9242 28.8651 55.84 29.6632 56.5253 31.3306L61.6924 43.903L65.1261 42.4918L61.0544 32.5846C60.3691 30.9172 61.17 29.0026 62.84 28.3163C64.5101 27.6299 66.4258 28.4279 67.1111 30.0954L71.1828 40.0025L71.1965 39.9969L71.1955 39.9973Z" fill="#1C1818"/>
</g>
<defs>
<clipPath id="clip0_204_2673">
<rect width="63" height="75" fill="white" transform="translate(0.5 23.9482) rotate(-22.3421)"/>
</clipPath>
</defs>
</svg>
