<svg width="34" height="47" viewBox="0 0 34 47" fill="none" xmlns="http://www.w3.org/2000/svg">
<g clip-path="url(#clip0_198_1806)">
<path d="M12.9285 23.8497C12.8642 23.81 12.8006 23.7696 12.737 23.7285C12.7999 23.7696 12.8636 23.8107 12.9285 23.8497Z" fill="#FFFDFB"/>
<path d="M18.1774 9.76509C17.7937 9.70689 17.4003 9.67676 16.9993 9.67676C16.5983 9.67676 16.2215 9.7062 15.8454 9.76166C16.2222 9.70552 16.6073 9.67676 16.9993 9.67676C17.3913 9.67676 17.793 9.70689 18.1774 9.76509Z" fill="#FFFDFB"/>
<path d="M15.8461 24.9111C16.2008 24.9639 16.5631 24.9919 16.9316 24.9954C16.5631 24.9919 16.2001 24.9639 15.8461 24.9111Z" fill="#FFFDFB"/>
<path d="M21.7552 11.2959C21.7732 11.3103 21.7919 11.324 21.8098 11.3384C21.7919 11.324 21.7739 11.3096 21.7552 11.2959Z" fill="#FFFDFB"/>
<path d="M17 22.1202C19.6675 22.1202 21.8299 19.9786 21.8299 17.3367C21.8299 14.6949 19.6675 12.5532 17 12.5532C14.3325 12.5532 12.1701 14.6949 12.1701 17.3367C12.1701 19.9786 14.3325 22.1202 17 22.1202Z" fill="#FFFDFB"/>
<path d="M13.4222 24.1287C13.3309 24.0814 13.2397 24.0328 13.1505 23.9814C13.2397 24.0321 13.3302 24.0807 13.4222 24.1287Z" fill="#FFFDFB"/>
<path d="M11.9233 11.5586C12.0325 11.4641 12.1452 11.373 12.26 11.2847C12.1452 11.373 12.0332 11.4641 11.9233 11.5586Z" fill="#FFFDFB"/>
<path d="M12.7377 10.9449C12.8006 10.9038 12.8643 10.8628 12.9292 10.8237C12.8649 10.8634 12.8013 10.9038 12.7377 10.9449Z" fill="#FFFDFB"/>
<path d="M18.1774 9.76514C19.1018 9.90482 19.9722 10.2075 20.7583 10.6409C19.9722 10.2068 19.1018 9.90482 18.1774 9.76514Z" fill="#FFFDFB"/>
<path d="M29.2282 10.3876C29.0588 10.0952 28.8784 9.80968 28.6882 9.53099C26.1551 5.81772 21.8651 3.37598 16.9993 3.37598C9.21453 3.37598 2.90305 9.62617 2.90305 17.3369C2.90305 18.9706 3.21762 20.399 3.74789 21.8123C3.80666 21.9691 3.86819 22.1259 3.93249 22.2834C4.09289 22.6757 4.26918 23.0687 4.45862 23.4659C4.7241 24.0219 5.01655 24.5875 5.33043 25.1722C5.52194 25.5701 5.72105 25.972 5.92777 26.3767C6.02595 26.5691 6.12619 26.7622 6.22713 26.9553C6.30042 27.0949 6.37439 27.2353 6.44906 27.3757C6.51612 27.5017 6.58388 27.6277 6.65163 27.7536C6.72976 27.8988 6.80857 28.0433 6.88808 28.1884C6.99593 28.385 7.10379 28.5808 7.21371 28.7773C7.28907 28.9122 7.36512 29.0471 7.44117 29.182C7.55041 29.3744 7.66034 29.5668 7.77095 29.7592C7.89263 29.9708 8.01501 30.1817 8.13876 30.3926C8.26666 30.611 8.39595 30.8288 8.52593 31.0465C8.63516 31.2293 8.7444 31.4121 8.85432 31.5943C9.17512 32.1249 9.49868 32.6508 9.82293 33.1692C10.0663 33.5574 10.3096 33.9422 10.5516 34.3202C13.864 39.494 16.9986 43.6249 16.9986 43.6249C16.9986 43.6249 19.9819 39.6932 23.2036 34.6968C23.2838 34.5722 23.3647 34.4462 23.4456 34.3202C23.9303 33.5629 24.419 32.7837 24.9023 31.9914C24.9825 31.8593 25.0634 31.7271 25.1436 31.5943C25.2535 31.4121 25.3628 31.23 25.472 31.0465C25.6013 30.8294 25.7306 30.611 25.8592 30.3926C26.0949 29.99 26.3279 29.586 26.5568 29.182C26.6328 29.0471 26.7089 28.9122 26.7842 28.7773C26.8941 28.5808 27.0027 28.3843 27.1098 28.1884C27.1894 28.0433 27.2682 27.8981 27.3463 27.7536C27.4147 27.6277 27.4818 27.5017 27.5489 27.3757C27.6235 27.2353 27.6975 27.0956 27.7708 26.9553C27.8717 26.7622 27.972 26.5691 28.0702 26.3767C28.2769 25.972 28.476 25.5701 28.6675 25.1722C29.5891 23.3611 30.2424 22.0273 30.6372 20.69C30.6808 20.5414 30.7215 20.3928 30.7596 20.2436C30.7969 20.0943 30.8315 19.9443 30.8626 19.793C30.9096 19.5657 30.949 19.3356 30.9815 19.1001C31.0575 18.5509 31.0956 17.9723 31.0956 17.3369C31.0956 15.7709 30.8349 14.2645 30.3551 12.8595C30.0599 11.9946 29.681 11.1675 29.2282 10.3883V10.3876ZM21.2215 23.7548C21.1841 23.7788 21.1468 23.8028 21.1088 23.826C20.994 23.8973 20.8772 23.9664 20.7583 24.0315C20.7085 24.0589 20.6587 24.0856 20.6082 24.1123C20.5515 24.1417 20.4949 24.1705 20.4375 24.1992C19.7378 24.5436 18.978 24.7867 18.1781 24.9079C17.7944 24.9661 17.401 24.9963 17 24.9963C16.9772 24.9963 16.9544 24.9963 16.9316 24.9956C16.5631 24.9921 16.2008 24.9641 15.8461 24.9113C15.8288 24.9086 15.8122 24.9065 15.7949 24.9038C14.9943 24.7799 14.2345 24.5341 13.5349 24.1862C13.4968 24.1677 13.4595 24.1486 13.4222 24.1287C13.3309 24.0815 13.2397 24.0328 13.1505 23.9815C13.0758 23.939 13.0018 23.8945 12.9292 23.85C12.8649 23.8103 12.8013 23.7699 12.7377 23.7288C10.6463 22.358 9.26638 20.0073 9.26638 17.3369C9.26638 15.0307 10.2951 12.9628 11.9233 11.5592C12.0325 11.4647 12.1452 11.3736 12.26 11.2853C12.4149 11.1661 12.5746 11.0531 12.7377 10.9456C12.8006 10.9046 12.8642 10.8635 12.9292 10.8244C13.0025 10.7793 13.0758 10.7354 13.1505 10.693C13.9525 10.2363 14.845 9.91786 15.7949 9.77065C15.8115 9.76791 15.8288 9.76517 15.8461 9.76312C16.2229 9.70697 16.608 9.67821 17 9.67821C17.392 9.67821 17.7937 9.70834 18.1781 9.76654C19.1024 9.90622 19.9729 10.2089 20.759 10.6423C20.8779 10.708 20.9947 10.7765 21.1095 10.8477C21.1475 10.871 21.1848 10.895 21.2222 10.9189C21.4054 11.0374 21.5838 11.1634 21.7559 11.2962C21.7739 11.3106 21.7925 11.3243 21.8105 11.3387C21.8866 11.3989 21.9619 11.4606 22.0359 11.5236C22.047 11.5331 22.0587 11.5427 22.0698 11.5523C23.7021 12.9567 24.7343 15.0273 24.7343 17.3369C24.7343 20.0244 23.3364 22.3881 21.2222 23.7548H21.2215Z" fill="#FBC847"/>
<path d="M32.6629 10.7819C31.8063 8.7763 30.5812 6.97615 29.0208 5.43072C27.4604 3.88529 25.6428 2.67196 23.6178 1.82358C21.5201 0.945758 19.2933 0.5 17 0.5C14.7067 0.5 12.4798 0.945758 10.3822 1.82426C8.35723 2.67264 6.53963 3.88598 4.97922 5.43141C3.4188 6.97684 2.1937 8.77699 1.3371 10.7826C0.450079 12.86 0 15.0648 0 17.3368C0 21.0206 1.34747 23.867 2.73712 26.4649C6.85282 35.0027 14.3604 44.9327 14.6784 45.3517C15.2266 46.0748 16.0867 46.5 17 46.5C17.9133 46.5 18.7727 46.0748 19.3216 45.3517C19.6403 44.932 27.1631 34.9808 31.276 26.4375C32.9657 23.1179 34 20.8953 34 17.3368C34 15.0648 33.5499 12.86 32.6629 10.7826V10.7819ZM30.9822 19.0993C30.9497 19.3348 30.9096 19.5649 30.8633 19.7922C30.8322 19.9435 30.7976 20.0935 30.7603 20.2428C30.7229 20.392 30.6821 20.5406 30.6379 20.6892C30.2431 22.0265 29.5898 23.3603 28.6682 25.1714C28.4767 25.5692 28.2776 25.9712 28.0708 26.3759C27.9727 26.5683 27.8724 26.7614 27.7715 26.9545C27.6982 27.0941 27.6242 27.2345 27.5496 27.3749C27.4825 27.5009 27.4147 27.6269 27.347 27.7528C27.2689 27.898 27.19 28.0425 27.1105 28.1876C27.0027 28.3842 26.8948 28.58 26.7849 28.7765C26.7095 28.9114 26.6335 29.0463 26.5574 29.1812C26.3286 29.5852 26.0956 29.9892 25.8599 30.3918C25.732 30.6102 25.6027 30.828 25.4727 31.0457C25.3635 31.2285 25.2542 31.4113 25.1443 31.5935C25.0641 31.7263 24.9839 31.8585 24.903 31.9906C24.4197 32.7829 23.9309 33.5621 23.4463 34.3194C23.3654 34.4454 23.2845 34.5714 23.2043 34.696C19.9826 39.6924 16.9993 43.6241 16.9993 43.6241C16.9993 43.6241 13.8653 39.4939 10.5523 34.3194C10.3097 33.9407 10.0663 33.5566 9.82362 33.1684C9.49937 32.65 9.17581 32.1241 8.85502 31.5935C8.74509 31.4113 8.63585 31.2292 8.52662 31.0457C8.39733 30.8286 8.26805 30.6102 8.13945 30.3918C8.0157 30.1809 7.89333 29.97 7.77165 29.7584C7.66103 29.566 7.55041 29.3736 7.44186 29.1812C7.36581 29.0463 7.28976 28.9114 7.2144 28.7765C7.10448 28.58 6.99593 28.3835 6.88877 28.1876C6.80926 28.0425 6.73045 27.8973 6.65232 27.7528C6.58388 27.6269 6.51682 27.5009 6.44975 27.3749C6.37509 27.2345 6.30111 27.0948 6.22783 26.9545C6.12689 26.7614 6.02664 26.5683 5.92846 26.3759C5.72175 25.9712 5.52263 25.5692 5.33112 25.1714C5.01793 24.5867 4.7248 24.0211 4.45931 23.4651C4.26919 23.0679 4.09358 22.6749 3.93318 22.2826C3.86888 22.1258 3.80735 21.9689 3.74859 21.8115C3.21831 20.3982 2.90374 18.9692 2.90374 17.3361C2.90374 9.62605 9.21453 3.37517 17 3.37517C21.8658 3.37517 26.1558 5.81691 28.6889 9.53019C28.8791 9.80887 29.0588 10.0944 29.2289 10.3868C29.6817 11.1667 30.0606 11.9932 30.3558 12.858C30.8363 14.2637 31.0963 15.7694 31.0963 17.3354C31.0963 17.9708 31.0582 18.5487 30.9822 19.0986V19.0993Z" fill="#1C1818"/>
<path d="M24.7336 17.3369C24.7336 15.0273 23.7014 12.9567 22.0691 11.5523C22.058 11.5427 22.0463 11.5332 22.0352 11.5236C21.9612 11.4606 21.8859 11.3989 21.8098 11.3387C21.7919 11.3243 21.7739 11.3099 21.7552 11.2962C21.5831 11.1634 21.4047 11.0374 21.2215 10.9189C21.1841 10.895 21.1468 10.871 21.1088 10.8477C20.994 10.7765 20.8772 10.7074 20.7583 10.6423C19.9722 10.2082 19.1018 9.90624 18.1774 9.76655C17.7937 9.70835 17.4003 9.67822 16.9993 9.67822C16.5983 9.67822 16.2215 9.70767 15.8454 9.76313C15.8281 9.76587 15.8115 9.76792 15.7943 9.77066C14.8443 9.91788 13.9518 10.2363 13.1498 10.693C13.0751 10.7354 13.0011 10.7799 12.9285 10.8245C12.8642 10.8642 12.8006 10.9046 12.737 10.9457C12.5732 11.0532 12.4135 11.1661 12.2593 11.2853C12.1445 11.3736 12.0325 11.4647 11.9226 11.5592C10.2944 12.9635 9.26569 15.0314 9.26569 17.3369C9.26569 20.0073 10.6457 22.3573 12.737 23.7288C12.7999 23.7699 12.8636 23.811 12.9285 23.85C13.0018 23.8952 13.0751 23.939 13.1498 23.9815C13.239 24.0322 13.3295 24.0808 13.4215 24.1287C13.4588 24.1479 13.4968 24.1671 13.5342 24.1862C14.2338 24.5341 14.9937 24.7799 15.7943 24.9038C15.8108 24.9066 15.8281 24.9093 15.8454 24.9114C16.2001 24.9641 16.5624 24.9922 16.9309 24.9956C16.9537 24.9956 16.9765 24.9963 16.9993 24.9963C17.3996 24.9963 17.793 24.9661 18.1774 24.9079C18.978 24.7867 19.7371 24.5437 20.4368 24.1992C20.4942 24.1712 20.5509 24.1424 20.6075 24.1123C20.658 24.0856 20.7078 24.0589 20.7576 24.0315C20.8765 23.9658 20.9933 23.8973 21.1081 23.8261C21.1461 23.8028 21.1835 23.7788 21.2208 23.7549C23.335 22.3881 24.7329 20.0238 24.7329 17.3369H24.7336ZM12.1694 17.3369C12.1694 14.6993 14.3362 12.5534 16.9993 12.5534C19.6624 12.5534 21.8292 14.6993 21.8292 17.3369C21.8292 19.9745 19.6624 22.1204 16.9993 22.1204C14.3362 22.1204 12.1694 19.9745 12.1694 17.3369Z" fill="#1C1818"/>
</g>
<defs>
<clipPath id="clip0_198_1806">
<rect width="34" height="46" fill="white" transform="translate(0 0.5)"/>
</clipPath>
</defs>
</svg>
