<svg width="126" height="174" viewBox="0 0 126 174" fill="none" xmlns="http://www.w3.org/2000/svg">
<g clip-path="url(#clip0_148_3907)">
<path d="M64.6631 24.1585C65.6873 21.2167 68.078 15.7834 72.1902 14.4575C73.6657 13.9816 78.1758 13.124 79.8592 12.8466C80.1609 12.7982 81.0533 12.6506 82.2245 12.3351C85.7079 11.3986 86.902 10.2992 88.6361 9.75968C91.1916 8.96568 95.2327 9.29397 101.705 14.4041C97.7324 8.70101 91.3031 5.25781 84.6659 5.25781C83.5454 5.25781 82.4223 5.35452 81.3017 5.55811C76.4417 6.43099 72.0457 9.18963 68.9248 13.325C66.5366 16.4883 65.0764 20.2369 64.6606 24.156L64.6631 24.1585Z" fill="#8ABB3E"/>
<path d="M88.6361 9.75943C86.902 10.2989 85.7079 11.3958 82.2245 12.3348C81.0533 12.6504 80.1583 12.7955 79.8592 12.8464C78.1758 13.1237 73.6682 13.9788 72.1902 14.4573C68.078 15.7857 65.6873 21.2164 64.6631 24.1583C64.6175 24.5782 64.5871 25.0006 64.5668 25.4256C66.1386 23.9598 67.8321 22.6034 69.6245 21.3793C73.6403 18.6334 78.0364 16.6204 82.6961 15.3912C90.3118 13.3833 97.0885 13.8618 102.027 14.8772C101.923 14.7194 101.817 14.5616 101.708 14.4064C95.2378 9.29627 91.1941 8.96798 88.6386 9.76198L88.6361 9.75943Z" fill="#709E0B"/>
<path d="M105.333 16.0808C100.681 6.82002 90.6338 1.57251 80.9037 3.32337C75.4809 4.29806 70.5879 7.36208 67.1223 11.9556C65.7989 13.7115 64.7316 15.6278 63.9406 17.651C63.0964 15.3733 61.8896 12.9735 60.1733 10.5966C55.4958 4.11483 49.3656 1.19078 46.1282 0.0252298C45.9203 -0.0485713 45.6896 0.0379541 45.5806 0.228819L42.6144 5.50432C42.5409 5.63411 42.5358 5.79444 42.6017 5.92677C42.6676 6.06165 42.7944 6.15581 42.944 6.17617C45.4513 6.54263 51.7868 8.02628 56.4642 13.8998C60.3887 18.8267 61.0276 24.1633 61.0606 26.9066C61.0631 27.156 61.2659 27.3545 61.5118 27.3545H61.5169C61.7679 27.352 61.9682 27.1459 61.9631 26.8939C61.9631 26.8685 61.9631 26.8405 61.9631 26.8125L62.2775 26.7514C62.2825 27.2298 62.3003 27.7083 62.3358 28.1892C62.3687 28.6397 62.6603 29.0265 63.0837 29.1792C63.2079 29.225 63.3372 29.2454 63.464 29.2454C63.7707 29.2454 64.0699 29.1207 64.2854 28.8891C66.2603 26.7947 68.4837 24.8962 70.8947 23.2471C74.6949 20.6488 78.8578 18.7402 83.2665 17.5797C91.8355 15.3199 99.284 16.3887 104.022 17.6815C104.453 17.7986 104.912 17.651 105.196 17.3049C105.477 16.9562 105.531 16.4752 105.33 16.0757L105.333 16.0808ZM81.3017 5.55777C82.4223 5.35672 83.5454 5.25747 84.6659 5.25747C91.3006 5.25747 97.7299 8.70067 101.705 14.4037C101.814 14.559 101.921 14.7167 102.025 14.8745C97.0859 13.8591 90.3093 13.3781 82.6935 15.3886C78.0364 16.6177 73.6378 18.6307 69.622 21.3766C67.8296 22.6007 66.1361 23.9571 64.5642 25.423C64.5845 24.998 64.6175 24.5755 64.6606 24.1556C65.0764 20.2365 66.5366 16.488 68.9248 13.3247C72.0456 9.18929 76.4392 6.43065 81.3017 5.55777Z" fill="#1C1818"/>
<path d="M105.718 68.3882H92.0916L82.2042 78.3132H97.3369C97.6462 78.3132 97.9302 78.5473 98.0671 78.9163C98.6856 80.5654 99.3042 82.2144 99.9228 83.8635C100.194 84.5888 99.7986 85.4413 99.1927 85.4413H26.967C26.3738 85.4413 25.9783 84.6244 26.2217 83.9042C26.7769 82.2551 27.3347 80.6061 27.8899 78.957C28.0217 78.5651 28.3132 78.3157 28.6352 78.3157H43.9555L34.0682 68.3907H20.2817C14.6206 76.8728 8.9569 85.3573 3.29578 93.8394C43.0986 93.7554 82.9014 93.6689 122.704 93.5849C117.043 85.1868 111.379 76.7888 105.718 68.3907V68.3882Z" fill="white"/>
<path d="M31.9665 116.232C23.6586 117.046 16.991 117.664 13.1831 118.013V166.546C13.1831 167.289 13.784 167.892 14.5242 167.892H111.476C112.216 167.892 112.817 167.289 112.817 166.546V117.25C103.84 114.636 96.4344 113.488 91.5541 112.923C76.6572 111.195 67.1628 112.781 31.9665 116.232Z" fill="#627CEF"/>
<path d="M125.99 93.8368C126.046 93.1039 125.858 92.3583 125.435 91.7271L116.942 79.1301L108.449 66.533C107.835 65.6245 106.814 65.0799 105.718 65.0799H95.3873L97.2127 63.2476C103.231 57.2061 106.395 50.1848 106.357 42.9446C106.339 39.672 105.67 36.4781 104.365 33.4498C103.11 30.5359 101.325 27.9096 99.0634 25.6396C96.802 23.3696 94.1856 21.5805 91.2828 20.3183C88.2659 19.0077 85.0817 18.3333 81.8239 18.3155C81.7808 18.3155 81.7377 18.3155 81.6946 18.3155C75.1132 18.3155 68.7169 20.9901 63.0837 26.0773C57.4099 20.9545 50.9704 18.2773 44.3383 18.3104C41.078 18.3282 37.8963 19 34.8794 20.3132C31.9766 21.5729 29.3603 23.3645 27.0989 25.6345C24.8375 27.9045 23.0552 30.5333 21.7977 33.4447C20.4921 36.4731 19.8203 39.6694 19.8025 42.9396C19.7645 50.1517 22.9006 57.1424 28.8685 63.1661C28.8938 63.1941 28.9192 63.2221 28.947 63.2501L30.7724 65.0824H20.2817C19.1814 65.0824 18.1546 65.6321 17.5437 66.5483L9.0507 79.2726L0.557746 91.9944C0.18507 92.5517 0 93.1981 0 93.8445V101.029C0 102.678 1.33099 104.014 2.9738 104.014H7.09859V166.544C7.09859 170.654 10.4299 173.998 14.5242 173.998H111.476C115.57 173.998 118.901 170.654 118.901 166.544V104.014H124.043C125.123 104.014 126 103.133 126 102.049V93.8445C126 93.8445 125.995 93.8343 125.99 93.8343V93.8368ZM24.0034 42.9574C24.0186 40.2573 24.5713 37.6182 25.6513 35.1141C26.6958 32.6914 28.1814 30.5028 30.0676 28.612C31.9538 26.7186 34.1315 25.2273 36.5451 24.1788C39.0397 23.0947 41.6687 22.5374 44.3586 22.5247C44.3941 22.5247 44.427 22.5247 44.4625 22.5247C46.047 22.5247 47.6214 22.7155 49.1806 23.0896C53.5513 24.1381 57.7749 26.6346 61.593 30.4672L61.598 30.4723C62.4194 31.2968 63.7479 31.2968 64.5693 30.4723C69.7766 25.2451 75.7369 22.4992 81.8011 22.5323C84.491 22.5476 87.1175 23.1023 89.6121 24.1865C92.0256 25.2349 94.2059 26.7262 96.0896 28.6196C97.9758 30.513 99.4614 32.699 100.506 35.1217C101.586 37.6259 102.141 40.2649 102.154 42.9625C102.184 49.0523 99.4487 55.0328 94.2414 60.2624L72.2053 82.3824H53.9569L31.9944 60.3362C31.9715 60.3108 31.9487 60.2854 31.9234 60.2624C31.9234 60.2624 31.9183 60.2574 31.9158 60.2548C26.7084 55.0277 23.9704 49.0447 24.0034 42.9548V42.9574ZM3.29577 93.8368C8.9569 85.3548 14.6206 76.8702 20.2817 68.3882H34.0682L43.9555 78.3132H28.6352C28.3132 78.3132 28.0217 78.5651 27.8899 78.9545C27.3346 80.6035 26.7769 82.2526 26.2217 83.9017C25.9783 84.6219 26.3738 85.4388 26.967 85.4388H99.1901C99.7986 85.4388 100.192 84.5863 99.9203 83.861C99.3017 82.2119 98.6831 80.5628 98.0645 78.9138C97.9251 78.5448 97.6437 78.3106 97.3344 78.3106H82.2017L92.089 68.3857H105.716C111.377 76.7837 117.041 85.1818 122.702 93.5798C82.8989 93.6638 43.0961 93.7503 3.29324 93.8343L3.29577 93.8368ZM112.817 117.25V166.546C112.817 167.289 112.216 167.892 111.476 167.892H14.5242C13.7839 167.892 13.1831 167.289 13.1831 166.546V118.013C13.1831 118.013 13.178 118.013 13.173 118.013V104.016H112.817V117.25Z" fill="#1C1818"/>
<path d="M13.173 118.013C13.173 118.013 13.178 118.013 13.1831 118.013C16.9885 117.664 23.6561 117.048 31.9665 116.231C67.1628 112.781 76.6572 111.195 91.5541 112.923C96.4344 113.488 103.84 114.636 112.817 117.249V104.016H13.173V118.013Z" fill="#4F6FE0"/>
<path d="M38.0916 43.0542C39.0651 47.7214 42.6499 48.0294 49.0488 56.6895C54.6592 64.2783 57.3414 71.3963 59.0299 75.9745C59.8437 78.1835 60.5307 80.3262 61.1138 82.385H72.2079L94.244 60.2651C99.4513 55.0379 102.189 49.055 102.156 42.9651C102.141 40.265 101.588 37.626 100.508 35.1244C99.464 32.7017 97.9783 30.5131 96.0921 28.6222C94.2059 26.7289 92.0282 25.2376 89.6147 24.1891C87.12 23.105 84.491 22.5476 81.8037 22.5349C75.7395 22.5044 69.7792 25.2477 64.5719 30.4749C63.7504 31.2994 62.422 31.2994 61.6006 30.4749L61.5955 30.4698C57.7775 26.6372 53.5538 24.1407 49.1831 23.0922C38.7026 32.5617 37.2245 38.8933 38.0941 43.0567L38.0916 43.0542ZM96.1657 38.6439C96.9566 38.4734 97.735 38.9773 97.9073 39.7713C98.0772 40.5653 97.5752 41.3466 96.7842 41.5196C95.9933 41.6901 95.215 41.1862 95.0426 40.3922C94.8727 39.5982 95.3747 38.817 96.1657 38.6439ZM87.9566 28.2939C88.0935 28.21 88.7045 27.8613 89.7896 28.0242C92.7659 28.4772 94.8245 32.213 95.8589 35.0251C95.9045 35.1524 95.9299 35.2771 95.9299 35.2771C95.9451 35.3534 95.9578 35.4348 95.9603 35.5163C96.0059 36.3637 95.3569 37.0865 94.5127 37.1323C93.993 37.1603 93.6051 36.8956 93.5265 36.8371C93.2324 36.6157 93.1234 36.3535 92.9535 35.9973C92.5809 35.2211 92.0738 34.1802 91.2321 33.46C91.0242 33.2819 90.8392 33.1699 90.7403 33.1088C89.6451 32.4497 88.9733 32.7704 88.1721 32.3785C87.5409 32.0705 86.9071 31.3529 86.8259 30.4724C86.7448 29.5664 87.2721 28.7113 87.9566 28.2939Z" fill="#F63948"/>
<path d="M31.9234 60.2648C31.9487 60.2902 31.9715 60.3131 31.9944 60.3386L53.9569 82.3847H61.1113C60.5282 80.3234 59.8437 78.1831 59.0273 75.9742C57.3389 71.396 54.6566 64.2805 49.0462 56.6892C42.6473 48.0316 39.0651 47.7211 38.089 43.0538C37.2194 38.8904 38.7 32.5588 49.178 23.0894C47.6214 22.7153 46.0445 22.5244 44.46 22.5244C44.4245 22.5244 44.3915 22.5244 44.3561 22.5244C41.6662 22.5397 39.0372 23.0945 36.5425 24.1786C34.129 25.2271 31.9487 26.7183 30.0651 28.6117C28.1789 30.5051 26.6932 32.6911 25.6487 35.1139C24.5687 37.618 24.0135 40.257 24.0008 42.9571C23.9679 49.047 26.7059 55.0274 31.9132 60.2571C31.9132 60.2571 31.9183 60.2622 31.9208 60.2648H31.9234Z" fill="#DD283E"/>
<path d="M95.0425 40.3923C95.2124 41.1863 95.9933 41.6902 96.7842 41.5197C97.5752 41.3492 98.0772 40.5654 97.9073 39.7714C97.7375 38.9774 96.9566 38.4735 96.1656 38.644C95.3747 38.8145 94.8727 39.5983 95.0425 40.3923Z" fill="white"/>
<path d="M88.1721 32.3785C88.9733 32.7704 89.6451 32.4497 90.7403 33.1088C90.8366 33.1674 91.0217 33.2793 91.2321 33.46C92.0764 34.1828 92.5834 35.2211 92.9535 35.9973C93.1234 36.3535 93.2324 36.6157 93.5265 36.8371C93.6051 36.8956 93.993 37.1603 94.5127 37.1323C95.3569 37.0865 96.0059 36.3637 95.9603 35.5163C95.9552 35.4348 95.9451 35.3559 95.9299 35.2771C95.9299 35.2771 95.9045 35.1498 95.8589 35.0251C94.8271 32.213 92.7659 28.4746 89.7896 28.0242C88.7045 27.8588 88.0935 28.21 87.9566 28.294C87.2721 28.7113 86.7448 29.5664 86.8259 30.4724C86.9045 31.3554 87.5409 32.0705 88.1721 32.3785Z" fill="white"/>
</g>
<defs>
<clipPath id="clip0_148_3907">
<rect width="126" height="174" fill="white"/>
</clipPath>
</defs>
</svg>
