<svg width="126" height="174" viewBox="0 0 126 174" fill="none" xmlns="http://www.w3.org/2000/svg">
<g clip-path="url(#clip0_148_3907)">
<path d="M64.6631 24.1583C65.6873 21.2164 68.078 15.7831 72.1902 14.4573C73.6657 13.9814 78.1758 13.1237 79.8592 12.8464C80.1609 12.798 81.0533 12.6504 82.2245 12.3348C85.7079 11.3983 86.902 10.2989 88.6361 9.75943C91.1916 8.96544 95.2327 9.29372 101.705 14.4038C97.7324 8.70077 91.3031 5.25757 84.6659 5.25757C83.5454 5.25757 82.4223 5.35427 81.3017 5.55786C76.4417 6.43075 72.0457 9.18938 68.9248 13.3248C66.5366 16.4881 65.0764 20.2366 64.6606 24.1557L64.6631 24.1583Z" fill="#8ABB3E"/>
<path d="M88.6361 9.75943C86.902 10.2989 85.7079 11.3958 82.2245 12.3348C81.0533 12.6504 80.1583 12.7955 79.8592 12.8464C78.1758 13.1237 73.6682 13.9788 72.1902 14.4573C68.078 15.7857 65.6873 21.2164 64.6631 24.1583C64.6175 24.5782 64.5871 25.0006 64.5668 25.4256C66.1386 23.9598 67.8321 22.6034 69.6245 21.3793C73.6403 18.6334 78.0364 16.6204 82.6961 15.3912C90.3118 13.3833 97.0885 13.8618 102.027 14.8772C101.923 14.7194 101.817 14.5616 101.708 14.4064C95.2378 9.29627 91.1941 8.96798 88.6386 9.76198L88.6361 9.75943Z" fill="#709E0B"/>
<path d="M105.333 16.081C100.681 6.82026 90.6338 1.57275 80.9037 3.32362C75.4809 4.2983 70.5879 7.36232 67.1223 11.9558C65.7989 13.7118 64.7316 15.628 63.9406 17.6512C63.0964 15.3736 61.8896 12.9737 60.1733 10.5968C55.4958 4.11507 49.3656 1.19102 46.1282 0.0254739C45.9203 -0.0483271 45.6896 0.0381982 45.5806 0.229063L42.6144 5.50457C42.5409 5.63436 42.5358 5.79468 42.6017 5.92702C42.6676 6.06189 42.7944 6.15605 42.944 6.17641C45.4513 6.54287 51.7868 8.02653 56.4642 13.9001C60.3887 18.8269 61.0276 24.1635 61.0606 26.9069C61.0631 27.1563 61.2659 27.3548 61.5118 27.3548H61.5169C61.7679 27.3522 61.9682 27.1461 61.9631 26.8942C61.9631 26.8687 61.9631 26.8407 61.9631 26.8127L62.2775 26.7516C62.2825 27.2301 62.3003 27.7085 62.3358 28.1895C62.3687 28.6399 62.6603 29.0268 63.0837 29.1794C63.2079 29.2253 63.3372 29.2456 63.464 29.2456C63.7707 29.2456 64.0699 29.1209 64.2854 28.8893C66.2603 26.7949 68.4837 24.8964 70.8947 23.2474C74.6949 20.6491 78.8578 18.7404 83.2665 17.58C91.8355 15.3201 99.284 16.389 104.022 17.6817C104.453 17.7988 104.912 17.6512 105.196 17.3051C105.477 16.9565 105.531 16.4755 105.33 16.0759L105.333 16.081ZM81.3017 5.55801C82.4223 5.35697 83.5454 5.25772 84.6659 5.25772C91.3006 5.25772 97.7299 8.70092 101.705 14.404C101.814 14.5592 101.921 14.717 102.025 14.8748C97.0859 13.8594 90.3093 13.3784 82.6935 15.3888C78.0364 16.618 73.6378 18.631 69.622 21.3769C67.8296 22.601 66.1361 23.9574 64.5642 25.4232C64.5845 24.9982 64.6175 24.5758 64.6606 24.1559C65.0764 20.2368 66.5366 16.4882 68.9248 13.3249C72.0456 9.18953 76.4392 6.4309 81.3017 5.55801Z" fill="#1C1818"/>
<path d="M105.718 68.3882H92.0916L82.2042 78.3132H97.3369C97.6462 78.3132 97.9302 78.5473 98.0671 78.9163C98.6856 80.5654 99.3042 82.2144 99.9228 83.8635C100.194 84.5888 99.7986 85.4413 99.1927 85.4413H26.967C26.3738 85.4413 25.9783 84.6244 26.2217 83.9042C26.7769 82.2551 27.3347 80.6061 27.8899 78.957C28.0217 78.5651 28.3132 78.3157 28.6352 78.3157H43.9555L34.0682 68.3907H20.2817C14.6206 76.8728 8.9569 85.3573 3.29578 93.8394C43.0986 93.7554 82.9014 93.6689 122.704 93.5849C117.043 85.1868 111.379 76.7888 105.718 68.3907V68.3882Z" fill="white"/>
<path d="M31.9665 116.232C23.6586 117.046 16.991 117.664 13.1831 118.013V166.546C13.1831 167.289 13.784 167.892 14.5242 167.892H111.476C112.216 167.892 112.817 167.289 112.817 166.546V117.25C103.84 114.636 96.4344 113.488 91.5541 112.923C76.6572 111.195 67.1628 112.781 31.9665 116.232Z" fill="#627CEF"/>
<path d="M125.99 93.8368C126.046 93.1039 125.858 92.3583 125.435 91.7271L116.942 79.1301L108.449 66.533C107.835 65.6245 106.814 65.0799 105.718 65.0799H95.3873L97.2127 63.2476C103.231 57.2061 106.395 50.1848 106.357 42.9446C106.339 39.672 105.67 36.4781 104.365 33.4498C103.11 30.5359 101.325 27.9096 99.0634 25.6396C96.802 23.3696 94.1856 21.5805 91.2828 20.3183C88.2659 19.0077 85.0817 18.3333 81.8239 18.3155C81.7808 18.3155 81.7377 18.3155 81.6946 18.3155C75.1132 18.3155 68.7169 20.9901 63.0837 26.0773C57.4099 20.9545 50.9704 18.2773 44.3383 18.3104C41.078 18.3282 37.8963 19 34.8794 20.3132C31.9766 21.5729 29.3603 23.3645 27.0989 25.6345C24.8375 27.9045 23.0552 30.5333 21.7977 33.4447C20.4921 36.4731 19.8203 39.6694 19.8025 42.9396C19.7645 50.1517 22.9006 57.1424 28.8685 63.1661C28.8938 63.1941 28.9192 63.2221 28.947 63.2501L30.7724 65.0824H20.2817C19.1814 65.0824 18.1546 65.6321 17.5437 66.5483L9.0507 79.2726L0.557746 91.9944C0.18507 92.5517 0 93.1981 0 93.8445V101.029C0 102.678 1.33099 104.014 2.9738 104.014H7.09859V166.544C7.09859 170.654 10.4299 173.998 14.5242 173.998H111.476C115.57 173.998 118.901 170.654 118.901 166.544V104.014H124.043C125.123 104.014 126 103.133 126 102.049V93.8445C126 93.8445 125.995 93.8343 125.99 93.8343V93.8368ZM24.0034 42.9574C24.0186 40.2573 24.5713 37.6182 25.6513 35.1141C26.6958 32.6914 28.1814 30.5028 30.0676 28.612C31.9538 26.7186 34.1315 25.2273 36.5451 24.1788C39.0397 23.0947 41.6687 22.5374 44.3586 22.5247C44.3941 22.5247 44.427 22.5247 44.4625 22.5247C46.047 22.5247 47.6214 22.7155 49.1806 23.0896C53.5513 24.1381 57.7749 26.6346 61.593 30.4672L61.598 30.4723C62.4194 31.2968 63.7479 31.2968 64.5693 30.4723C69.7766 25.2451 75.7369 22.4992 81.8011 22.5323C84.491 22.5476 87.1175 23.1023 89.6121 24.1865C92.0256 25.2349 94.2059 26.7262 96.0896 28.6196C97.9758 30.513 99.4614 32.699 100.506 35.1217C101.586 37.6259 102.141 40.2649 102.154 42.9625C102.184 49.0523 99.4487 55.0328 94.2414 60.2624L72.2053 82.3824H53.9569L31.9944 60.3362C31.9715 60.3108 31.9487 60.2854 31.9234 60.2624C31.9234 60.2624 31.9183 60.2574 31.9158 60.2548C26.7084 55.0277 23.9704 49.0447 24.0034 42.9548V42.9574ZM3.29577 93.8368C8.9569 85.3548 14.6206 76.8702 20.2817 68.3882H34.0682L43.9555 78.3132H28.6352C28.3132 78.3132 28.0217 78.5651 27.8899 78.9545C27.3346 80.6035 26.7769 82.2526 26.2217 83.9017C25.9783 84.6219 26.3738 85.4388 26.967 85.4388H99.1901C99.7986 85.4388 100.192 84.5863 99.9203 83.861C99.3017 82.2119 98.6831 80.5628 98.0645 78.9138C97.9251 78.5448 97.6437 78.3106 97.3344 78.3106H82.2017L92.089 68.3857H105.716C111.377 76.7837 117.041 85.1818 122.702 93.5798C82.8989 93.6638 43.0961 93.7503 3.29324 93.8343L3.29577 93.8368ZM112.817 117.25V166.546C112.817 167.289 112.216 167.892 111.476 167.892H14.5242C13.7839 167.892 13.1831 167.289 13.1831 166.546V118.013C13.1831 118.013 13.178 118.013 13.173 118.013V104.016H112.817V117.25Z" fill="#1C1818"/>
<path d="M13.173 118.013C13.173 118.013 13.178 118.013 13.1831 118.013C16.9885 117.664 23.6561 117.048 31.9665 116.231C67.1628 112.781 76.6572 111.195 91.5541 112.923C96.4344 113.488 103.84 114.636 112.817 117.249V104.016H13.173V118.013Z" fill="#4F6FE0"/>
<path d="M38.0916 43.0539C39.0651 47.7212 42.6499 48.0291 49.0488 56.6893C54.6592 64.2781 57.3414 71.3961 59.0299 75.9743C59.8437 78.1832 60.5307 80.326 61.1138 82.3848H72.2079L94.244 60.2648C99.4513 55.0377 102.189 49.0547 102.156 42.9648C102.141 40.2647 101.588 37.6257 100.508 35.1241C99.464 32.7014 97.9783 30.5128 96.0921 28.622C94.2059 26.7286 92.0282 25.2373 89.6147 24.1888C87.12 23.1047 84.491 22.5474 81.8037 22.5347C75.7395 22.5041 69.7792 25.2475 64.5719 30.4747C63.7504 31.2992 62.422 31.2992 61.6006 30.4747L61.5955 30.4696C57.7775 26.637 53.5538 24.1405 49.1831 23.092C38.7026 32.5614 37.2245 38.8931 38.0941 43.0565L38.0916 43.0539ZM96.1657 38.6437C96.9566 38.4732 97.735 38.977 97.9073 39.771C98.0772 40.565 97.5752 41.3463 96.7842 41.5194C95.9933 41.6899 95.215 41.186 95.0426 40.392C94.8727 39.598 95.3747 38.8167 96.1657 38.6437ZM87.9566 28.2937C88.0935 28.2097 88.7045 27.8611 89.7896 28.0239C92.7659 28.4769 94.8245 32.2128 95.8589 35.0249C95.9045 35.1521 95.9299 35.2768 95.9299 35.2768C95.9451 35.3532 95.9578 35.4346 95.9603 35.516C96.0059 36.3635 95.3569 37.0862 94.5127 37.132C93.993 37.16 93.6051 36.8953 93.5265 36.8368C93.2324 36.6154 93.1234 36.3533 92.9535 35.997C92.5809 35.2208 92.0738 34.18 91.2321 33.4598C91.0242 33.2816 90.8392 33.1697 90.7403 33.1086C89.6451 32.4495 88.9733 32.7701 88.1721 32.3782C87.5409 32.0703 86.9071 31.3526 86.8259 30.4721C86.7448 29.5661 87.2721 28.7111 87.9566 28.2937Z" fill="#F63948"/>
<path d="M31.9234 60.265C31.9487 60.2904 31.9715 60.3134 31.9944 60.3388L53.9569 82.385H61.1113C60.5282 80.3236 59.8437 78.1834 59.0273 75.9744C57.3389 71.3962 54.6566 64.2808 49.0462 56.6895C42.6473 48.0318 39.0651 47.7214 38.089 43.0541C37.2194 38.8907 38.7 32.5591 49.178 23.0896C47.6214 22.7155 46.0445 22.5247 44.46 22.5247C44.4245 22.5247 44.3915 22.5247 44.3561 22.5247C41.6662 22.5399 39.0372 23.0947 36.5425 24.1788C34.129 25.2273 31.9487 26.7186 30.0651 28.612C28.1789 30.5054 26.6932 32.6914 25.6487 35.1141C24.5687 37.6182 24.0135 40.2573 24.0008 42.9574C23.9679 49.0472 26.7059 55.0277 31.9132 60.2574C31.9132 60.2574 31.9183 60.2625 31.9208 60.265H31.9234Z" fill="#DD283E"/>
<path d="M95.0425 40.3921C95.2124 41.1861 95.9933 41.6899 96.7842 41.5194C97.5752 41.3489 98.0772 40.5651 97.9073 39.7711C97.7375 38.9771 96.9566 38.4732 96.1656 38.6437C95.3747 38.8143 94.8727 39.5981 95.0425 40.3921Z" fill="white"/>
<path d="M88.1721 32.3782C88.9733 32.7701 89.6451 32.4495 90.7403 33.1086C90.8366 33.1671 91.0217 33.2791 91.2321 33.4598C92.0764 34.1825 92.5834 35.2208 92.9535 35.997C93.1234 36.3533 93.2324 36.6154 93.5265 36.8368C93.6051 36.8953 93.993 37.16 94.5127 37.132C95.3569 37.0862 96.0059 36.3635 95.9603 35.516C95.9552 35.4346 95.9451 35.3557 95.9299 35.2768C95.9299 35.2768 95.9045 35.1496 95.8589 35.0249C94.8271 32.2128 92.7659 28.4744 89.7896 28.024C88.7045 27.8585 88.0935 28.2097 87.9566 28.2937C87.2721 28.7111 86.7448 29.5661 86.8259 30.4721C86.9045 31.3552 87.5409 32.0703 88.1721 32.3782Z" fill="white"/>
</g>
<defs>
<clipPath id="clip0_148_3907">
<rect width="126" height="174" fill="white"/>
</clipPath>
</defs>
</svg>
