<svg width="126" height="174" viewBox="0 0 126 174" fill="none" xmlns="http://www.w3.org/2000/svg">
<g clip-path="url(#clip0_148_3907)">
<path d="M64.6631 24.1584C65.6873 21.2165 68.078 15.7832 72.1901 14.4574C73.6656 13.9815 78.1757 13.1239 79.8591 12.8465C80.1608 12.7981 81.0532 12.6505 82.2245 12.335C85.7078 11.3984 86.9019 10.2991 88.636 9.75955C91.1915 8.96556 95.2326 9.29384 101.705 14.4039C97.7324 8.70089 91.3031 5.25769 84.6659 5.25769C83.5453 5.25769 82.4222 5.3544 81.3017 5.55798C76.4416 6.43087 72.0456 9.18951 68.9247 13.3249C66.5366 16.4882 65.0763 20.2368 64.6605 24.1558L64.6631 24.1584Z" fill="#8ABB3E"/>
<path d="M88.6361 9.75955C86.902 10.2991 85.7079 11.3959 82.2245 12.335C81.0533 12.6505 80.1583 12.7956 79.8592 12.8465C78.1758 13.1239 73.6682 13.9789 72.1902 14.4574C68.078 15.7858 65.6873 21.2165 64.6631 24.1584C64.6175 24.5783 64.5871 25.0007 64.5668 25.4257C66.1386 23.9599 67.8321 22.6035 69.6245 21.3794C73.6403 18.6335 78.0364 16.6205 82.6961 15.3913C90.3118 13.3834 97.0885 13.8619 102.027 14.8773C101.923 14.7195 101.817 14.5617 101.708 14.4065C95.2378 9.29639 91.1941 8.9681 88.6386 9.7621L88.6361 9.75955Z" fill="#709E0B"/>
<path d="M105.333 16.081C100.681 6.82023 90.6338 1.57272 80.9037 3.32359C75.4809 4.29827 70.5879 7.36229 67.1223 11.9558C65.7989 13.7117 64.7316 15.628 63.9406 17.6512C63.0964 15.3735 61.8896 12.9737 60.1733 10.5968C55.4958 4.11504 49.3656 1.19099 46.1282 0.0254434C45.9203 -0.0483577 45.6896 0.0381677 45.5806 0.229033L42.6144 5.50454C42.5409 5.63433 42.5358 5.79465 42.6017 5.92698C42.6676 6.06186 42.7944 6.15602 42.944 6.17638C45.4513 6.54284 51.7868 8.0265 56.4642 13.9C60.3887 18.8269 61.0276 24.1635 61.0606 26.9068C61.0631 27.1562 61.2659 27.3547 61.5118 27.3547H61.5169C61.7679 27.3522 61.9682 27.1461 61.9631 26.8941C61.9631 26.8687 61.9631 26.8407 61.9631 26.8127L62.2775 26.7516C62.2825 27.23 62.3003 27.7085 62.3358 28.1895C62.3687 28.6399 62.6603 29.0267 63.0837 29.1794C63.2079 29.2252 63.3372 29.2456 63.464 29.2456C63.7707 29.2456 64.0699 29.1209 64.2854 28.8893C66.2603 26.7949 68.4837 24.8964 70.8947 23.2473C74.6949 20.649 78.8578 18.7404 83.2665 17.5799C91.8355 15.3201 99.284 16.3889 104.022 17.6817C104.453 17.7988 104.912 17.6512 105.196 17.3051C105.477 16.9564 105.531 16.4754 105.33 16.0759L105.333 16.081ZM81.3017 5.55798C82.4223 5.35694 83.5454 5.25769 84.6659 5.25769C91.3006 5.25769 97.7299 8.70089 101.705 14.4039C101.814 14.5592 101.921 14.7169 102.025 14.8747C97.0859 13.8593 90.3093 13.3783 82.6935 15.3888C78.0364 16.618 73.6378 18.6309 69.622 21.3769C67.8296 22.6009 66.1361 23.9574 64.5642 25.4232C64.5845 24.9982 64.6175 24.5758 64.6606 24.1558C65.0764 20.2368 66.5366 16.4882 68.9248 13.3249C72.0456 9.1895 76.4392 6.43087 81.3017 5.55798Z" fill="#1C1818"/>
<path d="M105.718 68.3881H92.0916L82.2042 78.3131H97.3369C97.6462 78.3131 97.9302 78.5472 98.0671 78.9162C98.6856 80.5653 99.3042 82.2144 99.9228 83.8634C100.194 84.5887 99.7986 85.4413 99.1927 85.4413H26.967C26.3738 85.4413 25.9783 84.6244 26.2217 83.9042C26.7769 82.2551 27.3347 80.606 27.8899 78.9569C28.0217 78.565 28.3132 78.3156 28.6352 78.3156H43.9555L34.0682 68.3907H20.2817C14.6206 76.8727 8.9569 85.3573 3.29578 93.8393C43.0986 93.7553 82.9014 93.6688 122.704 93.5848C117.043 85.1868 111.379 76.7887 105.718 68.3907V68.3881Z" fill="white"/>
<path d="M31.9665 116.232C23.6586 117.046 16.991 117.664 13.1831 118.013V166.546C13.1831 167.289 13.784 167.892 14.5242 167.892H111.476C112.216 167.892 112.817 167.289 112.817 166.546V117.25C103.84 114.636 96.4344 113.488 91.5541 112.923C76.6572 111.195 67.1628 112.781 31.9665 116.232Z" fill="#627CEF"/>
<path d="M125.99 93.8368C126.046 93.1039 125.858 92.3582 125.435 91.7271L116.942 79.13L108.449 66.5329C107.835 65.6244 106.814 65.0798 105.718 65.0798H95.3873L97.2127 63.2475C103.231 57.206 106.395 50.1847 106.357 42.9446C106.339 39.6719 105.67 36.4781 104.365 33.4497C103.11 30.5358 101.325 27.9095 99.0634 25.6395C96.802 23.3695 94.1856 21.5805 91.2828 20.3182C88.2659 19.0076 85.0817 18.3332 81.8239 18.3154C81.7808 18.3154 81.7377 18.3154 81.6946 18.3154C75.1132 18.3154 68.7169 20.99 63.0837 26.0772C57.4099 20.9544 50.9704 18.2772 44.3383 18.3103C41.078 18.3281 37.8963 19 34.8794 20.3131C31.9766 21.5728 29.3603 23.3644 27.0989 25.6344C24.8375 27.9044 23.0552 30.5333 21.7977 33.4446C20.4921 36.473 19.8203 39.6693 19.8025 42.9395C19.7645 50.1516 22.9006 57.1424 28.8685 63.1661C28.8938 63.1941 28.9192 63.2221 28.947 63.2501L30.7724 65.0824H20.2817C19.1814 65.0824 18.1546 65.632 17.5437 66.5482L9.0507 79.2725L0.557746 91.9943C0.18507 92.5516 0 93.198 0 93.8444V101.029C0 102.678 1.33099 104.014 2.9738 104.014H7.09859V166.544C7.09859 170.654 10.4299 173.997 14.5242 173.997H111.476C115.57 173.997 118.901 170.654 118.901 166.544V104.014H124.043C125.123 104.014 126 103.133 126 102.049V93.8444C126 93.8444 125.995 93.8342 125.99 93.8342V93.8368ZM24.0034 42.9573C24.0186 40.2572 24.5713 37.6182 25.6513 35.114C26.6958 32.6913 28.1814 30.5027 30.0676 28.6119C31.9538 26.7185 34.1315 25.2272 36.5451 24.1788C39.0397 23.0946 41.6687 22.5373 44.3586 22.5246C44.3941 22.5246 44.427 22.5246 44.4625 22.5246C46.047 22.5246 47.6214 22.7155 49.1806 23.0896C53.5513 24.138 57.7749 26.6346 61.593 30.4671L61.598 30.4722C62.4194 31.2967 63.7479 31.2967 64.5693 30.4722C69.7766 25.2451 75.7369 22.4991 81.8011 22.5322C84.491 22.5475 87.1175 23.1023 89.6121 24.1864C92.0256 25.2349 94.2059 26.7262 96.0896 28.6195C97.9758 30.5129 99.4614 32.699 100.506 35.1217C101.586 37.6258 102.141 40.2648 102.154 42.9624C102.184 49.0523 99.4487 55.0327 94.2414 60.2624L72.2053 82.3823H53.9569L31.9944 60.3362C31.9715 60.3107 31.9487 60.2853 31.9234 60.2624C31.9234 60.2624 31.9183 60.2573 31.9158 60.2548C26.7084 55.0276 23.9704 49.0446 24.0034 42.9548V42.9573ZM3.29577 93.8368C8.9569 85.3548 14.6206 76.8702 20.2817 68.3881H34.0682L43.9555 78.3131H28.6352C28.3132 78.3131 28.0217 78.565 27.8899 78.9544C27.3346 80.6035 26.7769 82.2526 26.2217 83.9016C25.9783 84.6218 26.3738 85.4387 26.967 85.4387H99.1901C99.7986 85.4387 100.192 84.5862 99.9203 83.8609C99.3017 82.2118 98.6831 80.5628 98.0645 78.9137C97.9251 78.5447 97.6437 78.3106 97.3344 78.3106H82.2017L92.089 68.3856H105.716C111.377 76.7836 117.041 85.1817 122.702 93.5798C82.8989 93.6637 43.0961 93.7503 3.29324 93.8342L3.29577 93.8368ZM112.817 117.25V166.546C112.817 167.289 112.216 167.892 111.476 167.892H14.5242C13.7839 167.892 13.1831 167.289 13.1831 166.546V118.013C13.1831 118.013 13.178 118.013 13.173 118.013V104.016H112.817V117.25Z" fill="#1C1818"/>
<path d="M13.173 118.013C13.173 118.013 13.178 118.013 13.1831 118.013C16.9885 117.664 23.6561 117.048 31.9665 116.232C67.1628 112.781 76.6572 111.195 91.5541 112.923C96.4344 113.488 103.84 114.636 112.817 117.25V104.016H13.173V118.013Z" fill="#4F6FE0"/>
<path d="M38.0916 43.054C39.0651 47.7213 42.6499 48.0292 49.0488 56.6894C54.6592 64.2782 57.3414 71.3962 59.0299 75.9744C59.8437 78.1833 60.5307 80.3261 61.1138 82.3849H72.2079L94.244 60.2649C99.4513 55.0378 102.189 49.0548 102.156 42.9649C102.141 40.2648 101.588 37.6258 100.508 35.1242C99.464 32.7015 97.9783 30.5129 96.0921 28.6221C94.2059 26.7287 92.0282 25.2374 89.6147 24.1889C87.12 23.1048 84.491 22.5475 81.8037 22.5348C75.7395 22.5042 69.7792 25.2476 64.5719 30.4747C63.7504 31.2993 62.422 31.2993 61.6006 30.4747L61.5955 30.4697C57.7775 26.6371 53.5538 24.1406 49.1831 23.0921C38.7026 32.5615 37.2245 38.8932 38.0941 43.0566L38.0916 43.054ZM96.1657 38.6438C96.9566 38.4733 97.735 38.9771 97.9073 39.7711C98.0772 40.5651 97.5752 41.3464 96.7842 41.5195C95.9933 41.69 95.215 41.1861 95.0426 40.3921C94.8727 39.5981 95.3747 38.8168 96.1657 38.6438ZM87.9566 28.2938C88.0935 28.2098 88.7045 27.8612 89.7896 28.024C92.7659 28.477 94.8245 32.2129 95.8589 35.025C95.9045 35.1522 95.9299 35.2769 95.9299 35.2769C95.9451 35.3532 95.9578 35.4347 95.9603 35.5161C96.0059 36.3636 95.3569 37.0863 94.5127 37.1321C93.993 37.1601 93.6051 36.8954 93.5265 36.8369C93.2324 36.6155 93.1234 36.3534 92.9535 35.9971C92.5809 35.2209 92.0738 34.1801 91.2321 33.4599C91.0242 33.2817 90.8392 33.1698 90.7403 33.1087C89.6451 32.4496 88.9733 32.7702 88.1721 32.3783C87.5409 32.0704 86.9071 31.3527 86.8259 30.4722C86.7448 29.5662 87.2721 28.7112 87.9566 28.2938Z" fill="#F63948"/>
<path d="M31.9234 60.2649C31.9487 60.2904 31.9715 60.3133 31.9944 60.3387L53.9569 82.3849H61.1113C60.5282 80.3236 59.8437 78.1833 59.0273 75.9744C57.3389 71.3962 54.6566 64.2807 49.0462 56.6894C42.6473 48.0318 39.0651 47.7213 38.089 43.054C37.2194 38.8906 38.7 32.559 49.178 23.0896C47.6214 22.7155 46.0445 22.5246 44.46 22.5246C44.4245 22.5246 44.3915 22.5246 44.3561 22.5246C41.6662 22.5399 39.0372 23.0946 36.5425 24.1788C34.129 25.2272 31.9487 26.7185 30.0651 28.6119C28.1789 30.5053 26.6932 32.6913 25.6487 35.114C24.5687 37.6182 24.0135 40.2572 24.0008 42.9573C23.9679 49.0472 26.7059 55.0276 31.9132 60.2573C31.9132 60.2573 31.9183 60.2624 31.9208 60.2649H31.9234Z" fill="#DD283E"/>
<path d="M95.0425 40.3921C95.2124 41.1861 95.9933 41.69 96.7842 41.5195C97.5752 41.349 98.0772 40.5652 97.9073 39.7712C97.7375 38.9772 96.9566 38.4733 96.1656 38.6438C95.3747 38.8143 94.8727 39.5981 95.0425 40.3921Z" fill="white"/>
<path d="M88.1721 32.3783C88.9732 32.7702 89.645 32.4496 90.7402 33.1087C90.8366 33.1672 91.0216 33.2792 91.2321 33.4599C92.0763 34.1826 92.5833 35.2209 92.9535 35.9971C93.1233 36.3534 93.2324 36.6155 93.5264 36.8369C93.605 36.8954 93.9929 37.1601 94.5126 37.1321C95.3569 37.0863 96.0059 36.3636 95.9602 35.5161C95.9552 35.4347 95.945 35.3558 95.9298 35.2769C95.9298 35.2769 95.9045 35.1497 95.8588 35.025C94.827 32.2129 92.7659 28.4745 89.7895 28.024C88.7045 27.8586 88.0935 28.2098 87.9566 28.2938C87.2721 28.7112 86.7448 29.5662 86.8259 30.4722C86.9045 31.3553 87.5408 32.0704 88.1721 32.3783Z" fill="white"/>
</g>
<defs>
<clipPath id="clip0_148_3907">
<rect width="126" height="174" fill="white"/>
</clipPath>
</defs>
</svg>
