<svg width="126" height="174" viewBox="0 0 126 174" fill="none" xmlns="http://www.w3.org/2000/svg">
<g clip-path="url(#clip0_148_3907)">
<path d="M64.6631 24.1585C65.6873 21.2167 68.078 15.7834 72.1901 14.4575C73.6656 13.9816 78.1758 13.124 79.8591 12.8466C80.1608 12.7982 81.0532 12.6506 82.2245 12.3351C85.7079 11.3986 86.902 10.2992 88.636 9.75968C91.1915 8.96568 95.2327 9.29397 101.705 14.4041C97.7324 8.70101 91.3031 5.25781 84.6659 5.25781C83.5453 5.25781 82.4222 5.35452 81.3017 5.55811C76.4417 6.43099 72.0456 9.18963 68.9248 13.325C66.5366 16.4883 65.0763 20.2369 64.6606 24.156L64.6631 24.1585Z" fill="#8ABB3E"/>
<path d="M88.6361 9.75992C86.902 10.2994 85.7079 11.3963 82.2245 12.3353C81.0533 12.6509 80.1583 12.7959 79.8592 12.8468C78.1758 13.1242 73.6682 13.9793 72.1902 14.4577C68.078 15.7862 65.6873 21.2169 64.6631 24.1588C64.6175 24.5787 64.5871 25.0011 64.5668 25.4261C66.1386 23.9603 67.8321 22.6039 69.6245 21.3798C73.6403 18.6339 78.0364 16.6209 82.6961 15.3917C90.3118 13.3838 97.0885 13.8622 102.027 14.8776C101.923 14.7199 101.817 14.5621 101.708 14.4068C95.2378 9.29676 91.1941 8.96847 88.6386 9.76247L88.6361 9.75992Z" fill="#709E0B"/>
<path d="M105.333 16.0808C100.681 6.82002 90.6338 1.57251 80.9036 3.32337C75.4808 4.29806 70.5879 7.36208 67.1222 11.9556C65.7989 13.7115 64.7315 15.6278 63.9405 17.651C63.0963 15.3733 61.8896 12.9735 60.1732 10.5966C55.4958 4.11483 49.3656 1.19078 46.1282 0.0252298C45.9203 -0.0485713 45.6896 0.0379541 45.5805 0.228819L42.6144 5.50432C42.5408 5.63411 42.5358 5.79444 42.6017 5.92677C42.6676 6.06165 42.7944 6.15581 42.9439 6.17617C45.4513 6.54263 51.7867 8.02628 56.4642 13.8998C60.3887 18.8267 61.0276 24.1633 61.0605 26.9066C61.0631 27.156 61.2659 27.3545 61.5118 27.3545H61.5169C61.7679 27.352 61.9682 27.1459 61.9631 26.8939C61.9631 26.8685 61.9631 26.8405 61.9631 26.8125L62.2774 26.7514C62.2825 27.2298 62.3003 27.7083 62.3358 28.1892C62.3687 28.6397 62.6603 29.0265 63.0836 29.1792C63.2079 29.225 63.3372 29.2454 63.4639 29.2454C63.7707 29.2454 64.0698 29.1207 64.2853 28.8891C66.2603 26.7947 68.4837 24.8962 70.8946 23.2471C74.6949 20.6488 78.8577 18.7402 83.2665 17.5797C91.8355 15.3199 99.2839 16.3887 104.022 17.6815C104.453 17.7986 104.912 17.651 105.196 17.3049C105.477 16.9562 105.531 16.4752 105.33 16.0757L105.333 16.0808ZM81.3017 5.55777C82.4222 5.35672 83.5453 5.25747 84.6659 5.25747C91.3005 5.25747 97.7298 8.70067 101.705 14.4037C101.814 14.559 101.921 14.7167 102.024 14.8745C97.0859 13.8591 90.3093 13.3781 82.6935 15.3886C78.0363 16.6177 73.6377 18.6307 69.622 21.3766C67.8296 22.6007 66.136 23.9571 64.5642 25.423C64.5845 24.998 64.6174 24.5755 64.6605 24.1556C65.0763 20.2365 66.5366 16.488 68.9248 13.3247C72.0456 9.18929 76.4391 6.43065 81.3017 5.55777Z" fill="#1C1818"/>
<path d="M105.718 68.3877H92.0916L82.2042 78.3127H97.3369C97.6462 78.3127 97.9302 78.5468 98.0671 78.9158C98.6856 80.5649 99.3042 82.2139 99.9228 83.863C100.194 84.5883 99.7986 85.4408 99.1927 85.4408H26.967C26.3738 85.4408 25.9783 84.6239 26.2217 83.9037C26.7769 82.2547 27.3347 80.6056 27.8899 78.9565C28.0217 78.5646 28.3132 78.3152 28.6352 78.3152H43.9555L34.0682 68.3902H20.2817C14.6206 76.8723 8.9569 85.3568 3.29578 93.8389C43.0986 93.7549 82.9014 93.6684 122.704 93.5844C117.043 85.1863 111.379 76.7883 105.718 68.3902V68.3877Z" fill="white"/>
<path d="M31.9665 116.231C23.6586 117.045 16.991 117.664 13.1831 118.012V166.546C13.1831 167.289 13.784 167.892 14.5242 167.892H111.476C112.216 167.892 112.817 167.289 112.817 166.546V117.249C103.84 114.635 96.4344 113.488 91.5541 112.923C76.6572 111.195 67.1628 112.78 31.9665 116.231Z" fill="#627CEF"/>
<path d="M125.99 93.8364C126.046 93.1034 125.858 92.3578 125.435 91.7267L116.942 79.1296L108.449 66.5325C107.835 65.624 106.814 65.0794 105.718 65.0794H95.3873L97.2127 63.2471C103.231 57.2056 106.395 50.1843 106.357 42.9442C106.339 39.6715 105.67 36.4777 104.365 33.4493C103.11 30.5354 101.325 27.9091 99.0634 25.6391C96.802 23.3691 94.1856 21.58 91.2828 20.3178C88.2659 19.0072 85.0817 18.3328 81.8239 18.315C81.7808 18.315 81.7377 18.315 81.6946 18.315C75.1132 18.315 68.7169 20.9896 63.0837 26.0768C57.4099 20.954 50.9704 18.2768 44.3383 18.3099C41.078 18.3277 37.8963 18.9995 34.8794 20.3127C31.9766 21.5724 29.3603 23.364 27.0989 25.634C24.8375 27.904 23.0552 30.5329 21.7977 33.4442C20.4921 36.4726 19.8203 39.6689 19.8025 42.9391C19.7645 50.1512 22.9006 57.142 28.8685 63.1656C28.8938 63.1936 28.9192 63.2216 28.947 63.2496L30.7724 65.0819H20.2817C19.1814 65.0819 18.1546 65.6316 17.5437 66.5478L9.0507 79.2721L0.557746 91.9939C0.18507 92.5512 0 93.1976 0 93.844V101.028C0 102.677 1.33099 104.013 2.9738 104.013H7.09859V166.543C7.09859 170.653 10.4299 173.997 14.5242 173.997H111.476C115.57 173.997 118.901 170.653 118.901 166.543V104.013H124.043C125.123 104.013 126 103.133 126 102.049V93.844C126 93.844 125.995 93.8338 125.99 93.8338V93.8364ZM24.0034 42.9569C24.0186 40.2568 24.5713 37.6178 25.6513 35.1136C26.6958 32.6909 28.1814 30.5023 30.0676 28.6115C31.9538 26.7181 34.1315 25.2268 36.5451 24.1783C39.0397 23.0942 41.6687 22.5369 44.3586 22.5242C44.3941 22.5242 44.427 22.5242 44.4625 22.5242C46.047 22.5242 47.6214 22.715 49.1806 23.0891C53.5513 24.1376 57.7749 26.6341 61.593 30.4667L61.598 30.4718C62.4194 31.2963 63.7479 31.2963 64.5693 30.4718C69.7766 25.2446 75.7369 22.4987 81.8011 22.5318C84.491 22.5471 87.1175 23.1019 89.6121 24.186C92.0256 25.2344 94.2059 26.7257 96.0896 28.6191C97.9758 30.5125 99.4614 32.6985 100.506 35.1212C101.586 37.6254 102.141 40.2644 102.154 42.962C102.184 49.0518 99.4487 55.0323 94.2414 60.262L72.2053 82.3819H53.9569L31.9944 60.3358C31.9715 60.3103 31.9487 60.2849 31.9234 60.262C31.9234 60.262 31.9183 60.2569 31.9158 60.2543C26.7084 55.0272 23.9704 49.0442 24.0034 42.9543V42.9569ZM3.29577 93.8364C8.9569 85.3543 14.6206 76.8697 20.2817 68.3877H34.0682L43.9555 78.3127H28.6352C28.3132 78.3127 28.0217 78.5646 27.8899 78.954C27.3346 80.6031 26.7769 82.2521 26.2217 83.9012C25.9783 84.6214 26.3738 85.4383 26.967 85.4383H99.1901C99.7986 85.4383 100.192 84.5858 99.9203 83.8605C99.3017 82.2114 98.6831 80.5623 98.0645 78.9133C97.9251 78.5443 97.6437 78.3101 97.3344 78.3101H82.2017L92.089 68.3852H105.716C111.377 76.7832 117.041 85.1813 122.702 93.5793C82.8989 93.6633 43.0961 93.7498 3.29324 93.8338L3.29577 93.8364ZM112.817 117.249V166.546C112.817 167.289 112.216 167.892 111.476 167.892H14.5242C13.7839 167.892 13.1831 167.289 13.1831 166.546V118.013C13.1831 118.013 13.178 118.013 13.173 118.013V104.016H112.817V117.249Z" fill="#1C1818"/>
<path d="M13.173 118.013C13.173 118.013 13.178 118.013 13.1831 118.013C16.9885 117.665 23.6561 117.049 31.9665 116.232C67.1628 112.781 76.6572 111.196 91.5541 112.924C96.4344 113.489 103.84 114.636 112.817 117.25V104.017H13.173V118.013Z" fill="#4F6FE0"/>
<path d="M38.0915 43.0537C39.0651 47.721 42.6499 48.0289 49.0487 56.6891C54.6591 64.2778 57.3414 71.3958 59.0299 75.974C59.8437 78.183 60.5307 80.3258 61.1138 82.3846H72.2079L94.2439 60.2646C99.4513 55.0374 102.189 49.0545 102.156 42.9646C102.141 40.2645 101.588 37.6255 100.508 35.1239C99.4639 32.7012 97.9783 30.5126 96.0921 28.6217C94.2059 26.7284 92.0282 25.2371 89.6146 24.1886C87.12 23.1045 84.491 22.5472 81.8037 22.5344C75.7394 22.5039 69.7791 25.2473 64.5718 30.4744C63.7504 31.2989 62.422 31.2989 61.6006 30.4744L61.5955 30.4693C57.7775 26.6368 53.5538 24.1402 49.1831 23.0918C38.7025 32.5612 37.2245 38.8928 38.0941 43.0562L38.0915 43.0537ZM96.1656 38.6434C96.9566 38.4729 97.7349 38.9768 97.9073 39.7708C98.0772 40.5648 97.5752 41.3461 96.7842 41.5191C95.9932 41.6896 95.2149 41.1857 95.0425 40.3917C94.8727 39.5977 95.3746 38.8165 96.1656 38.6434ZM87.9566 28.2935C88.0935 28.2095 88.7045 27.8608 89.7896 28.0237C92.7659 28.4767 94.8245 32.2126 95.8589 35.0246C95.9045 35.1519 95.9299 35.2766 95.9299 35.2766C95.9451 35.3529 95.9577 35.4343 95.9603 35.5158C96.0059 36.3632 95.3569 37.086 94.5127 37.1318C93.9929 37.1598 93.6051 36.8951 93.5265 36.8366C93.2324 36.6152 93.1234 36.353 92.9535 35.9968C92.5808 35.2206 92.0738 34.1797 91.2321 33.4595C91.0242 33.2814 90.8391 33.1694 90.7403 33.1083C89.6451 32.4492 88.9732 32.7699 88.1721 32.378C87.5408 32.07 86.907 31.3524 86.8259 30.4719C86.7448 29.5659 87.2721 28.7108 87.9566 28.2935Z" fill="#F63948"/>
<path d="M31.9234 60.2648C31.9487 60.2902 31.9715 60.3131 31.9944 60.3386L53.9569 82.3847H61.1113C60.5282 80.3234 59.8437 78.1831 59.0273 75.9742C57.3389 71.396 54.6566 64.2805 49.0462 56.6892C42.6473 48.0316 39.0651 47.7211 38.089 43.0538C37.2194 38.8904 38.7 32.5588 49.178 23.0894C47.6214 22.7153 46.0445 22.5244 44.46 22.5244C44.4245 22.5244 44.3915 22.5244 44.3561 22.5244C41.6662 22.5397 39.0372 23.0945 36.5425 24.1786C34.129 25.2271 31.9487 26.7183 30.0651 28.6117C28.1789 30.5051 26.6932 32.6911 25.6487 35.1139C24.5687 37.618 24.0135 40.257 24.0008 42.9571C23.9679 49.047 26.7059 55.0274 31.9132 60.2571C31.9132 60.2571 31.9183 60.2622 31.9208 60.2648H31.9234Z" fill="#DD283E"/>
<path d="M95.0425 40.3918C95.2124 41.1858 95.9933 41.6897 96.7842 41.5192C97.5752 41.3487 98.0772 40.5649 97.9073 39.7709C97.7375 38.9769 96.9566 38.473 96.1656 38.6435C95.3747 38.814 94.8727 39.5978 95.0425 40.3918Z" fill="white"/>
<path d="M88.1721 32.3785C88.9732 32.7704 89.6451 32.4497 90.7403 33.1088C90.8366 33.1674 91.0217 33.2793 91.2321 33.46C92.0763 34.1828 92.5834 35.2211 92.9535 35.9973C93.1234 36.3535 93.2324 36.6157 93.5265 36.8371C93.6051 36.8956 93.9929 37.1603 94.5127 37.1323C95.3569 37.0865 96.0059 36.3637 95.9603 35.5163C95.9552 35.4348 95.9451 35.3559 95.9299 35.2771C95.9299 35.2771 95.9045 35.1498 95.8589 35.0251C94.827 32.213 92.7659 28.4746 89.7896 28.0242C88.7045 27.8588 88.0935 28.21 87.9566 28.294C87.2721 28.7113 86.7448 29.5664 86.8259 30.4724C86.9045 31.3554 87.5408 32.0705 88.1721 32.3785Z" fill="white"/>
</g>
<defs>
<clipPath id="clip0_148_3907">
<rect width="126" height="174" fill="white"/>
</clipPath>
</defs>
</svg>
