<svg width="299" height="79" viewBox="0 0 299 79" fill="none" xmlns="http://www.w3.org/2000/svg">
<path d="M91.4746 43.5869C90.6754 43.5869 87.9331 43.3448 84.3559 43.3448C81.4732 43.3448 78.0007 43.5869 77.2016 43.5869C76.9923 43.5869 76.9233 43.4825 76.9233 42.8582C76.9233 42.2339 76.9923 42.1295 77.2016 42.0962L79.423 41.8541C79.7703 41.8185 79.8393 41.7165 79.8393 41.3699V20.2631C79.8393 19.9165 79.7703 19.8477 79.423 19.8477H79.2851C78.7642 19.8477 77.3752 19.9854 75.9862 20.2987C75.2917 20.4364 75.1537 20.5764 74.7708 21.2007C73.5911 23.2444 72.8966 24.4242 71.403 26.9545C71.2293 27.2322 71.1937 27.3011 70.9178 27.3011C70.3612 27.3011 69.4598 26.9545 69.4598 26.6768C69.4598 25.0484 70.9867 19.1213 71.6812 16.5578C71.7859 16.2112 72.4804 16.0023 72.9323 16.0023C73.1416 16.0023 73.2106 16.1068 73.3152 16.28C73.6625 16.8355 74.0097 17.3886 74.357 17.8752C74.5663 18.1529 74.5996 18.1861 74.8778 18.2217C76.8924 18.3594 77.7605 18.395 79.2875 18.395H89.391C92.307 18.395 93.7674 18.3594 95.7795 18.2217C96.0578 18.1861 96.0911 18.1529 96.3004 17.8752C96.6477 17.3909 96.9949 16.8355 97.3421 16.28C97.4468 16.1068 97.5158 16.0023 97.7251 16.0023C98.177 16.0023 98.9761 16.2112 98.9761 16.5578C98.9761 19.1213 98.8025 23.9399 98.4196 26.9545C98.3839 27.2322 98.2816 27.3011 97.4825 27.3011C96.6833 27.3011 96.5787 27.2322 96.4764 26.9545C95.5393 24.2509 95.2967 23.2468 94.4286 21.2007C94.1503 20.5432 93.9077 20.4387 93.2132 20.2987C91.8242 19.9877 89.9143 19.8477 89.3934 19.8477H89.2555C88.9082 19.8477 88.8392 19.9165 88.8392 20.2631V41.3675C88.8392 41.7141 88.9082 41.8185 89.2555 41.8518L91.4769 42.0939C91.6862 42.1295 91.7552 42.2316 91.7552 42.8558C91.7552 43.4801 91.6862 43.5846 91.4769 43.5846L91.4746 43.5869Z" fill="#1C1818"/>
<path d="M123.041 42.0963C123.25 42.1319 123.319 42.2339 123.319 42.8582C123.319 43.4825 123.25 43.5869 123.041 43.5869C122.242 43.5869 119.985 43.3448 117.449 43.3448C114.914 43.3448 112.866 43.5869 112.067 43.5869C111.858 43.5869 111.789 43.4825 111.789 42.8582C111.789 42.2339 111.858 42.1651 112.067 42.0963L113.004 41.8541C113.351 41.7497 113.42 41.7165 113.42 41.3699V34.5432C113.42 31.3197 112.657 30.1756 110.331 30.1756C110.088 30.1756 109.741 30.2112 109.567 30.2801V41.3699C109.567 41.7165 109.636 41.7521 109.984 41.8541L110.921 42.0963C111.13 42.1651 111.199 42.2339 111.199 42.8582C111.199 43.4825 111.13 43.5869 110.921 43.5869C110.121 43.5869 108.107 43.3448 105.574 43.3448C103.041 43.3448 100.748 43.5869 99.9489 43.5869C99.7396 43.5869 99.6706 43.4825 99.6706 42.8582C99.6706 42.2339 99.7396 42.1295 99.9489 42.0963L101.129 41.8541C101.476 41.7853 101.545 41.7165 101.545 41.3699V23.5198C101.545 23.1732 101.476 23.1376 101.129 23.0688L99.9489 22.8599C99.7396 22.8243 99.6706 22.7555 99.6706 22.2024C99.6706 21.6826 99.7396 21.6137 99.9489 21.5449C102.796 20.4364 105.888 18.668 108.666 16.7619C108.771 16.6931 108.839 16.6575 108.944 16.6575C109.187 16.6575 109.846 16.9352 109.846 17.1773C109.846 17.766 109.567 20.1231 109.567 24.3862V29.2024C110.609 27.3319 112.728 25.5991 115.54 25.5991C119.186 25.5991 121.443 27.7829 121.443 31.5262V41.3675C121.443 41.7141 121.512 41.7829 121.859 41.8518L123.039 42.0939L123.041 42.0963Z" fill="#1C1818"/>
<path d="M131.573 32.6704C132.093 34.4032 133.031 36.0671 134.003 37.038C135.323 38.3554 136.26 38.7019 137.511 38.7019C138.936 38.7019 139.942 38.1133 140.879 37.2801C141.191 37.0024 142.059 37.6623 141.921 38.0088C140.496 41.5432 136.574 43.9003 132.824 43.9003C127.651 43.9003 123.657 40.3659 123.657 34.8898C123.657 29.4137 127.86 25.6016 134.039 25.6016C139.212 25.6016 142.026 28.0963 142.026 31.4242C142.026 31.7352 142.026 32.0817 141.957 32.3262C141.921 32.4639 141.783 32.5683 141.574 32.5683C138.832 32.706 134.871 32.7772 131.573 32.6728V32.6704ZM134.802 28.685C134.802 27.3676 134.246 26.6745 133.275 26.6745C132.198 26.6745 131.123 27.6453 131.123 29.7247C131.123 30.4178 131.228 31.1797 131.366 31.9084L132.476 31.7708C134.075 31.5975 134.802 30.4534 134.802 28.6874V28.685Z" fill="#1C1818"/>
<path d="M179.248 18.8436C179.248 19.4679 179.179 19.5367 178.97 19.6412L177.824 20.161C176.782 20.6453 176.644 20.8541 174.315 25.5327L170.774 32.6015C168.969 36.2048 166.781 40.8833 165.808 43.2404C165.634 43.6558 165.46 43.7602 164.557 43.7602C163.653 43.7602 163.479 43.6558 163.306 43.2404C162.333 40.8833 160.285 36.2048 158.549 32.6015L152.681 20.4031C152.508 20.0566 152.508 20.021 152.16 19.9189L151.083 19.6412C150.874 19.5724 150.805 19.5035 150.805 18.8792C150.805 18.255 150.874 18.1505 151.083 18.1505C151.882 18.1505 154.139 18.3926 156.675 18.3926C158.515 18.3926 163.655 18.1505 164.452 18.1505C164.661 18.1505 164.73 18.255 164.73 18.8792C164.73 19.5035 164.661 19.608 164.452 19.6412L162.404 19.9189C162.057 19.9545 161.988 20.0566 162.162 20.4031L168.307 33.2258L171.05 25.706C172.786 20.8897 172.543 20.6809 171.535 20.2987L169.73 19.6412C169.52 19.5724 169.451 19.4679 169.451 18.8436C169.451 18.2194 169.52 18.1505 169.73 18.1505C170.529 18.1505 172.75 18.3926 174.591 18.3926C176.432 18.3926 178.168 18.1505 178.968 18.1505C179.177 18.1505 179.246 18.2194 179.246 18.8436H179.248Z" fill="#1C1818"/>
<path d="M178.718 42.8582C178.718 42.234 178.787 42.1295 178.996 42.0963L180.176 41.8542C180.523 41.7853 180.592 41.7165 180.592 41.3699V32.255C180.592 31.9084 180.523 31.8728 180.176 31.804L178.996 31.5951C178.787 31.5595 178.718 31.4907 178.718 30.9376C178.718 30.4177 178.787 30.3489 178.996 30.2801C181.843 29.1716 184.935 27.4032 187.713 25.4971C187.818 25.4283 187.887 25.3927 187.991 25.3927C188.234 25.3927 188.893 25.6704 188.893 25.9125C188.893 26.5012 188.615 28.8582 188.615 33.1214V41.3699C188.615 41.7165 188.683 41.7853 189.031 41.8542L190.21 42.0963C190.42 42.1319 190.489 42.234 190.489 42.8582C190.489 43.4825 190.42 43.587 190.21 43.587C189.411 43.587 187.154 43.3448 184.619 43.3448C182.083 43.3448 179.757 43.587 178.994 43.587C178.784 43.587 178.715 43.4825 178.715 42.8582H178.718ZM181.08 19.8477C181.08 17.5951 182.747 15.8623 185.073 15.8623C187.399 15.8623 189.066 17.5951 189.066 19.8477C189.066 22.1004 187.399 23.8331 185.073 23.8331C182.747 23.8331 181.08 22.1004 181.08 19.8477Z" fill="#1C1818"/>
<path d="M209.143 29.0647C209.143 32.357 207.233 33.9854 205.601 33.9854C204.976 33.9854 204.455 33.7765 203.691 33.2567C202.859 32.668 202.164 32.3547 201.713 32.3547C201.539 32.3547 201.33 32.3903 201.261 32.4591V41.4008C201.261 41.7473 201.33 41.8162 201.677 41.8518L203.898 42.0939C204.108 42.1295 204.177 42.2316 204.177 42.8558C204.177 43.4801 204.108 43.5846 203.898 43.5846C203.099 43.5846 200.842 43.3424 197.265 43.3424C194.729 43.3424 192.439 43.5846 191.64 43.5846C191.431 43.5846 191.362 43.5157 191.362 42.8558C191.362 42.196 191.431 42.1271 191.64 42.0939L192.82 41.8518C193.167 41.7829 193.236 41.7473 193.236 41.4008V32.2526C193.236 31.906 193.167 31.8704 192.82 31.8016L191.64 31.5927C191.431 31.5571 191.362 31.4883 191.362 30.9352C191.362 30.4154 191.431 30.3465 191.64 30.2777C194.487 29.1692 197.196 27.4696 199.974 25.4947C200.079 25.4259 200.148 25.3903 200.252 25.3903C200.495 25.3903 201.156 25.668 201.156 25.9101C201.156 26.4655 201.018 29.2712 201.018 31.5239C202.06 28.1627 204.005 25.5968 206.122 25.5968C208.239 25.5968 209.143 27.1563 209.143 29.0623V29.0647Z" fill="#1C1818"/>
<path d="M228.572 44.6267C228.572 47.919 224.857 51.3157 216.801 51.3157C210.482 51.3157 208.12 50.2072 208.12 48.2323C208.12 46.8105 209.787 46.4639 212.182 45.7376C210.273 44.8712 209.057 43.2761 209.057 40.9902C209.057 38.9797 210.931 38.4955 213.814 37.1425C211.662 36.1716 209.856 34.4056 209.856 31.7708C209.856 28.0275 213.607 25.6372 218.849 25.6372C220.065 25.6372 221.454 25.9149 222.705 26.4348C225.1 26.3303 227.324 26.2615 228.261 26.2615C228.746 26.2615 228.817 26.3303 228.817 26.7813C228.817 27.9943 228.713 28.583 228.261 28.583C227.566 28.583 226.489 28.4785 225.378 28.3741C226.108 29.2405 226.558 30.349 226.558 31.6664C226.558 35.4429 222.807 37.94 217.565 37.94C216.766 37.94 215.933 37.8356 215.098 37.5935C214.44 37.7667 214.126 38.2177 214.126 38.7376C214.126 39.4995 214.751 39.8461 217.251 39.8461H220.376C225.48 39.8461 228.572 41.6833 228.572 44.6291V44.6267ZM223.294 48.23C223.294 47.2259 222.462 46.4972 217.948 46.4972H216.038C215.205 46.4972 214.406 46.4283 213.676 46.255C213.293 46.566 213.12 47.017 213.12 47.4324C213.12 48.8875 215.167 50.0316 218.607 50.0316C221.696 50.0316 223.294 49.1652 223.294 48.23ZM216.071 28.3029C216.071 32.3239 218.224 36.7935 219.406 36.7935C220.031 36.7935 220.343 36.5514 220.343 35.2696C220.343 31.2486 218.155 26.779 217.008 26.779C216.383 26.779 216.071 27.0211 216.071 28.3029Z" fill="#1C1818"/>
<path d="M229.276 42.8582C229.276 42.234 229.345 42.1295 229.555 42.0963L230.734 41.8542C231.081 41.7853 231.15 41.7165 231.15 41.3699V32.255C231.15 31.9084 231.081 31.8728 230.734 31.804L229.555 31.5951C229.345 31.5595 229.276 31.4907 229.276 30.9376C229.276 30.4177 229.345 30.3489 229.555 30.2801C232.401 29.1716 235.493 27.4032 238.271 25.4971C238.376 25.4283 238.445 25.3927 238.55 25.3927C238.792 25.3927 239.451 25.6704 239.451 25.9125C239.451 26.5012 239.173 28.8582 239.173 33.1214V41.3699C239.173 41.7165 239.242 41.7853 239.589 41.8542L240.769 42.0963C240.978 42.1319 241.047 42.234 241.047 42.8582C241.047 43.4825 240.978 43.587 240.769 43.587C239.97 43.587 237.713 43.3448 235.177 43.3448C232.642 43.3448 230.316 43.587 229.552 43.587C229.343 43.587 229.274 43.4825 229.274 42.8582H229.276ZM231.638 19.8477C231.638 17.5951 233.305 15.8623 235.631 15.8623C237.958 15.8623 239.625 17.5951 239.625 19.8477C239.625 22.1004 237.958 23.8331 235.631 23.8331C233.305 23.8331 231.638 22.1004 231.638 19.8477Z" fill="#1C1818"/>
<path d="M265.569 42.8583C265.569 43.4826 265.5 43.587 265.29 43.587C264.491 43.587 262.234 43.3449 259.699 43.3449C257.163 43.3449 255.116 43.587 254.316 43.587C254.107 43.587 254.038 43.4826 254.038 42.8583C254.038 42.234 254.107 42.1652 254.316 42.0963L255.253 41.8542C255.601 41.7498 255.67 41.7165 255.67 41.37V34.5433C255.67 31.3198 254.906 30.1757 252.58 30.1757C252.337 30.1757 251.99 30.2113 251.817 30.2801V41.37C251.817 41.7165 251.886 41.7521 252.233 41.8542L253.17 42.0963C253.379 42.1652 253.448 42.234 253.448 42.8583C253.448 43.4826 253.379 43.587 253.17 43.587C252.371 43.587 250.356 43.3449 247.823 43.3449C245.29 43.3449 242.997 43.587 242.198 43.587C241.989 43.587 241.92 43.4826 241.92 42.8583C241.92 42.234 241.989 42.1296 242.198 42.0963L243.378 41.8542C243.725 41.7854 243.794 41.7165 243.794 41.37V32.255C243.794 31.9085 243.725 31.8729 243.378 31.804L242.198 31.5951C241.989 31.5595 241.92 31.4907 241.92 30.9376C241.92 30.4178 241.989 30.349 242.198 30.2801C245.045 29.1716 247.754 27.472 250.532 25.4971C250.637 25.4283 250.706 25.3927 250.811 25.3927C251.053 25.3927 251.714 25.6704 251.714 25.9125C251.714 26.468 251.576 27.6097 251.576 29.6891C252.514 27.6453 254.737 25.5992 257.791 25.5992C261.437 25.5992 263.695 27.783 263.695 31.5263V41.3676C263.695 41.7142 263.763 41.783 264.111 41.8518L265.29 42.094C265.5 42.1296 265.569 42.2316 265.569 42.8559V42.8583Z" fill="#1C1818"/>
<path d="M266.389 42.8582C266.389 42.234 266.458 42.1295 266.668 42.0963L267.847 41.8542C268.195 41.7853 268.264 41.7165 268.264 41.3699V32.255C268.264 31.9084 268.195 31.8728 267.847 31.804L266.668 31.5951C266.458 31.5595 266.389 31.4907 266.389 30.9376C266.389 30.4177 266.458 30.3489 266.668 30.2801C269.515 29.1716 272.607 27.4032 275.385 25.4971C275.489 25.4283 275.558 25.3927 275.663 25.3927C275.905 25.3927 276.564 25.6704 276.564 25.9125C276.564 26.5012 276.286 28.8582 276.286 33.1214V41.3699C276.286 41.7165 276.355 41.7853 276.702 41.8542L277.882 42.0963C278.091 42.1319 278.16 42.234 278.16 42.8582C278.16 43.4825 278.091 43.587 277.882 43.587C277.083 43.587 274.826 43.3448 272.29 43.3448C269.755 43.3448 267.429 43.587 266.665 43.587C266.456 43.587 266.387 43.4825 266.387 42.8582H266.389ZM268.751 19.8477C268.751 17.5951 270.418 15.8623 272.744 15.8623C275.071 15.8623 276.738 17.5951 276.738 19.8477C276.738 22.1004 275.071 23.8331 272.744 23.8331C270.418 23.8331 268.751 22.1004 268.751 19.8477Z" fill="#1C1818"/>
<path d="M288.858 39.4971C287.748 42.2696 285.628 43.8979 283.093 43.8979C280.42 43.8979 278.579 41.7498 278.579 39.0461C278.579 36.9312 279.238 35.7182 281.045 34.7497C282.677 33.8834 285.281 33.1214 288.58 32.3927V31.2842C288.58 28.7894 287.817 27.2631 286.497 27.2631C286.149 27.2631 286.011 27.3676 285.94 27.8186L285.697 29.4825C285.35 31.9773 283.892 33.157 281.947 33.157C280.869 33.157 279.899 32.4995 279.899 31.2153C279.899 28.9983 284.204 25.6016 289.517 25.6016C294.241 25.6016 296.462 27.472 296.462 30.8355V37.2113C296.462 39.9837 297.019 40.0526 297.956 39.4283C298.061 39.3594 298.094 39.3238 298.165 39.3238C298.477 39.3238 298.998 40.0858 298.998 40.2947C298.998 40.468 298.86 40.6056 298.65 40.8145L298.512 40.9522C296.429 43.0315 294.935 43.8979 293.235 43.8979C291.187 43.8979 289.726 42.5117 288.858 39.4971ZM288.58 38.9773V36.5158C288.58 35.7538 288.268 35.1984 287.85 34.783C287.398 34.332 286.844 34.1255 286.497 34.1255C285.802 34.1255 285.49 34.5409 285.49 35.5805C285.49 37.5222 286.811 39.2194 287.957 39.2194C288.304 39.2194 288.478 39.0817 288.582 38.9773H288.58Z" fill="#1C1818"/>
<path d="M98.3506 49.7017C98.3506 50.3259 98.2816 50.3948 98.0723 50.4992L96.9259 51.0191C95.8842 51.5033 95.7462 51.7122 93.4177 56.3907L89.8762 63.4595C88.071 67.0628 85.8829 71.7413 84.9101 74.0984C84.7364 74.5138 84.5628 74.6182 83.659 74.6182C82.7552 74.6182 82.5816 74.5138 82.408 74.0984C81.4352 71.7413 79.3874 67.0628 77.6511 63.4595L71.7835 51.2612C71.6099 50.9146 71.6099 50.879 71.2626 50.7769L70.1852 50.4992C69.9759 50.4304 69.9069 50.3615 69.9069 49.7373C69.9069 49.113 69.9759 49.0085 70.1852 49.0085C70.9843 49.0085 73.2415 49.2507 75.7769 49.2507C77.6178 49.2507 82.7576 49.0085 83.5544 49.0085C83.7637 49.0085 83.8326 49.113 83.8326 49.7373C83.8326 50.3615 83.7637 50.466 83.5544 50.4992L81.5065 50.7769C81.1593 50.8125 81.0903 50.9146 81.2639 51.2612L87.4098 64.0838L90.1521 56.564C91.8884 51.7478 91.6458 51.5389 90.6373 51.1567L88.8321 50.4992C88.6228 50.4304 88.5538 50.3259 88.5538 49.7017C88.5538 49.0774 88.6228 49.0085 88.8321 49.0085C89.6313 49.0085 91.8527 49.2507 93.6936 49.2507C95.5345 49.2507 97.2708 49.0085 98.0699 49.0085C98.2792 49.0085 98.3482 49.0774 98.3482 49.7017H98.3506Z" fill="#1C1818"/>
<path d="M105.681 56.457C111.722 56.457 115.889 59.8538 115.889 65.4675C115.889 71.359 111.411 74.7558 104.986 74.7558C98.9452 74.7558 94.7782 71.359 94.7782 65.7453C94.7782 59.8538 99.2568 56.457 105.681 56.457ZM105.959 72.9518C106.375 73.3672 106.689 73.4716 107.037 73.4716C107.731 73.4716 108.321 73.0206 108.321 71.1834C108.321 67.5445 106.202 59.747 104.711 58.2563C104.294 57.8409 103.98 57.7365 103.633 57.7365C102.939 57.7365 102.349 58.1875 102.349 60.0247C102.349 63.6635 104.468 71.4611 105.959 72.9518Z" fill="#1C1818"/>
<path d="M125.995 58.8142V65.6766C125.995 68.9 126.863 69.6976 128.357 69.6976C128.809 69.6976 129.051 69.4887 129.225 69.4887C129.608 69.4887 130.198 70.0441 130.057 70.3907C129.189 72.5745 126.759 74.7583 123.529 74.7583C119.883 74.7583 117.973 72.4368 117.973 68.6935V59.1988C117.973 58.8522 117.937 58.8166 117.556 58.7478L116.305 58.5745C116.063 58.5389 116.027 58.47 116.027 57.8814C116.027 57.2927 116.096 57.1526 116.305 57.1194C119.952 56.253 121.93 55.0401 124.188 52.683C124.397 52.4741 124.43 52.4053 124.987 52.4053C125.543 52.4053 125.645 52.4409 125.681 52.683C125.819 53.6871 125.924 55.2133 125.959 56.7373L129.884 56.7016C130.231 56.7016 130.369 56.8749 130.369 57.8102C130.369 58.7454 130.231 58.8498 129.884 58.8498C128.668 58.8498 127.175 58.8498 125.995 58.8142Z" fill="#1C1818"/>
<path d="M138.468 63.5283C138.989 65.2611 139.926 66.9251 140.898 67.8959C142.218 69.2133 143.156 69.5598 144.407 69.5598C145.831 69.5598 146.837 68.9712 147.774 68.138C148.086 67.8603 148.954 68.5202 148.816 68.8667C147.392 72.4011 143.469 74.7582 139.719 74.7582C134.546 74.7582 130.552 71.2238 130.552 65.7477C130.552 60.2716 134.755 56.4595 140.934 56.4595C146.107 56.4595 148.921 58.9542 148.921 62.2821C148.921 62.5931 148.921 62.9396 148.852 63.1841C148.816 63.3218 148.678 63.4262 148.469 63.4262C145.727 63.5639 141.767 63.6351 138.468 63.5307V63.5283ZM141.698 59.5429C141.698 58.2255 141.141 57.5324 140.171 57.5324C139.093 57.5324 138.018 58.5032 138.018 60.5826C138.018 61.2757 138.123 62.0376 138.261 62.7664L139.371 62.6287C140.97 62.4554 141.698 61.3113 141.698 59.5453V59.5429Z" fill="#1C1818"/>
<path d="M167.72 59.9228C167.72 63.2151 165.81 64.8434 164.179 64.8434C163.553 64.8434 163.032 64.6345 162.269 64.1147C161.436 63.526 160.742 63.2127 160.29 63.2127C160.116 63.2127 159.907 63.2483 159.838 63.3171V72.2588C159.838 72.6054 159.907 72.6742 160.254 72.7098L162.476 72.9519C162.685 72.9875 162.754 73.0896 162.754 73.7139C162.754 74.3382 162.685 74.4426 162.476 74.4426C161.676 74.4426 159.419 74.2005 155.842 74.2005C153.307 74.2005 151.016 74.4426 150.217 74.4426C150.008 74.4426 149.939 74.3738 149.939 73.7139C149.939 73.054 150.008 72.9852 150.217 72.9519L151.397 72.7098C151.744 72.641 151.813 72.6054 151.813 72.2588V63.1106C151.813 62.7641 151.744 62.7285 151.397 62.6596L150.217 62.4507C150.008 62.4151 149.939 62.3463 149.939 61.7932C149.939 61.2734 150.008 61.2045 150.217 61.1357C153.064 60.0272 155.773 58.3276 158.551 56.3527C158.656 56.2839 158.725 56.2483 158.829 56.2483C159.072 56.2483 159.733 56.526 159.733 56.7681C159.733 57.3236 159.595 60.1293 159.595 62.3819C160.637 59.0208 162.583 56.4548 164.699 56.4548C166.816 56.4548 167.72 58.0143 167.72 59.9204V59.9228Z" fill="#1C1818"/>
<path d="M193.659 48.8352C196.646 48.8352 199.251 48.9396 201.263 49.355C201.958 49.4927 202.027 49.5639 202.062 50.257C202.236 52.7518 202.305 54.5202 202.305 57.0505C202.305 57.3283 202.167 57.3971 201.368 57.3971C200.569 57.3971 200.464 57.3283 200.362 57.0505C199.631 54.9712 198.904 53.5849 197.446 52.1299C196.195 50.8813 194.91 50.3615 192.689 50.3615C189.216 50.3615 186.3 52.683 186.3 58.159C186.3 64.5704 188.21 69.7331 190.641 72.159C191.335 72.8522 192.239 73.2343 192.862 73.2343C194.251 73.2343 194.563 72.8522 194.563 71.9858V64.257C194.563 63.9105 194.494 63.8416 194.147 63.7728L192.62 63.5307C192.41 63.4951 192.342 63.393 192.342 62.7687C192.342 62.1445 192.41 62.04 192.62 62.04C193.419 62.04 196.161 62.2821 199.044 62.2821C201.927 62.2821 204.705 62.04 205.504 62.04C205.713 62.04 205.782 62.1445 205.782 62.7687C205.782 63.393 205.713 63.4975 205.504 63.5307L203.977 63.7728C203.63 63.8416 203.561 63.9105 203.561 64.257V71.3259C204.046 71.2903 204.393 71.2214 204.533 71.2214C204.812 71.2214 204.881 71.2903 204.881 71.9502C204.881 72.5056 204.845 72.5744 204.602 72.6789C201.094 74.0295 196.72 74.7582 191.338 74.7582C182.968 74.7582 176.615 69.942 176.615 61.9712C176.615 53.5493 184.74 48.8376 193.664 48.8376L193.659 48.8352Z" fill="#1C1818"/>
<path d="M229.581 72.1923C229.581 72.781 229.512 72.8499 229.302 72.8855C227.219 73.3009 224.441 73.9607 221.836 74.7227C221.558 74.7915 220.726 74.585 220.621 74.2385C220.31 73.0943 219.996 71.466 219.927 70.4952C219.023 72.5745 216.801 74.7583 213.712 74.7583C210.066 74.7583 207.808 72.4368 207.808 68.6935V58.9567C207.808 58.6101 207.739 58.5413 207.392 58.4724L206.213 58.1947C206.003 58.1591 205.934 58.057 205.934 57.466C205.934 56.8749 206.039 56.6684 206.246 56.6684C209.302 56.5996 215.343 56.5308 215.586 56.5308C215.829 56.5308 216.107 56.8085 216.107 57.0506C216.107 57.6393 215.829 59.6142 215.829 63.8773V65.6789C215.829 68.9024 216.592 70.0465 218.918 70.0465C219.161 70.0465 219.508 70.0109 219.682 69.9421V58.9567C219.682 58.6101 219.613 58.5413 219.265 58.4724L218.086 58.1947C217.876 58.1591 217.807 58.057 217.807 57.466C217.807 56.8749 217.912 56.6684 218.119 56.6684C221.175 56.5996 227.217 56.5308 227.459 56.5308C227.702 56.5308 227.98 56.8085 227.98 57.0506C227.98 57.6393 227.702 59.6142 227.702 63.8773V70.704C227.702 71.0506 227.771 71.1194 228.118 71.1883L229.298 71.466C229.507 71.5016 229.576 71.6037 229.576 72.1947L229.581 72.1923Z" fill="#1C1818"/>
<path d="M230.477 73.7161C230.477 73.0919 230.546 72.9874 230.756 72.9542L231.935 72.7121C232.283 72.6432 232.352 72.5744 232.352 72.2278V63.1129C232.352 62.7663 232.283 62.7307 231.935 62.6619L230.756 62.453C230.546 62.4174 230.477 62.3486 230.477 61.7955C230.477 61.2757 230.546 61.2068 230.756 61.138C233.603 60.0295 236.692 58.2611 239.47 56.355C239.575 56.2862 239.644 56.2506 239.748 56.2506C239.991 56.2506 240.652 56.5283 240.652 56.7704C240.652 57.3591 240.374 59.7161 240.374 63.9793V72.2278C240.374 72.5744 240.443 72.6432 240.79 72.7121L241.97 72.9542C242.179 72.9898 242.248 73.0919 242.248 73.7161C242.248 74.3404 242.179 74.4449 241.97 74.4449C241.171 74.4449 238.914 74.2028 236.378 74.2028C233.843 74.2028 231.517 74.4449 230.753 74.4449C230.544 74.4449 230.475 74.3404 230.475 73.7161H230.477ZM232.839 50.7056C232.839 48.453 234.506 46.7202 236.833 46.7202C239.159 46.7202 240.826 48.453 240.826 50.7056C240.826 52.9583 239.159 54.6911 236.833 54.6911C234.506 54.6911 232.839 52.9583 232.839 50.7056Z" fill="#1C1818"/>
<path d="M265.119 71.4636C265.329 71.4992 265.397 71.6013 265.397 72.1924C265.397 72.7834 265.329 72.8499 265.119 72.8855C263.036 73.3009 260.258 73.9608 257.653 74.7227C257.375 74.7915 256.543 74.585 256.438 74.2385C256.126 73.0944 255.812 71.7437 255.743 70.8417C254.564 73.5098 252.583 74.7583 250.118 74.7583C246.508 74.7583 242.895 71.2239 242.895 65.368C242.895 59.5121 246.679 56.4619 252.409 56.4619C253.382 56.4619 254.457 56.5664 255.498 56.8441V51.7146C255.498 51.368 255.429 51.2992 255.082 51.2303L253.903 50.9526C253.693 50.917 253.624 50.8149 253.624 50.2239C253.624 49.6328 253.693 49.5664 253.903 49.5308C256.507 49.0465 260.048 48.249 262.479 47.5891C262.617 47.5535 262.791 47.5203 262.895 47.5203C263.138 47.5203 263.799 47.798 263.799 48.0401C263.799 48.6288 263.521 50.9858 263.521 55.249V70.7041C263.521 71.0506 263.59 71.1194 263.937 71.1883L265.117 71.466L265.119 71.4636ZM255.154 70.3884C255.292 70.3884 255.432 70.3528 255.57 70.2507V66.1276C255.57 63.0442 254.181 59.3009 253.034 58.1568C252.651 57.7746 252.271 57.5681 251.783 57.5681C251.053 57.5681 250.568 58.2256 250.568 59.5786C250.568 62.8353 252.442 68.1049 254.319 69.9753C254.666 70.3219 254.909 70.3907 255.151 70.3907L255.154 70.3884Z" fill="#1C1818"/>
<path d="M273.641 63.5283C274.162 65.2611 275.099 66.9251 276.072 67.8959C277.392 69.2133 278.329 69.5598 279.58 69.5598C281.005 69.5598 282.011 68.9712 282.948 68.138C283.26 67.8603 284.128 68.5202 283.99 68.8667C282.565 72.4011 278.643 74.7582 274.892 74.7582C269.719 74.7582 265.726 71.2238 265.726 65.7477C265.726 60.2716 269.928 56.4595 276.108 56.4595C281.281 56.4595 284.094 58.9542 284.094 62.2821C284.094 62.5931 284.094 62.9396 284.025 63.1841C283.99 63.3218 283.852 63.4262 283.642 63.4262C280.9 63.5639 276.94 63.6351 273.641 63.5307V63.5283ZM276.871 59.5429C276.871 58.2255 276.315 57.5324 275.344 57.5324C274.267 57.5324 273.192 58.5032 273.192 60.5826C273.192 61.2757 273.296 62.0376 273.434 62.7664L274.545 62.6287C276.143 62.4554 276.871 61.3113 276.871 59.5453V59.5429Z" fill="#1C1818"/>
<g clip-path="url(#clip0_122_1144)">
<path d="M28.2172 10.4912C28.6641 9.21367 29.7074 6.85415 31.5018 6.27836C32.1457 6.07169 34.1138 5.69925 34.8483 5.57879C34.98 5.55779 35.3694 5.49369 35.8805 5.35665C37.4006 4.94996 37.9216 4.47253 38.6783 4.23823C39.7935 3.89342 41.5569 4.03599 44.3813 6.25515C42.6477 3.77849 39.8422 2.2832 36.9459 2.2832C36.4569 2.2832 35.9668 2.3252 35.4778 2.41361C33.3571 2.79268 31.4387 3.99068 30.0769 5.78656C29.0348 7.16028 28.3975 8.78818 28.2161 10.4901L28.2172 10.4912Z" fill="#8ABB3E"/>
<path d="M38.6784 4.23821C37.9216 4.47251 37.4006 4.94883 35.8805 5.35664C35.3694 5.49368 34.9789 5.55667 34.8484 5.57877C34.1138 5.69924 32.1468 6.07057 31.5018 6.27834C29.7074 6.85523 28.6642 9.21365 28.2172 10.4912C28.1973 10.6736 28.184 10.857 28.1752 11.0416C28.8611 10.405 29.6001 9.81596 30.3822 9.28438C32.1346 8.09191 34.0529 7.21773 36.0863 6.68393C39.4096 5.81196 42.3667 6.01973 44.5218 6.46069C44.4765 6.39217 44.43 6.32365 44.3824 6.25624C41.5591 4.03708 39.7946 3.89451 38.6795 4.23932L38.6784 4.23821Z" fill="#709E0B"/>
<path d="M45.9644 6.98347C43.9344 2.96179 39.5501 0.682952 35.3041 1.4433C32.9378 1.86658 30.8026 3.19719 29.2903 5.19201C28.7128 5.95457 28.2471 6.78675 27.9019 7.66536C27.5335 6.67624 27.0069 5.63407 26.258 4.60185C24.2168 1.78701 21.5418 0.517178 20.1291 0.0110144C20.0384 -0.0210352 19.9377 0.0165402 19.8901 0.0994273L18.5957 2.39043C18.5637 2.44679 18.5614 2.51641 18.5902 2.57388C18.619 2.63246 18.6743 2.67335 18.7396 2.68219C19.8337 2.84133 22.5983 3.48564 24.6394 6.03635C26.352 8.17594 26.6308 10.4935 26.6452 11.6848C26.6463 11.7931 26.7348 11.8793 26.8421 11.8793H26.8443C26.9538 11.8782 27.0412 11.7887 27.039 11.6793C27.039 11.6682 27.039 11.6561 27.039 11.6439L27.1762 11.6174C27.1784 11.8252 27.1861 12.033 27.2016 12.2418C27.216 12.4374 27.3432 12.6054 27.528 12.6717C27.5822 12.6916 27.6386 12.7005 27.6939 12.7005C27.8278 12.7005 27.9583 12.6463 28.0524 12.5457C28.9142 11.6362 29.8844 10.8117 30.9365 10.0956C32.5948 8.96724 34.4114 8.13837 36.3352 7.63441C40.0745 6.65303 43.3248 7.1172 45.3925 7.67862C45.5805 7.72946 45.7808 7.66536 45.9047 7.51506C46.0275 7.36365 46.0507 7.15477 45.9633 6.98126L45.9644 6.98347ZM35.4778 2.41363C35.9668 2.32633 36.4569 2.28322 36.9459 2.28322C39.8411 2.28322 42.6466 3.77851 44.3813 6.25517C44.4289 6.32259 44.4753 6.39111 44.5207 6.45963C42.3656 6.01867 39.4085 5.80979 36.0852 6.68287C34.0529 7.21666 32.1335 8.09084 30.3811 9.28331C29.599 9.81489 28.86 10.4039 28.1741 11.0405C28.1829 10.856 28.1973 10.6725 28.2161 10.4901C28.3975 8.7882 29.0348 7.1603 30.0769 5.78658C31.4387 3.9907 33.356 2.7927 35.4778 2.41363Z" fill="#1C1818"/>
<path d="M46.1326 29.699H40.1862L35.8717 34.0091H42.4751C42.6101 34.0091 42.734 34.1108 42.7938 34.271C43.0637 34.9872 43.3336 35.7033 43.6036 36.4195C43.7219 36.7344 43.5494 37.1047 43.2849 37.1047H11.7677C11.5088 37.1047 11.3362 36.7499 11.4424 36.4371C11.6847 35.721 11.9281 35.0049 12.1704 34.2887C12.2279 34.1185 12.3551 34.0102 12.4956 34.0102H19.181L14.8664 29.7001H8.85036C6.38 33.3836 3.90853 37.0682 1.43817 40.7517C18.807 40.7152 36.1759 40.6776 53.5447 40.6412C51.0744 36.9941 48.6029 33.3471 46.1326 29.7001V29.699Z" fill="white"/>
<path d="M13.9493 50.4758C10.324 50.8295 7.4144 51.098 5.75275 51.2495V72.326C5.75275 72.6487 6.01494 72.9106 6.33798 72.9106H48.645C48.968 72.9106 49.2302 72.6487 49.2302 72.326V50.9179C45.3128 49.7829 42.0813 49.2845 39.9517 49.0391C33.4511 48.2887 29.308 48.9772 13.9493 50.4758Z" fill="#627CEF"/>
<path d="M54.9785 40.7505C55.0028 40.4322 54.921 40.1084 54.7362 39.8343L51.0301 34.3638L47.324 28.8932C47.0563 28.4987 46.6105 28.2622 46.1326 28.2622H41.6244L42.4209 27.4665C45.0473 24.8428 46.4279 21.7937 46.4114 18.6495C46.4036 17.2283 46.1115 15.8413 45.5418 14.5261C44.9942 13.2607 44.2154 12.1202 43.2285 11.1344C42.2417 10.1486 41.1 9.37168 39.8333 8.82352C38.5168 8.25436 37.1273 7.96149 35.7057 7.95376C35.6869 7.95376 35.6681 7.95376 35.6493 7.95376C32.7774 7.95376 29.9862 9.11528 27.528 11.3245C25.0521 9.09981 22.2421 7.93718 19.348 7.95155C17.9253 7.95928 16.5369 8.25105 15.2204 8.82131C13.9537 9.36836 12.812 10.1464 11.8252 11.1322C10.8384 12.118 10.0607 13.2596 9.51194 14.5239C8.94219 15.8391 8.64903 17.2272 8.64128 18.6473C8.62469 21.7793 9.99318 24.8152 12.5974 27.4311C12.6085 27.4433 12.6195 27.4554 12.6317 27.4676L13.4282 28.2633H8.85037C8.37024 28.2633 7.92219 28.502 7.65557 28.8999L3.94948 34.4257L0.243385 39.9504C0.0807596 40.1924 0 40.4731 0 40.7538V43.8737C0 44.5898 0.580806 45.17 1.29769 45.17H3.09763V72.3249C3.09763 74.1098 4.5513 75.562 6.33797 75.562H48.645C50.4316 75.562 51.8853 74.1098 51.8853 72.3249V45.17H54.1289C54.6002 45.17 54.9829 44.7877 54.9829 44.3169V40.7538C54.9829 40.7538 54.9807 40.7494 54.9785 40.7494V40.7505ZM10.4744 18.655C10.4811 17.4825 10.7222 16.3364 11.1935 15.2489C11.6493 14.1968 12.2976 13.2464 13.1207 12.4252C13.9438 11.603 14.8941 10.9554 15.9473 10.5C17.0359 10.0292 18.1831 9.78722 19.3569 9.78169C19.3724 9.78169 19.3867 9.78169 19.4022 9.78169C20.0937 9.78169 20.7807 9.86458 21.461 10.027C23.3683 10.4824 25.2114 11.5665 26.8775 13.2309L26.8797 13.2331C27.2381 13.5912 27.8178 13.5912 28.1763 13.2331C30.4486 10.9631 33.0495 9.77064 35.6958 9.78501C36.8695 9.79164 38.0157 10.0326 39.1043 10.5034C40.1575 10.9587 41.1089 11.6063 41.9308 12.4286C42.7539 13.2508 43.4022 14.2001 43.858 15.2522C44.3293 16.3397 44.5716 17.4858 44.5771 18.6572C44.5904 21.3019 43.3967 23.899 41.1244 26.1701L31.5084 35.7762H23.5453L13.9615 26.2022C13.9515 26.1911 13.9415 26.1801 13.9305 26.1701C13.9305 26.1701 13.9283 26.1679 13.9272 26.1668C11.6548 23.8968 10.46 21.2986 10.4744 18.6539V18.655ZM1.43819 40.7505C3.90855 37.067 6.38001 33.3824 8.85037 29.6989H14.8664L19.181 34.009H12.4956C12.3551 34.009 12.2279 34.1184 12.1704 34.2875C11.9281 35.0037 11.6847 35.7198 11.4424 36.436C11.3362 36.7487 11.5088 37.1035 11.7677 37.1035H43.2839C43.5494 37.1035 43.7208 36.7332 43.6025 36.4183C43.3325 35.7021 43.0626 34.986 42.7927 34.2698C42.7318 34.1096 42.609 34.0079 42.474 34.0079H35.8706L40.1851 29.6978H46.1315C48.6018 33.3448 51.0733 36.9919 53.5436 40.6389C36.1748 40.6754 18.8059 40.7129 1.43708 40.7494L1.43819 40.7505ZM49.2302 50.918V72.326C49.2302 72.6488 48.968 72.9107 48.645 72.9107H6.33797C6.01493 72.9107 5.75274 72.6488 5.75274 72.326V51.2495C5.75274 51.2495 5.75053 51.2495 5.74832 51.2495V45.1711H49.2302V50.918Z" fill="#1C1818"/>
<path d="M5.74832 51.2495C5.74832 51.2495 5.75053 51.2495 5.75275 51.2495C7.4133 51.0981 10.3229 50.8307 13.9493 50.4759C29.308 48.9773 33.4511 48.2888 39.9517 49.0392C42.0813 49.2846 45.3128 49.783 49.2302 50.918V45.1711H5.74832V51.2495Z" fill="#4F6FE0"/>
<path d="M16.6221 18.697C17.0469 20.7239 18.6112 20.8576 21.4035 24.6185C23.8517 27.9141 25.0222 31.0052 25.759 32.9934C26.1141 33.9527 26.4139 34.8832 26.6684 35.7773H31.5095L41.1255 26.1712C43.3978 23.9012 44.5926 21.303 44.5782 18.6583C44.5716 17.4858 44.3304 16.3397 43.8591 15.2533C43.4033 14.2012 42.755 13.2508 41.9319 12.4297C41.1089 11.6074 40.1586 10.9598 39.1054 10.5045C38.0168 10.0337 36.8695 9.79165 35.6969 9.78612C33.0506 9.77286 30.4497 10.9642 28.1774 13.2342C27.8189 13.5923 27.2392 13.5923 26.8808 13.2342L26.8786 13.232C25.2125 11.5676 23.3694 10.4835 21.4621 10.0281C16.8887 14.1405 16.2437 16.8901 16.6232 18.6981L16.6221 18.697ZM41.964 16.7818C42.3092 16.7077 42.6488 16.9266 42.7241 17.2714C42.7982 17.6162 42.5791 17.9555 42.234 18.0306C41.8888 18.1047 41.5492 17.8858 41.4739 17.541C41.3998 17.1962 41.6189 16.8569 41.964 16.7818ZM38.3818 12.2871C38.4416 12.2506 38.7082 12.0992 39.1817 12.17C40.4805 12.3667 41.3788 13.989 41.8302 15.2102C41.8501 15.2655 41.8611 15.3197 41.8611 15.3197C41.8678 15.3528 41.8733 15.3882 41.8744 15.4235C41.8943 15.7916 41.6111 16.1054 41.2427 16.1253C41.0159 16.1375 40.8467 16.0225 40.8124 15.9971C40.684 15.901 40.6365 15.7871 40.5624 15.6324C40.3997 15.2953 40.1785 14.8433 39.8112 14.5306C39.7205 14.4532 39.6397 14.4046 39.5966 14.3781C39.1186 14.0918 38.8255 14.2311 38.4759 14.0609C38.2004 13.9272 37.9238 13.6155 37.8884 13.2331C37.853 12.8397 38.0831 12.4683 38.3818 12.2871Z" fill="#F63948"/>
<path d="M13.9305 26.1713C13.9415 26.1823 13.9515 26.1923 13.9615 26.2033L23.5453 35.7773H26.6673C26.4128 34.8821 26.1141 33.9527 25.7579 32.9934C25.0211 31.0052 23.8506 27.9152 21.4024 24.6185C18.6101 20.8588 17.0469 20.7239 16.621 18.6971C16.2415 16.889 16.8876 14.1394 21.4599 10.0271C20.7807 9.86463 20.0926 9.78174 19.4011 9.78174C19.3856 9.78174 19.3712 9.78174 19.3558 9.78174C18.182 9.78837 17.0347 10.0293 15.9462 10.5001C14.893 10.9554 13.9415 11.603 13.1196 12.4253C12.2965 13.2475 11.6482 14.1969 11.1924 15.249C10.7211 16.3364 10.4788 17.4825 10.4733 18.6551C10.4589 21.2997 11.6537 23.8968 13.9261 26.168C13.9261 26.168 13.9283 26.1702 13.9294 26.1713H13.9305Z" fill="#DD283E"/>
<path d="M41.4739 17.5411C41.5481 17.8859 41.8888 18.1047 42.234 18.0307C42.5791 17.9566 42.7982 17.6162 42.7241 17.2714C42.6499 16.9266 42.3092 16.7078 41.964 16.7819C41.6189 16.8559 41.3998 17.1963 41.4739 17.5411Z" fill="white"/>
<path d="M38.4759 14.0609C38.8255 14.2311 39.1186 14.0919 39.5965 14.3781C39.6386 14.4035 39.7193 14.4521 39.8112 14.5306C40.1796 14.8445 40.4008 15.2954 40.5623 15.6325C40.6365 15.7872 40.684 15.901 40.8124 15.9972C40.8467 16.0226 41.0159 16.1375 41.2427 16.1254C41.6111 16.1055 41.8943 15.7916 41.8744 15.4236C41.8722 15.3882 41.8678 15.354 41.8611 15.3197C41.8611 15.3197 41.8501 15.2644 41.8302 15.2103C41.3799 13.9891 40.4805 12.3656 39.1817 12.17C38.7082 12.0982 38.4416 12.2507 38.3818 12.2871C38.0831 12.4684 37.853 12.8397 37.8884 13.2332C37.9227 13.6166 38.2004 13.9272 38.4759 14.0609Z" fill="white"/>
</g>
<defs>
<clipPath id="clip0_122_1144">
<rect width="55" height="76.0003" fill="white" transform="translate(0 -0.000366211)"/>
</clipPath>
</defs>
</svg>
