<svg width="299" height="79" viewBox="0 0 299 79" fill="none" xmlns="http://www.w3.org/2000/svg">
<path d="M91.4746 43.587C90.6754 43.587 87.9331 43.3449 84.3559 43.3449C81.4732 43.3449 78.0007 43.587 77.2016 43.587C76.9923 43.587 76.9233 43.4826 76.9233 42.8583C76.9233 42.234 76.9923 42.1296 77.2016 42.0964L79.423 41.8543C79.7703 41.8187 79.8393 41.7166 79.8393 41.37V20.2632C79.8393 19.9167 79.7703 19.8478 79.423 19.8478H79.2851C78.7642 19.8478 77.3752 19.9855 75.9862 20.2988C75.2917 20.4365 75.1537 20.5765 74.7708 21.2008C73.5911 23.2446 72.8966 24.4243 71.403 26.9546C71.2293 27.2324 71.1937 27.3012 70.9178 27.3012C70.3612 27.3012 69.4598 26.9546 69.4598 26.6769C69.4598 25.0486 70.9867 19.1215 71.6812 16.5579C71.7859 16.2113 72.4804 16.0024 72.9323 16.0024C73.1416 16.0024 73.2106 16.1069 73.3152 16.2802C73.6625 16.8356 74.0097 17.3887 74.357 17.8753C74.5663 18.153 74.5996 18.1862 74.8778 18.2218C76.8924 18.3595 77.7605 18.3951 79.2875 18.3951H89.391C92.307 18.3951 93.7674 18.3595 95.7795 18.2218C96.0578 18.1862 96.0911 18.153 96.3004 17.8753C96.6477 17.391 96.9949 16.8356 97.3421 16.2802C97.4468 16.1069 97.5158 16.0024 97.7251 16.0024C98.177 16.0024 98.9761 16.2113 98.9761 16.5579C98.9761 19.1215 98.8025 23.94 98.4196 26.9546C98.3839 27.2324 98.2816 27.3012 97.4825 27.3012C96.6833 27.3012 96.5787 27.2324 96.4764 26.9546C95.5393 24.251 95.2967 23.2469 94.4286 21.2008C94.1503 20.5433 93.9077 20.4389 93.2132 20.2988C91.8242 19.9879 89.9143 19.8478 89.3934 19.8478H89.2555C88.9082 19.8478 88.8392 19.9167 88.8392 20.2632V41.3677C88.8392 41.7142 88.9082 41.8187 89.2555 41.8519L91.4769 42.094C91.6862 42.1296 91.7552 42.2317 91.7552 42.856C91.7552 43.4802 91.6862 43.5847 91.4769 43.5847L91.4746 43.587Z" fill="#1C1818"/>
<path d="M123.041 42.0965C123.25 42.1321 123.319 42.2342 123.319 42.8585C123.319 43.4827 123.25 43.5872 123.041 43.5872C122.242 43.5872 119.985 43.3451 117.449 43.3451C114.914 43.3451 112.866 43.5872 112.067 43.5872C111.858 43.5872 111.789 43.4827 111.789 42.8585C111.789 42.2342 111.858 42.1653 112.067 42.0965L113.004 41.8544C113.351 41.75 113.42 41.7167 113.42 41.3702V34.5434C113.42 31.32 112.657 30.1759 110.331 30.1759C110.088 30.1759 109.741 30.2115 109.567 30.2803V41.3702C109.567 41.7167 109.636 41.7523 109.984 41.8544L110.921 42.0965C111.13 42.1653 111.199 42.2342 111.199 42.8585C111.199 43.4827 111.13 43.5872 110.921 43.5872C110.121 43.5872 108.107 43.3451 105.574 43.3451C103.041 43.3451 100.748 43.5872 99.9489 43.5872C99.7396 43.5872 99.6706 43.4827 99.6706 42.8585C99.6706 42.2342 99.7396 42.1297 99.9489 42.0965L101.129 41.8544C101.476 41.7856 101.545 41.7167 101.545 41.3702V23.52C101.545 23.1735 101.476 23.1379 101.129 23.069L99.9489 22.8602C99.7396 22.8246 99.6706 22.7557 99.6706 22.2026C99.6706 21.6828 99.7396 21.614 99.9489 21.5451C102.796 20.4366 105.888 18.6682 108.666 16.7622C108.771 16.6933 108.839 16.6577 108.944 16.6577C109.187 16.6577 109.846 16.9354 109.846 17.1776C109.846 17.7662 109.567 20.1233 109.567 24.3864V29.2026C110.609 27.3322 112.728 25.5994 115.54 25.5994C119.186 25.5994 121.443 27.7832 121.443 31.5265V41.3678C121.443 41.7143 121.512 41.7832 121.859 41.852L123.039 42.0941L123.041 42.0965Z" fill="#1C1818"/>
<path d="M131.573 32.6704C132.093 34.4032 133.031 36.0671 134.003 37.038C135.323 38.3554 136.26 38.7019 137.511 38.7019C138.936 38.7019 139.942 38.1133 140.879 37.2801C141.191 37.0024 142.059 37.6623 141.921 38.0088C140.496 41.5432 136.574 43.9003 132.824 43.9003C127.651 43.9003 123.657 40.3659 123.657 34.8898C123.657 29.4137 127.86 25.6016 134.039 25.6016C139.212 25.6016 142.026 28.0963 142.026 31.4242C142.026 31.7352 142.026 32.0817 141.957 32.3262C141.921 32.4639 141.783 32.5683 141.574 32.5683C138.832 32.706 134.871 32.7772 131.573 32.6728V32.6704ZM134.802 28.685C134.802 27.3676 134.246 26.6745 133.275 26.6745C132.198 26.6745 131.123 27.6453 131.123 29.7247C131.123 30.4178 131.228 31.1797 131.366 31.9084L132.476 31.7708C134.075 31.5975 134.802 30.4534 134.802 28.6874V28.685Z" fill="#1C1818"/>
<path d="M179.248 18.8435C179.248 19.4678 179.179 19.5366 178.97 19.6411L177.824 20.1609C176.782 20.6451 176.644 20.854 174.315 25.5326L170.774 32.6014C168.969 36.2046 166.781 40.8832 165.808 43.2403C165.634 43.6556 165.46 43.7601 164.557 43.7601C163.653 43.7601 163.479 43.6556 163.306 43.2403C162.333 40.8832 160.285 36.2046 158.549 32.6014L152.681 20.403C152.508 20.0565 152.508 20.0209 152.16 19.9188L151.083 19.6411C150.874 19.5722 150.805 19.5034 150.805 18.8791C150.805 18.2548 150.874 18.1504 151.083 18.1504C151.882 18.1504 154.139 18.3925 156.675 18.3925C158.515 18.3925 163.655 18.1504 164.452 18.1504C164.661 18.1504 164.73 18.2548 164.73 18.8791C164.73 19.5034 164.661 19.6078 164.452 19.6411L162.404 19.9188C162.057 19.9544 161.988 20.0565 162.162 20.403L168.307 33.2257L171.05 25.7058C172.786 20.8896 172.543 20.6807 171.535 20.2986L169.73 19.6411C169.52 19.5722 169.451 19.4678 169.451 18.8435C169.451 18.2192 169.52 18.1504 169.73 18.1504C170.529 18.1504 172.75 18.3925 174.591 18.3925C176.432 18.3925 178.168 18.1504 178.968 18.1504C179.177 18.1504 179.246 18.2192 179.246 18.8435H179.248Z" fill="#1C1818"/>
<path d="M178.718 42.8582C178.718 42.234 178.787 42.1295 178.996 42.0963L180.176 41.8542C180.523 41.7853 180.592 41.7165 180.592 41.3699V32.255C180.592 31.9084 180.523 31.8728 180.176 31.804L178.996 31.5951C178.787 31.5595 178.718 31.4907 178.718 30.9376C178.718 30.4177 178.787 30.3489 178.996 30.2801C181.843 29.1716 184.935 27.4032 187.713 25.4971C187.818 25.4283 187.887 25.3927 187.991 25.3927C188.234 25.3927 188.893 25.6704 188.893 25.9125C188.893 26.5012 188.615 28.8582 188.615 33.1214V41.3699C188.615 41.7165 188.683 41.7853 189.031 41.8542L190.21 42.0963C190.42 42.1319 190.489 42.234 190.489 42.8582C190.489 43.4825 190.42 43.587 190.21 43.587C189.411 43.587 187.154 43.3448 184.619 43.3448C182.083 43.3448 179.757 43.587 178.994 43.587C178.784 43.587 178.715 43.4825 178.715 42.8582H178.718ZM181.08 19.8477C181.08 17.5951 182.747 15.8623 185.073 15.8623C187.399 15.8623 189.066 17.5951 189.066 19.8477C189.066 22.1004 187.399 23.8331 185.073 23.8331C182.747 23.8331 181.08 22.1004 181.08 19.8477Z" fill="#1C1818"/>
<path d="M209.143 29.0646C209.143 32.3569 207.233 33.9853 205.601 33.9853C204.976 33.9853 204.455 33.7764 203.691 33.2565C202.859 32.6679 202.164 32.3545 201.713 32.3545C201.539 32.3545 201.33 32.3901 201.261 32.459V41.4006C201.261 41.7472 201.33 41.816 201.677 41.8516L203.898 42.0938C204.108 42.1294 204.177 42.2314 204.177 42.8557C204.177 43.48 204.108 43.5844 203.898 43.5844C203.099 43.5844 200.842 43.3423 197.265 43.3423C194.729 43.3423 192.439 43.5844 191.64 43.5844C191.431 43.5844 191.362 43.5156 191.362 42.8557C191.362 42.1958 191.431 42.127 191.64 42.0938L192.82 41.8516C193.167 41.7828 193.236 41.7472 193.236 41.4006V32.2525C193.236 31.9059 193.167 31.8703 192.82 31.8015L191.64 31.5926C191.431 31.557 191.362 31.4881 191.362 30.9351C191.362 30.4152 191.431 30.3464 191.64 30.2776C194.487 29.169 197.196 27.4695 199.974 25.4946C200.079 25.4257 200.148 25.3901 200.252 25.3901C200.495 25.3901 201.156 25.6679 201.156 25.91C201.156 26.4654 201.018 29.2711 201.018 31.5237C202.06 28.1626 204.005 25.5966 206.122 25.5966C208.239 25.5966 209.143 27.1562 209.143 29.0622V29.0646Z" fill="#1C1818"/>
<path d="M228.572 44.6267C228.572 47.919 224.857 51.3157 216.801 51.3157C210.482 51.3157 208.12 50.2072 208.12 48.2323C208.12 46.8105 209.787 46.4639 212.182 45.7376C210.273 44.8712 209.057 43.2761 209.057 40.9902C209.057 38.9797 210.931 38.4955 213.814 37.1425C211.662 36.1716 209.856 34.4056 209.856 31.7708C209.856 28.0275 213.607 25.6372 218.849 25.6372C220.065 25.6372 221.454 25.9149 222.705 26.4348C225.1 26.3303 227.324 26.2615 228.261 26.2615C228.746 26.2615 228.817 26.3303 228.817 26.7813C228.817 27.9943 228.713 28.583 228.261 28.583C227.566 28.583 226.489 28.4785 225.378 28.3741C226.108 29.2405 226.558 30.349 226.558 31.6664C226.558 35.4429 222.807 37.94 217.565 37.94C216.766 37.94 215.933 37.8356 215.098 37.5935C214.44 37.7667 214.126 38.2177 214.126 38.7376C214.126 39.4995 214.751 39.8461 217.251 39.8461H220.376C225.48 39.8461 228.572 41.6833 228.572 44.6291V44.6267ZM223.294 48.23C223.294 47.2259 222.462 46.4972 217.948 46.4972H216.038C215.205 46.4972 214.406 46.4283 213.676 46.255C213.293 46.566 213.12 47.017 213.12 47.4324C213.12 48.8875 215.167 50.0316 218.607 50.0316C221.696 50.0316 223.294 49.1652 223.294 48.23ZM216.071 28.3029C216.071 32.3239 218.224 36.7935 219.406 36.7935C220.031 36.7935 220.343 36.5514 220.343 35.2696C220.343 31.2486 218.155 26.779 217.008 26.779C216.383 26.779 216.071 27.0211 216.071 28.3029Z" fill="#1C1818"/>
<path d="M229.276 42.8582C229.276 42.234 229.345 42.1295 229.555 42.0963L230.734 41.8542C231.081 41.7853 231.15 41.7165 231.15 41.3699V32.255C231.15 31.9084 231.081 31.8728 230.734 31.804L229.555 31.5951C229.345 31.5595 229.276 31.4907 229.276 30.9376C229.276 30.4177 229.345 30.3489 229.555 30.2801C232.401 29.1716 235.493 27.4032 238.271 25.4971C238.376 25.4283 238.445 25.3927 238.55 25.3927C238.792 25.3927 239.451 25.6704 239.451 25.9125C239.451 26.5012 239.173 28.8582 239.173 33.1214V41.3699C239.173 41.7165 239.242 41.7853 239.589 41.8542L240.769 42.0963C240.978 42.1319 241.047 42.234 241.047 42.8582C241.047 43.4825 240.978 43.587 240.769 43.587C239.97 43.587 237.713 43.3448 235.177 43.3448C232.642 43.3448 230.316 43.587 229.552 43.587C229.343 43.587 229.274 43.4825 229.274 42.8582H229.276ZM231.638 19.8477C231.638 17.5951 233.305 15.8623 235.631 15.8623C237.958 15.8623 239.625 17.5951 239.625 19.8477C239.625 22.1004 237.958 23.8331 235.631 23.8331C233.305 23.8331 231.638 22.1004 231.638 19.8477Z" fill="#1C1818"/>
<path d="M265.569 42.8582C265.569 43.4824 265.5 43.5869 265.29 43.5869C264.491 43.5869 262.234 43.3448 259.699 43.3448C257.163 43.3448 255.116 43.5869 254.316 43.5869C254.107 43.5869 254.038 43.4824 254.038 42.8582C254.038 42.2339 254.107 42.165 254.316 42.0962L255.253 41.8541C255.601 41.7496 255.67 41.7164 255.67 41.3699V34.5431C255.67 31.3197 254.906 30.1756 252.58 30.1756C252.338 30.1756 251.99 30.2112 251.817 30.28V41.3699C251.817 41.7164 251.886 41.752 252.233 41.8541L253.17 42.0962C253.379 42.165 253.448 42.2339 253.448 42.8582C253.448 43.4824 253.379 43.5869 253.17 43.5869C252.371 43.5869 250.356 43.3448 247.823 43.3448C245.29 43.3448 242.997 43.5869 242.198 43.5869C241.989 43.5869 241.92 43.4824 241.92 42.8582C241.92 42.2339 241.989 42.1294 242.198 42.0962L243.378 41.8541C243.725 41.7853 243.794 41.7164 243.794 41.3699V32.2549C243.794 31.9083 243.725 31.8727 243.378 31.8039L242.198 31.595C241.989 31.5594 241.92 31.4906 241.92 30.9375C241.92 30.4177 241.989 30.3488 242.198 30.28C245.045 29.1715 247.754 27.4719 250.532 25.497C250.637 25.4282 250.706 25.3926 250.811 25.3926C251.053 25.3926 251.714 25.6703 251.714 25.9124C251.714 26.4679 251.576 27.6096 251.576 29.689C252.514 27.6452 254.737 25.5991 257.791 25.5991C261.437 25.5991 263.695 27.7829 263.695 31.5262V41.3675C263.695 41.714 263.763 41.7829 264.111 41.8517L265.29 42.0938C265.5 42.1294 265.569 42.2315 265.569 42.8558V42.8582Z" fill="#1C1818"/>
<path d="M266.389 42.8582C266.389 42.234 266.458 42.1295 266.668 42.0963L267.847 41.8542C268.195 41.7853 268.264 41.7165 268.264 41.3699V32.255C268.264 31.9084 268.195 31.8728 267.847 31.804L266.668 31.5951C266.458 31.5595 266.389 31.4907 266.389 30.9376C266.389 30.4177 266.458 30.3489 266.668 30.2801C269.515 29.1716 272.607 27.4032 275.385 25.4971C275.489 25.4283 275.558 25.3927 275.663 25.3927C275.905 25.3927 276.564 25.6704 276.564 25.9125C276.564 26.5012 276.286 28.8582 276.286 33.1214V41.3699C276.286 41.7165 276.355 41.7853 276.702 41.8542L277.882 42.0963C278.091 42.1319 278.16 42.234 278.16 42.8582C278.16 43.4825 278.091 43.587 277.882 43.587C277.083 43.587 274.826 43.3448 272.29 43.3448C269.755 43.3448 267.429 43.587 266.665 43.587C266.456 43.587 266.387 43.4825 266.387 42.8582H266.389ZM268.751 19.8477C268.751 17.5951 270.418 15.8623 272.744 15.8623C275.071 15.8623 276.738 17.5951 276.738 19.8477C276.738 22.1004 275.071 23.8331 272.744 23.8331C270.418 23.8331 268.751 22.1004 268.751 19.8477Z" fill="#1C1818"/>
<path d="M288.858 39.4971C287.748 42.2696 285.628 43.8979 283.093 43.8979C280.42 43.8979 278.579 41.7498 278.579 39.0461C278.579 36.9312 279.238 35.7182 281.045 34.7497C282.677 33.8834 285.281 33.1214 288.58 32.3927V31.2842C288.58 28.7894 287.817 27.2631 286.497 27.2631C286.149 27.2631 286.011 27.3676 285.94 27.8186L285.697 29.4825C285.35 31.9773 283.892 33.157 281.947 33.157C280.869 33.157 279.899 32.4995 279.899 31.2153C279.899 28.9983 284.204 25.6016 289.517 25.6016C294.241 25.6016 296.462 27.472 296.462 30.8355V37.2113C296.462 39.9837 297.019 40.0526 297.956 39.4283C298.061 39.3594 298.094 39.3238 298.165 39.3238C298.477 39.3238 298.998 40.0858 298.998 40.2947C298.998 40.468 298.86 40.6056 298.65 40.8145L298.512 40.9522C296.429 43.0315 294.935 43.8979 293.235 43.8979C291.187 43.8979 289.726 42.5117 288.858 39.4971ZM288.58 38.9773V36.5158C288.58 35.7538 288.268 35.1984 287.85 34.783C287.398 34.332 286.844 34.1255 286.497 34.1255C285.802 34.1255 285.49 34.5409 285.49 35.5805C285.49 37.5222 286.811 39.2194 287.957 39.2194C288.304 39.2194 288.478 39.0817 288.582 38.9773H288.58Z" fill="#1C1818"/>
<path d="M98.3506 49.7014C98.3506 50.3257 98.2816 50.3945 98.0723 50.499L96.9259 51.0188C95.8842 51.503 95.7462 51.7119 93.4177 56.3905L89.8762 63.4593C88.071 67.0626 85.8829 71.7411 84.9101 74.0982C84.7364 74.5136 84.5628 74.618 83.659 74.618C82.7552 74.618 82.5816 74.5136 82.408 74.0982C81.4352 71.7411 79.3874 67.0626 77.6511 63.4593L71.7835 51.2609C71.6099 50.9144 71.6099 50.8788 71.2626 50.7767L70.1852 50.499C69.9759 50.4301 69.9069 50.3613 69.9069 49.737C69.9069 49.1127 69.9759 49.0083 70.1852 49.0083C70.9843 49.0083 73.2415 49.2504 75.7769 49.2504C77.6178 49.2504 82.7576 49.0083 83.5544 49.0083C83.7637 49.0083 83.8326 49.1127 83.8326 49.737C83.8326 50.3613 83.7637 50.4657 83.5544 50.499L81.5065 50.7767C81.1593 50.8123 81.0903 50.9144 81.2639 51.2609L87.4098 64.0836L90.1521 56.5637C91.8884 51.7475 91.6458 51.5387 90.6373 51.1565L88.8321 50.499C88.6228 50.4301 88.5538 50.3257 88.5538 49.7014C88.5538 49.0771 88.6228 49.0083 88.8321 49.0083C89.6313 49.0083 91.8527 49.2504 93.6936 49.2504C95.5345 49.2504 97.2708 49.0083 98.0699 49.0083C98.2792 49.0083 98.3482 49.0771 98.3482 49.7014H98.3506Z" fill="#1C1818"/>
<path d="M105.681 56.457C111.722 56.457 115.889 59.8538 115.889 65.4675C115.889 71.359 111.411 74.7558 104.986 74.7558C98.9452 74.7558 94.7782 71.359 94.7782 65.7453C94.7782 59.8538 99.2568 56.457 105.681 56.457ZM105.959 72.9518C106.375 73.3672 106.689 73.4716 107.037 73.4716C107.731 73.4716 108.321 73.0206 108.321 71.1834C108.321 67.5445 106.202 59.747 104.711 58.2563C104.294 57.8409 103.98 57.7365 103.633 57.7365C102.939 57.7365 102.349 58.1875 102.349 60.0247C102.349 63.6635 104.468 71.4611 105.959 72.9518Z" fill="#1C1818"/>
<path d="M125.995 58.8142V65.6766C125.995 68.9 126.863 69.6976 128.357 69.6976C128.809 69.6976 129.051 69.4887 129.225 69.4887C129.608 69.4887 130.198 70.0441 130.057 70.3907C129.189 72.5745 126.759 74.7583 123.529 74.7583C119.883 74.7583 117.973 72.4368 117.973 68.6935V59.1988C117.973 58.8522 117.937 58.8166 117.556 58.7478L116.305 58.5745C116.063 58.5389 116.027 58.47 116.027 57.8814C116.027 57.2927 116.096 57.1526 116.305 57.1194C119.952 56.253 121.93 55.0401 124.188 52.683C124.397 52.4741 124.43 52.4053 124.987 52.4053C125.543 52.4053 125.645 52.4409 125.681 52.683C125.819 53.6871 125.924 55.2133 125.959 56.7373L129.884 56.7016C130.231 56.7016 130.369 56.8749 130.369 57.8102C130.369 58.7454 130.231 58.8498 129.884 58.8498C128.668 58.8498 127.175 58.8498 125.995 58.8142Z" fill="#1C1818"/>
<path d="M138.468 63.5283C138.989 65.2611 139.926 66.9251 140.898 67.8959C142.218 69.2133 143.156 69.5598 144.407 69.5598C145.831 69.5598 146.837 68.9712 147.774 68.138C148.086 67.8603 148.954 68.5202 148.816 68.8667C147.392 72.4011 143.469 74.7582 139.719 74.7582C134.546 74.7582 130.552 71.2238 130.552 65.7477C130.552 60.2716 134.755 56.4595 140.934 56.4595C146.107 56.4595 148.921 58.9542 148.921 62.2821C148.921 62.5931 148.921 62.9396 148.852 63.1841C148.816 63.3218 148.678 63.4262 148.469 63.4262C145.727 63.5639 141.767 63.6351 138.468 63.5307V63.5283ZM141.698 59.5429C141.698 58.2255 141.141 57.5324 140.171 57.5324C139.093 57.5324 138.018 58.5032 138.018 60.5826C138.018 61.2757 138.123 62.0376 138.261 62.7664L139.371 62.6287C140.97 62.4554 141.698 61.3113 141.698 59.5453V59.5429Z" fill="#1C1818"/>
<path d="M167.72 59.9225C167.72 63.2148 165.81 64.8432 164.179 64.8432C163.553 64.8432 163.032 64.6343 162.269 64.1144C161.436 63.5258 160.742 63.2124 160.29 63.2124C160.116 63.2124 159.907 63.248 159.838 63.3169V72.2586C159.838 72.6051 159.907 72.674 160.254 72.7096L162.476 72.9517C162.685 72.9873 162.754 73.0893 162.754 73.7136C162.754 74.3379 162.685 74.4424 162.476 74.4424C161.676 74.4424 159.419 74.2002 155.842 74.2002C153.307 74.2002 151.016 74.4424 150.217 74.4424C150.008 74.4424 149.939 74.3735 149.939 73.7136C149.939 73.0537 150.008 72.9849 150.217 72.9517L151.397 72.7096C151.744 72.6407 151.813 72.6051 151.813 72.2586V63.1104C151.813 62.7638 151.744 62.7282 151.397 62.6594L150.217 62.4505C150.008 62.4149 149.939 62.346 149.939 61.793C149.939 61.2731 150.008 61.2043 150.217 61.1355C153.064 60.027 155.773 58.3274 158.551 56.3525C158.656 56.2837 158.725 56.248 158.829 56.248C159.072 56.248 159.733 56.5258 159.733 56.7679C159.733 57.3233 159.595 60.129 159.595 62.3817C160.637 59.0205 162.583 56.4546 164.699 56.4546C166.816 56.4546 167.72 58.0141 167.72 59.9201V59.9225Z" fill="#1C1818"/>
<path d="M193.659 48.835C196.646 48.835 199.251 48.9394 201.263 49.3548C201.958 49.4925 202.027 49.5637 202.062 50.2568C202.236 52.7515 202.305 54.5199 202.305 57.0503C202.305 57.328 202.167 57.3968 201.368 57.3968C200.569 57.3968 200.464 57.328 200.362 57.0503C199.631 54.9709 198.904 53.5847 197.446 52.1296C196.195 50.8811 194.91 50.3612 192.689 50.3612C189.216 50.3612 186.3 52.6827 186.3 58.1588C186.3 64.5701 188.21 69.7329 190.641 72.1588C191.335 72.8519 192.239 73.2341 192.862 73.2341C194.251 73.2341 194.563 72.8519 194.563 71.9855V64.2568C194.563 63.9102 194.494 63.8414 194.147 63.7726L192.62 63.5304C192.41 63.4948 192.342 63.3928 192.342 62.7685C192.342 62.1442 192.41 62.0398 192.62 62.0398C193.419 62.0398 196.161 62.2819 199.044 62.2819C201.927 62.2819 204.705 62.0398 205.504 62.0398C205.713 62.0398 205.782 62.1442 205.782 62.7685C205.782 63.3928 205.713 63.4972 205.504 63.5304L203.977 63.7726C203.63 63.8414 203.561 63.9102 203.561 64.2568V71.3256C204.046 71.29 204.393 71.2212 204.533 71.2212C204.812 71.2212 204.881 71.29 204.881 71.9499C204.881 72.5054 204.845 72.5742 204.602 72.6786C201.094 74.0293 196.72 74.758 191.338 74.758C182.968 74.758 176.615 69.9418 176.615 61.9709C176.615 53.5491 184.74 48.8373 193.664 48.8373L193.659 48.835Z" fill="#1C1818"/>
<path d="M229.581 72.1923C229.581 72.781 229.512 72.8499 229.302 72.8855C227.219 73.3009 224.441 73.9607 221.836 74.7227C221.558 74.7915 220.726 74.585 220.621 74.2385C220.31 73.0943 219.996 71.466 219.927 70.4952C219.023 72.5745 216.801 74.7583 213.712 74.7583C210.066 74.7583 207.808 72.4368 207.808 68.6935V58.9567C207.808 58.6101 207.739 58.5413 207.392 58.4724L206.213 58.1947C206.003 58.1591 205.934 58.057 205.934 57.466C205.934 56.8749 206.039 56.6684 206.246 56.6684C209.302 56.5996 215.343 56.5308 215.586 56.5308C215.829 56.5308 216.107 56.8085 216.107 57.0506C216.107 57.6393 215.829 59.6142 215.829 63.8773V65.6789C215.829 68.9024 216.592 70.0465 218.918 70.0465C219.161 70.0465 219.508 70.0109 219.682 69.9421V58.9567C219.682 58.6101 219.613 58.5413 219.265 58.4724L218.086 58.1947C217.876 58.1591 217.807 58.057 217.807 57.466C217.807 56.8749 217.912 56.6684 218.119 56.6684C221.175 56.5996 227.216 56.5308 227.459 56.5308C227.702 56.5308 227.98 56.8085 227.98 57.0506C227.98 57.6393 227.702 59.6142 227.702 63.8773V70.704C227.702 71.0506 227.771 71.1194 228.118 71.1883L229.298 71.466C229.507 71.5016 229.576 71.6037 229.576 72.1947L229.581 72.1923Z" fill="#1C1818"/>
<path d="M230.477 73.7161C230.477 73.0919 230.546 72.9874 230.756 72.9542L231.935 72.7121C232.283 72.6432 232.352 72.5744 232.352 72.2278V63.1129C232.352 62.7663 232.283 62.7307 231.935 62.6619L230.756 62.453C230.546 62.4174 230.477 62.3486 230.477 61.7955C230.477 61.2757 230.546 61.2068 230.756 61.138C233.603 60.0295 236.692 58.2611 239.47 56.355C239.575 56.2862 239.644 56.2506 239.748 56.2506C239.991 56.2506 240.652 56.5283 240.652 56.7704C240.652 57.3591 240.374 59.7161 240.374 63.9793V72.2278C240.374 72.5744 240.443 72.6432 240.79 72.7121L241.97 72.9542C242.179 72.9898 242.248 73.0919 242.248 73.7161C242.248 74.3404 242.179 74.4449 241.97 74.4449C241.171 74.4449 238.914 74.2028 236.378 74.2028C233.843 74.2028 231.517 74.4449 230.753 74.4449C230.544 74.4449 230.475 74.3404 230.475 73.7161H230.477ZM232.839 50.7056C232.839 48.453 234.506 46.7202 236.833 46.7202C239.159 46.7202 240.826 48.453 240.826 50.7056C240.826 52.9583 239.159 54.6911 236.833 54.6911C234.506 54.6911 232.839 52.9583 232.839 50.7056Z" fill="#1C1818"/>
<path d="M265.119 71.4634C265.329 71.499 265.397 71.6011 265.397 72.1921C265.397 72.7832 265.329 72.8496 265.119 72.8852C263.036 73.3006 260.258 73.9605 257.653 74.7225C257.375 74.7913 256.543 74.5848 256.438 74.2382C256.126 73.0941 255.812 71.7435 255.743 70.8415C254.564 73.5095 252.583 74.7581 250.118 74.7581C246.508 74.7581 242.895 71.2236 242.895 65.3678C242.895 59.5119 246.679 56.4617 252.409 56.4617C253.382 56.4617 254.457 56.5661 255.498 56.8439V51.7143C255.498 51.3678 255.429 51.2989 255.082 51.2301L253.903 50.9524C253.693 50.9168 253.624 50.8147 253.624 50.2236C253.624 49.6326 253.693 49.5661 253.903 49.5305C256.507 49.0463 260.048 48.2487 262.479 47.5889C262.617 47.5533 262.791 47.52 262.895 47.52C263.138 47.52 263.799 47.7977 263.799 48.0399C263.799 48.6285 263.521 50.9856 263.521 55.2487V70.7038C263.521 71.0504 263.59 71.1192 263.937 71.188L265.117 71.4658L265.119 71.4634ZM255.154 70.3881C255.292 70.3881 255.432 70.3525 255.57 70.2504V66.1273C255.57 63.0439 254.181 59.3006 253.034 58.1565C252.651 57.7743 252.271 57.5678 251.783 57.5678C251.053 57.5678 250.568 58.2253 250.568 59.5783C250.568 62.835 252.442 68.1046 254.319 69.9751C254.666 70.3216 254.909 70.3905 255.151 70.3905L255.154 70.3881Z" fill="#1C1818"/>
<path d="M273.641 63.5283C274.162 65.2611 275.099 66.9251 276.072 67.8959C277.392 69.2133 278.329 69.5598 279.58 69.5598C281.005 69.5598 282.011 68.9712 282.948 68.138C283.26 67.8603 284.128 68.5202 283.99 68.8667C282.565 72.4011 278.643 74.7582 274.892 74.7582C269.719 74.7582 265.726 71.2238 265.726 65.7477C265.726 60.2716 269.928 56.4595 276.108 56.4595C281.281 56.4595 284.094 58.9542 284.094 62.2821C284.094 62.5931 284.094 62.9396 284.025 63.1841C283.99 63.3218 283.852 63.4262 283.642 63.4262C280.9 63.5639 276.94 63.6351 273.641 63.5307V63.5283ZM276.871 59.5429C276.871 58.2255 276.315 57.5324 275.344 57.5324C274.267 57.5324 273.192 58.5032 273.192 60.5826C273.192 61.2757 273.296 62.0376 273.434 62.7664L274.545 62.6287C276.143 62.4554 276.871 61.3113 276.871 59.5453V59.5429Z" fill="#1C1818"/>
<g clip-path="url(#clip0_122_1144)">
<path d="M28.2172 10.4912C28.6641 9.21367 29.7074 6.85415 31.5018 6.27836C32.1456 6.07169 34.1137 5.69925 34.8483 5.57879C34.98 5.55779 35.3694 5.49369 35.8805 5.35665C37.4005 4.94996 37.9216 4.47253 38.6783 4.23823C39.7935 3.89342 41.5569 4.03599 44.3813 6.25515C42.6477 3.77849 39.8421 2.2832 36.9458 2.2832C36.4569 2.2832 35.9668 2.3252 35.4778 2.41361C33.357 2.79268 31.4387 3.99068 30.0769 5.78656C29.0347 7.16028 28.3975 8.78818 28.2161 10.4901L28.2172 10.4912Z" fill="#8ABB3E"/>
<path d="M38.6784 4.23797C37.9216 4.47226 37.4006 4.94859 35.8805 5.35639C35.3694 5.49343 34.9789 5.55643 34.8484 5.57853C34.1138 5.69899 32.1468 6.07033 31.5018 6.2781C29.7074 6.85499 28.6642 9.2134 28.2172 10.491C28.1973 10.6733 28.184 10.8568 28.1752 11.0413C28.8611 10.4048 29.6001 9.81572 30.3822 9.28413C32.1346 8.09167 34.0529 7.21748 36.0863 6.68369C39.4096 5.81172 42.3667 6.01949 44.5218 6.46045C44.4765 6.39193 44.43 6.32341 44.3824 6.25599C41.5591 4.03683 39.7946 3.89427 38.6795 4.23908L38.6784 4.23797Z" fill="#709E0B"/>
<path d="M45.9644 6.98335C43.9344 2.96167 39.5501 0.68283 35.3041 1.44318C32.9378 1.86646 30.8026 3.19707 29.2903 5.19189C28.7128 5.95445 28.2471 6.78663 27.9019 7.66524C27.5335 6.67612 27.0069 5.63395 26.258 4.60173C24.2168 1.78689 21.5418 0.517056 20.1291 0.0108924C20.0384 -0.0211573 19.9377 0.0164182 19.8901 0.0993052L18.5957 2.3903C18.5637 2.44667 18.5614 2.51629 18.5902 2.57376C18.619 2.63233 18.6743 2.67322 18.7396 2.68207C19.8337 2.84121 22.5983 3.48552 24.6394 6.03623C26.352 8.17582 26.6308 10.4933 26.6452 11.6847C26.6463 11.793 26.7348 11.8792 26.8421 11.8792H26.8443C26.9538 11.8781 27.0412 11.7886 27.039 11.6792C27.039 11.6681 27.039 11.656 27.039 11.6438L27.1762 11.6173C27.1784 11.8251 27.1861 12.0328 27.2016 12.2417C27.216 12.4373 27.3432 12.6053 27.528 12.6716C27.5822 12.6915 27.6386 12.7003 27.6939 12.7003C27.8278 12.7003 27.9583 12.6462 28.0524 12.5456C28.9142 11.6361 29.8844 10.8116 30.9365 10.0955C32.5948 8.96711 34.4114 8.13824 36.3352 7.63429C40.0745 6.65291 43.3248 7.11708 45.3925 7.6785C45.5805 7.72933 45.7808 7.66523 45.9047 7.51493C46.0275 7.36353 46.0507 7.15465 45.9633 6.98114L45.9644 6.98335ZM35.4778 2.41351C35.9668 2.3262 36.4569 2.2831 36.9459 2.2831C39.8411 2.2831 42.6466 3.77839 44.3813 6.25505C44.4289 6.32246 44.4753 6.39099 44.5207 6.45951C42.3656 6.01855 39.4085 5.80967 36.0852 6.68275C34.0529 7.21654 32.1335 8.09072 30.3811 9.28319C29.599 9.81477 28.86 10.4038 28.1741 11.0404C28.1829 10.8558 28.1973 10.6724 28.2161 10.49C28.3975 8.78808 29.0348 7.16018 30.0769 5.78646C31.4387 3.99058 33.356 2.79258 35.4778 2.41351Z" fill="#1C1818"/>
<path d="M46.1326 29.6987H40.1862L35.8717 34.0089H42.4751C42.6101 34.0089 42.734 34.1105 42.7938 34.2708C43.0637 34.9869 43.3336 35.7031 43.6036 36.4192C43.7219 36.7342 43.5494 37.1044 43.2849 37.1044H11.7677C11.5088 37.1044 11.3362 36.7497 11.4424 36.4369C11.6847 35.7208 11.9281 35.0046 12.1704 34.2885C12.2279 34.1183 12.3551 34.01 12.4956 34.01H19.181L14.8664 29.6998H8.85036C6.38 33.3833 3.90853 37.0679 1.43817 40.7514C18.807 40.715 36.1759 40.6774 53.5447 40.6409C51.0744 36.9939 48.6029 33.3469 46.1326 29.6998V29.6987Z" fill="white"/>
<path d="M13.9493 50.4758C10.324 50.8295 7.4144 51.098 5.75275 51.2495V72.326C5.75275 72.6487 6.01494 72.9106 6.33798 72.9106H48.645C48.968 72.9106 49.2302 72.6487 49.2302 72.326V50.9179C45.3128 49.7829 42.0813 49.2845 39.9517 49.0391C33.4511 48.2887 29.308 48.9772 13.9493 50.4758Z" fill="#627CEF"/>
<path d="M54.9785 40.7503C55.0028 40.432 54.921 40.1082 54.7362 39.8341L51.0301 34.3635L47.324 28.893C47.0563 28.4984 46.6105 28.2619 46.1326 28.2619H41.6244L42.4209 27.4662C45.0473 24.8426 46.4279 21.7934 46.4114 18.6493C46.4036 17.228 46.1115 15.841 45.5418 14.5259C44.9942 13.2605 44.2154 12.12 43.2285 11.1342C42.2417 10.1484 41.1 9.37143 39.8333 8.82327C38.5168 8.25412 37.1273 7.96125 35.7057 7.95351C35.6869 7.95351 35.6681 7.95351 35.6493 7.95351C32.7774 7.95351 29.9862 9.11504 27.528 11.3243C25.0521 9.09957 22.2421 7.93694 19.348 7.9513C17.9253 7.95904 16.5369 8.2508 15.2204 8.82107C13.9537 9.36812 12.812 10.1462 11.8252 11.132C10.8384 12.1178 10.0607 13.2594 9.51194 14.5237C8.94219 15.8388 8.64903 17.2269 8.64128 18.647C8.62469 21.7791 9.99318 24.8149 12.5974 27.4309C12.6085 27.443 12.6195 27.4552 12.6317 27.4673L13.4282 28.263H8.85037C8.37024 28.263 7.92219 28.5018 7.65557 28.8996L3.94948 34.4254L0.243385 39.9501C0.0807596 40.1922 0 40.4729 0 40.7536V43.8734C0 44.5896 0.580806 45.1698 1.29769 45.1698H3.09763V72.3247C3.09763 74.1095 4.5513 75.5617 6.33797 75.5617H48.645C50.4316 75.5617 51.8853 74.1095 51.8853 72.3247V45.1698H54.1289C54.6002 45.1698 54.9829 44.7874 54.9829 44.3166V40.7536C54.9829 40.7536 54.9807 40.7492 54.9785 40.7492V40.7503ZM10.4744 18.6548C10.4811 17.4822 10.7222 16.3362 11.1935 15.2487C11.6493 14.1966 12.2976 13.2461 13.1207 12.425C13.9438 11.6028 14.8941 10.9551 15.9473 10.4998C17.0359 10.029 18.1831 9.78698 19.3569 9.78145C19.3724 9.78145 19.3867 9.78145 19.4022 9.78145C20.0937 9.78145 20.7807 9.86434 21.461 10.0268C23.3683 10.4821 25.2114 11.5663 26.8775 13.2307L26.8797 13.2329C27.2381 13.5909 27.8178 13.5909 28.1763 13.2329C30.4486 10.9629 33.0495 9.7704 35.6958 9.78477C36.8695 9.7914 38.0157 10.0323 39.1043 10.5031C40.1575 10.9584 41.1089 11.6061 41.9308 12.4283C42.7539 13.2505 43.4022 14.1999 43.858 15.252C44.3293 16.3395 44.5716 17.4855 44.5771 18.657C44.5904 21.3016 43.3967 23.8988 41.1244 26.1699L31.5084 35.7759H23.5453L13.9615 26.2019C13.9515 26.1909 13.9415 26.1798 13.9305 26.1699C13.9305 26.1699 13.9283 26.1677 13.9272 26.1666C11.6548 23.8966 10.46 21.2983 10.4744 18.6537V18.6548ZM1.43819 40.7503C3.90855 37.0668 6.38001 33.3822 8.85037 29.6987H14.8664L19.181 34.0088H12.4956C12.3551 34.0088 12.2279 34.1182 12.1704 34.2873C11.9281 35.0034 11.6847 35.7196 11.4424 36.4357C11.3362 36.7485 11.5088 37.1032 11.7677 37.1032H43.2839C43.5494 37.1032 43.7208 36.733 43.6025 36.418C43.3325 35.7019 43.0626 34.9857 42.7927 34.2696C42.7318 34.1093 42.609 34.0077 42.474 34.0077H35.8706L40.1851 29.6975H46.1315C48.6018 33.3446 51.0733 36.9916 53.5436 40.6386C36.1748 40.6751 18.8059 40.7127 1.43708 40.7492L1.43819 40.7503ZM49.2302 50.9177V72.3258C49.2302 72.6485 48.968 72.9104 48.645 72.9104H6.33797C6.01493 72.9104 5.75274 72.6485 5.75274 72.3258V51.2493C5.75274 51.2493 5.75053 51.2493 5.74832 51.2493V45.1709H49.2302V50.9177Z" fill="#1C1818"/>
<path d="M5.74829 51.2493C5.74829 51.2493 5.7505 51.2493 5.75272 51.2493C7.41327 51.0979 10.3228 50.8304 13.9493 50.4757C29.308 48.9771 33.4511 48.2886 39.9517 49.039C42.0813 49.2843 45.3128 49.7827 49.2302 50.9177V45.1709H5.74829V51.2493Z" fill="#4F6FE0"/>
<path d="M16.6221 18.6972C17.0469 20.724 18.6112 20.8577 21.4035 24.6186C23.8517 27.9142 25.0222 31.0053 25.759 32.9935C26.1141 33.9528 26.4139 34.8833 26.6684 35.7774H31.5095L41.1255 26.1714C43.3978 23.9014 44.5926 21.3031 44.5782 18.6585C44.5716 17.4859 44.3304 16.3398 43.8591 15.2535C43.4033 14.2014 42.755 13.2509 41.9319 12.4298C41.1089 11.6075 40.1586 10.9599 39.1054 10.5046C38.0168 10.0338 36.8695 9.79177 35.6969 9.78624C33.0506 9.77298 30.4497 10.9643 28.1774 13.2343C27.8189 13.5924 27.2392 13.5924 26.8808 13.2343L26.8786 13.2321C25.2125 11.5678 23.3694 10.4836 21.4621 10.0283C16.8887 14.1406 16.2437 16.8902 16.6232 18.6983L16.6221 18.6972ZM41.964 16.7819C42.3092 16.7079 42.6488 16.9267 42.7241 17.2715C42.7982 17.6163 42.5791 17.9556 42.234 18.0307C41.8888 18.1048 41.5492 17.886 41.4739 17.5412C41.3998 17.1963 41.6189 16.8571 41.964 16.7819ZM38.3818 12.2872C38.4416 12.2508 38.7082 12.0993 39.1817 12.1701C40.4805 12.3668 41.3788 13.9892 41.8302 15.2104C41.8501 15.2656 41.8611 15.3198 41.8611 15.3198C41.8678 15.3529 41.8733 15.3883 41.8744 15.4237C41.8943 15.7917 41.6111 16.1056 41.2427 16.1254C41.0159 16.1376 40.8467 16.0227 40.8124 15.9972C40.684 15.9011 40.6365 15.7873 40.5624 15.6325C40.3997 15.2955 40.1785 14.8435 39.8112 14.5307C39.7205 14.4533 39.6397 14.4047 39.5966 14.3782C39.1186 14.0919 38.8255 14.2312 38.4759 14.061C38.2004 13.9273 37.9238 13.6156 37.8884 13.2332C37.853 12.8398 38.0831 12.4685 38.3818 12.2872Z" fill="#F63948"/>
<path d="M13.9305 26.1713C13.9416 26.1823 13.9515 26.1923 13.9615 26.2033L23.5453 35.7773H26.6673C26.4129 34.8821 26.1142 33.9527 25.7579 32.9934C25.0211 31.0052 23.8507 27.9152 21.4024 24.6185C18.6101 20.8588 17.0469 20.7239 16.621 18.6971C16.2416 16.889 16.8876 14.1394 21.46 10.0271C20.7807 9.86463 20.0926 9.78174 19.4011 9.78174C19.3857 9.78174 19.3713 9.78174 19.3558 9.78174C18.182 9.78837 17.0348 10.0293 15.9462 10.5001C14.893 10.9554 13.9416 11.603 13.1196 12.4253C12.2965 13.2475 11.6482 14.1969 11.1924 15.249C10.7211 16.3364 10.4789 17.4825 10.4733 18.6551C10.459 21.2997 11.6538 23.8968 13.9261 26.168C13.9261 26.168 13.9283 26.1702 13.9294 26.1713H13.9305Z" fill="#DD283E"/>
<path d="M41.4739 17.5407C41.5481 17.8855 41.8888 18.1044 42.234 18.0303C42.5791 17.9563 42.7982 17.6159 42.7241 17.2711C42.6499 16.9263 42.3092 16.7074 41.964 16.7815C41.6189 16.8555 41.3998 17.1959 41.4739 17.5407Z" fill="white"/>
<path d="M38.4759 14.0608C38.8255 14.231 39.1186 14.0917 39.5965 14.378C39.6386 14.4034 39.7193 14.452 39.8112 14.5305C40.1796 14.8444 40.4008 15.2953 40.5623 15.6323C40.6365 15.7871 40.684 15.9009 40.8124 15.997C40.8467 16.0225 41.0159 16.1374 41.2427 16.1252C41.6111 16.1053 41.8943 15.7915 41.8744 15.4235C41.8722 15.3881 41.8678 15.3538 41.8611 15.3196C41.8611 15.3196 41.8501 15.2643 41.8302 15.2102C41.3799 13.989 40.4805 12.3655 39.1817 12.1699C38.7082 12.098 38.4416 12.2505 38.3818 12.287C38.0831 12.4683 37.853 12.8396 37.8884 13.233C37.9227 13.6165 38.2004 13.9271 38.4759 14.0608Z" fill="white"/>
</g>
<defs>
<clipPath id="clip0_122_1144">
<rect width="55" height="76.0003" fill="white" transform="translate(0 -0.000488281)"/>
</clipPath>
</defs>
</svg>
