<svg width="299" height="79" viewBox="0 0 299 79" fill="none" xmlns="http://www.w3.org/2000/svg">
<path d="M91.4746 43.5866C90.6754 43.5866 87.9331 43.3444 84.3559 43.3444C81.4732 43.3444 78.0007 43.5866 77.2016 43.5866C76.9923 43.5866 76.9233 43.4821 76.9233 42.8578C76.9233 42.2336 76.9923 42.1291 77.2016 42.0959L79.423 41.8538C79.7703 41.8182 79.8393 41.7161 79.8393 41.3695V20.2627C79.8393 19.9162 79.7703 19.8473 79.423 19.8473H79.2851C78.7642 19.8473 77.3752 19.985 75.9862 20.2983C75.2917 20.436 75.1537 20.576 74.7708 21.2003C73.5911 23.2441 72.8966 24.4238 71.403 26.9541C71.2293 27.2319 71.1937 27.3007 70.9178 27.3007C70.3612 27.3007 69.4598 26.9541 69.4598 26.6764C69.4598 25.0481 70.9867 19.121 71.6812 16.5574C71.7859 16.2108 72.4804 16.002 72.9323 16.002C73.1416 16.002 73.2106 16.1064 73.3152 16.2797C73.6625 16.8351 74.0097 17.3882 74.357 17.8748C74.5663 18.1525 74.5996 18.1857 74.8778 18.2213C76.8924 18.359 77.7605 18.3946 79.2875 18.3946H89.391C92.307 18.3946 93.7674 18.359 95.7795 18.2213C96.0578 18.1857 96.0911 18.1525 96.3004 17.8748C96.6477 17.3906 96.9949 16.8351 97.3421 16.2797C97.4468 16.1064 97.5158 16.002 97.7251 16.002C98.177 16.002 98.9761 16.2108 98.9761 16.5574C98.9761 19.121 98.8025 23.9396 98.4196 26.9541C98.3839 27.2319 98.2816 27.3007 97.4825 27.3007C96.6833 27.3007 96.5787 27.2319 96.4764 26.9541C95.5393 24.2505 95.2967 23.2464 94.4286 21.2003C94.1503 20.5428 93.9077 20.4384 93.2132 20.2983C91.8242 19.9874 89.9143 19.8473 89.3934 19.8473H89.2555C88.9082 19.8473 88.8392 19.9162 88.8392 20.2627V41.3672C88.8392 41.7137 88.9082 41.8182 89.2555 41.8514L91.4769 42.0935C91.6862 42.1291 91.7552 42.2312 91.7552 42.8555C91.7552 43.4797 91.6862 43.5842 91.4769 43.5842L91.4746 43.5866Z" fill="#1C1818"/>
<path d="M123.041 42.096C123.25 42.1316 123.319 42.2337 123.319 42.858C123.319 43.4823 123.25 43.5867 123.041 43.5867C122.242 43.5867 119.985 43.3446 117.449 43.3446C114.914 43.3446 112.866 43.5867 112.067 43.5867C111.858 43.5867 111.789 43.4823 111.789 42.858C111.789 42.2337 111.858 42.1649 112.067 42.096L113.004 41.8539C113.351 41.7495 113.42 41.7162 113.42 41.3697V34.543C113.42 31.3195 112.657 30.1754 110.331 30.1754C110.088 30.1754 109.741 30.211 109.567 30.2798V41.3697C109.567 41.7162 109.636 41.7518 109.984 41.8539L110.921 42.096C111.13 42.1649 111.199 42.2337 111.199 42.858C111.199 43.4823 111.13 43.5867 110.921 43.5867C110.121 43.5867 108.107 43.3446 105.574 43.3446C103.041 43.3446 100.748 43.5867 99.9489 43.5867C99.7396 43.5867 99.6706 43.4823 99.6706 42.858C99.6706 42.2337 99.7396 42.1292 99.9489 42.096L101.129 41.8539C101.476 41.7851 101.545 41.7162 101.545 41.3697V23.5196C101.545 23.173 101.476 23.1374 101.129 23.0686L99.9489 22.8597C99.7396 22.8241 99.6706 22.7552 99.6706 22.2022C99.6706 21.6823 99.7396 21.6135 99.9489 21.5446C102.796 20.4361 105.888 18.6677 108.666 16.7617C108.771 16.6928 108.839 16.6572 108.944 16.6572C109.187 16.6572 109.846 16.9349 109.846 17.1771C109.846 17.7657 109.567 20.1228 109.567 24.3859V29.2022C110.609 27.3317 112.728 25.5989 115.54 25.5989C119.186 25.5989 121.443 27.7827 121.443 31.526V41.3673C121.443 41.7139 121.512 41.7827 121.859 41.8515L123.039 42.0936L123.041 42.096Z" fill="#1C1818"/>
<path d="M131.573 32.6704C132.093 34.4032 133.031 36.0671 134.003 37.038C135.323 38.3554 136.26 38.7019 137.511 38.7019C138.936 38.7019 139.942 38.1133 140.879 37.2801C141.191 37.0024 142.059 37.6623 141.921 38.0088C140.496 41.5432 136.574 43.9003 132.824 43.9003C127.651 43.9003 123.657 40.3659 123.657 34.8898C123.657 29.4137 127.86 25.6016 134.039 25.6016C139.212 25.6016 142.026 28.0963 142.026 31.4242C142.026 31.7352 142.026 32.0817 141.957 32.3262C141.921 32.4639 141.783 32.5683 141.574 32.5683C138.832 32.706 134.871 32.7772 131.573 32.6728V32.6704ZM134.802 28.685C134.802 27.3676 134.246 26.6745 133.275 26.6745C132.198 26.6745 131.123 27.6453 131.123 29.7247C131.123 30.4178 131.228 31.1797 131.366 31.9084L132.476 31.7708C134.075 31.5975 134.802 30.4534 134.802 28.6874V28.685Z" fill="#1C1818"/>
<path d="M179.248 18.8435C179.248 19.4678 179.179 19.5366 178.97 19.6411L177.824 20.1609C176.782 20.6451 176.644 20.854 174.315 25.5326L170.774 32.6014C168.969 36.2046 166.781 40.8832 165.808 43.2403C165.634 43.6556 165.46 43.7601 164.557 43.7601C163.653 43.7601 163.479 43.6556 163.306 43.2403C162.333 40.8832 160.285 36.2046 158.549 32.6014L152.681 20.403C152.508 20.0565 152.508 20.0209 152.16 19.9188L151.083 19.6411C150.874 19.5722 150.805 19.5034 150.805 18.8791C150.805 18.2548 150.874 18.1504 151.083 18.1504C151.882 18.1504 154.139 18.3925 156.675 18.3925C158.515 18.3925 163.655 18.1504 164.452 18.1504C164.661 18.1504 164.73 18.2548 164.73 18.8791C164.73 19.5034 164.661 19.6078 164.452 19.6411L162.404 19.9188C162.057 19.9544 161.988 20.0565 162.162 20.403L168.307 33.2257L171.05 25.7058C172.786 20.8896 172.543 20.6807 171.535 20.2986L169.73 19.6411C169.52 19.5722 169.451 19.4678 169.451 18.8435C169.451 18.2192 169.52 18.1504 169.73 18.1504C170.529 18.1504 172.75 18.3925 174.591 18.3925C176.432 18.3925 178.168 18.1504 178.968 18.1504C179.177 18.1504 179.246 18.2192 179.246 18.8435H179.248Z" fill="#1C1818"/>
<path d="M178.718 42.8582C178.718 42.234 178.787 42.1295 178.996 42.0963L180.176 41.8542C180.523 41.7853 180.592 41.7165 180.592 41.3699V32.255C180.592 31.9084 180.523 31.8728 180.176 31.804L178.996 31.5951C178.787 31.5595 178.718 31.4907 178.718 30.9376C178.718 30.4177 178.787 30.3489 178.996 30.2801C181.843 29.1716 184.935 27.4032 187.713 25.4971C187.818 25.4283 187.887 25.3927 187.991 25.3927C188.234 25.3927 188.893 25.6704 188.893 25.9125C188.893 26.5012 188.615 28.8582 188.615 33.1214V41.3699C188.615 41.7165 188.683 41.7853 189.031 41.8542L190.21 42.0963C190.42 42.1319 190.489 42.234 190.489 42.8582C190.489 43.4825 190.42 43.587 190.21 43.587C189.411 43.587 187.154 43.3448 184.619 43.3448C182.083 43.3448 179.757 43.587 178.994 43.587C178.784 43.587 178.715 43.4825 178.715 42.8582H178.718ZM181.08 19.8477C181.08 17.5951 182.747 15.8623 185.073 15.8623C187.399 15.8623 189.066 17.5951 189.066 19.8477C189.066 22.1004 187.399 23.8331 185.073 23.8331C182.747 23.8331 181.08 22.1004 181.08 19.8477Z" fill="#1C1818"/>
<path d="M209.143 29.0651C209.143 32.3574 207.233 33.9857 205.601 33.9857C204.976 33.9857 204.455 33.7769 203.691 33.257C202.859 32.6683 202.164 32.355 201.713 32.355C201.539 32.355 201.33 32.3906 201.261 32.4595V41.4011C201.261 41.7477 201.33 41.8165 201.677 41.8521L203.898 42.0943C204.108 42.1299 204.177 42.2319 204.177 42.8562C204.177 43.4805 204.108 43.5849 203.898 43.5849C203.099 43.5849 200.842 43.3428 197.265 43.3428C194.729 43.3428 192.439 43.5849 191.64 43.5849C191.431 43.5849 191.362 43.5161 191.362 42.8562C191.362 42.1963 191.431 42.1275 191.64 42.0943L192.82 41.8521C193.167 41.7833 193.236 41.7477 193.236 41.4011V32.253C193.236 31.9064 193.167 31.8708 192.82 31.8019L191.64 31.5931C191.431 31.5575 191.362 31.4886 191.362 30.9356C191.362 30.4157 191.431 30.3469 191.64 30.278C194.487 29.1695 197.196 27.47 199.974 25.4951C200.079 25.4262 200.148 25.3906 200.252 25.3906C200.495 25.3906 201.156 25.6683 201.156 25.9105C201.156 26.4659 201.018 29.2716 201.018 31.5242C202.06 28.1631 204.005 25.5971 206.122 25.5971C208.239 25.5971 209.143 27.1566 209.143 29.0627V29.0651Z" fill="#1C1818"/>
<path d="M228.572 44.6262C228.572 47.9185 224.857 51.3153 216.801 51.3153C210.482 51.3153 208.12 50.2067 208.12 48.2318C208.12 46.81 209.787 46.4634 212.182 45.7371C210.273 44.8707 209.057 43.2756 209.057 40.9897C209.057 38.9792 210.931 38.495 213.814 37.142C211.662 36.1711 209.856 34.4051 209.856 31.7703C209.856 28.027 213.607 25.6367 218.849 25.6367C220.065 25.6367 221.454 25.9144 222.705 26.4343C225.1 26.3298 227.324 26.261 228.261 26.261C228.746 26.261 228.817 26.3298 228.817 26.7808C228.817 27.9938 228.713 28.5825 228.261 28.5825C227.566 28.5825 226.489 28.478 225.378 28.3736C226.108 29.24 226.558 30.3485 226.558 31.6659C226.558 35.4424 222.807 37.9395 217.565 37.9395C216.766 37.9395 215.933 37.8351 215.098 37.593C214.44 37.7663 214.126 38.2173 214.126 38.7371C214.126 39.499 214.751 39.8456 217.251 39.8456H220.376C225.48 39.8456 228.572 41.6828 228.572 44.6286V44.6262ZM223.294 48.2295C223.294 47.2254 222.462 46.4967 217.948 46.4967H216.038C215.205 46.4967 214.406 46.4278 213.676 46.2546C213.293 46.5655 213.12 47.0165 213.12 47.4319C213.12 48.887 215.167 50.0311 218.607 50.0311C221.696 50.0311 223.294 49.1647 223.294 48.2295ZM216.071 28.3024C216.071 32.3234 218.224 36.793 219.406 36.793C220.031 36.793 220.343 36.5509 220.343 35.2691C220.343 31.2481 218.155 26.7785 217.008 26.7785C216.383 26.7785 216.071 27.0206 216.071 28.3024Z" fill="#1C1818"/>
<path d="M229.276 42.8582C229.276 42.234 229.345 42.1295 229.555 42.0963L230.734 41.8542C231.081 41.7853 231.15 41.7165 231.15 41.3699V32.255C231.15 31.9084 231.081 31.8728 230.734 31.804L229.555 31.5951C229.345 31.5595 229.276 31.4907 229.276 30.9376C229.276 30.4177 229.345 30.3489 229.555 30.2801C232.401 29.1716 235.493 27.4032 238.271 25.4971C238.376 25.4283 238.445 25.3927 238.55 25.3927C238.792 25.3927 239.451 25.6704 239.451 25.9125C239.451 26.5012 239.173 28.8582 239.173 33.1214V41.3699C239.173 41.7165 239.242 41.7853 239.589 41.8542L240.769 42.0963C240.978 42.1319 241.047 42.234 241.047 42.8582C241.047 43.4825 240.978 43.587 240.769 43.587C239.97 43.587 237.713 43.3448 235.177 43.3448C232.642 43.3448 230.316 43.587 229.552 43.587C229.343 43.587 229.274 43.4825 229.274 42.8582H229.276ZM231.638 19.8477C231.638 17.5951 233.305 15.8623 235.631 15.8623C237.958 15.8623 239.625 17.5951 239.625 19.8477C239.625 22.1004 237.958 23.8331 235.631 23.8331C233.305 23.8331 231.638 22.1004 231.638 19.8477Z" fill="#1C1818"/>
<path d="M265.569 42.8582C265.569 43.4824 265.5 43.5869 265.29 43.5869C264.491 43.5869 262.234 43.3448 259.699 43.3448C257.163 43.3448 255.116 43.5869 254.316 43.5869C254.107 43.5869 254.038 43.4824 254.038 42.8582C254.038 42.2339 254.107 42.165 254.316 42.0962L255.253 41.8541C255.601 41.7496 255.67 41.7164 255.67 41.3699V34.5431C255.67 31.3197 254.906 30.1756 252.58 30.1756C252.337 30.1756 251.99 30.2112 251.817 30.28V41.3699C251.817 41.7164 251.886 41.752 252.233 41.8541L253.17 42.0962C253.379 42.165 253.448 42.2339 253.448 42.8582C253.448 43.4824 253.379 43.5869 253.17 43.5869C252.371 43.5869 250.356 43.3448 247.823 43.3448C245.29 43.3448 242.997 43.5869 242.198 43.5869C241.989 43.5869 241.92 43.4824 241.92 42.8582C241.92 42.2339 241.989 42.1294 242.198 42.0962L243.378 41.8541C243.725 41.7853 243.794 41.7164 243.794 41.3699V32.2549C243.794 31.9083 243.725 31.8727 243.378 31.8039L242.198 31.595C241.989 31.5594 241.92 31.4906 241.92 30.9375C241.92 30.4177 241.989 30.3488 242.198 30.28C245.045 29.1715 247.754 27.4719 250.532 25.497C250.637 25.4282 250.706 25.3926 250.811 25.3926C251.053 25.3926 251.714 25.6703 251.714 25.9124C251.714 26.4679 251.576 27.6096 251.576 29.689C252.514 27.6452 254.737 25.5991 257.791 25.5991C261.437 25.5991 263.695 27.7829 263.695 31.5262V41.3675C263.695 41.714 263.763 41.7829 264.111 41.8517L265.29 42.0938C265.5 42.1294 265.569 42.2315 265.569 42.8558V42.8582Z" fill="#1C1818"/>
<path d="M266.389 42.8582C266.389 42.234 266.458 42.1295 266.668 42.0963L267.847 41.8542C268.195 41.7853 268.264 41.7165 268.264 41.3699V32.255C268.264 31.9084 268.195 31.8728 267.847 31.804L266.668 31.5951C266.458 31.5595 266.389 31.4907 266.389 30.9376C266.389 30.4177 266.458 30.3489 266.668 30.2801C269.515 29.1716 272.607 27.4032 275.385 25.4971C275.489 25.4283 275.558 25.3927 275.663 25.3927C275.905 25.3927 276.564 25.6704 276.564 25.9125C276.564 26.5012 276.286 28.8582 276.286 33.1214V41.3699C276.286 41.7165 276.355 41.7853 276.702 41.8542L277.882 42.0963C278.091 42.1319 278.16 42.234 278.16 42.8582C278.16 43.4825 278.091 43.587 277.882 43.587C277.083 43.587 274.826 43.3448 272.29 43.3448C269.755 43.3448 267.429 43.587 266.665 43.587C266.456 43.587 266.387 43.4825 266.387 42.8582H266.389ZM268.751 19.8477C268.751 17.5951 270.418 15.8623 272.744 15.8623C275.071 15.8623 276.738 17.5951 276.738 19.8477C276.738 22.1004 275.071 23.8331 272.744 23.8331C270.418 23.8331 268.751 22.1004 268.751 19.8477Z" fill="#1C1818"/>
<path d="M288.858 39.4971C287.748 42.2696 285.628 43.8979 283.093 43.8979C280.42 43.8979 278.579 41.7498 278.579 39.0461C278.579 36.9312 279.238 35.7182 281.045 34.7497C282.677 33.8834 285.281 33.1214 288.58 32.3927V31.2842C288.58 28.7894 287.817 27.2631 286.497 27.2631C286.149 27.2631 286.011 27.3676 285.94 27.8186L285.697 29.4825C285.35 31.9773 283.892 33.157 281.947 33.157C280.869 33.157 279.899 32.4995 279.899 31.2153C279.899 28.9983 284.204 25.6016 289.517 25.6016C294.241 25.6016 296.462 27.472 296.462 30.8355V37.2113C296.462 39.9837 297.019 40.0526 297.956 39.4283C298.061 39.3594 298.094 39.3238 298.165 39.3238C298.477 39.3238 298.998 40.0858 298.998 40.2947C298.998 40.468 298.86 40.6056 298.65 40.8145L298.512 40.9522C296.429 43.0315 294.935 43.8979 293.235 43.8979C291.187 43.8979 289.726 42.5117 288.858 39.4971ZM288.58 38.9773V36.5158C288.58 35.7538 288.268 35.1984 287.85 34.783C287.398 34.332 286.844 34.1255 286.497 34.1255C285.802 34.1255 285.49 34.5409 285.49 35.5805C285.49 37.5222 286.811 39.2194 287.957 39.2194C288.304 39.2194 288.478 39.0817 288.582 38.9773H288.58Z" fill="#1C1818"/>
<path d="M98.3506 49.7019C98.3506 50.3262 98.2816 50.395 98.0723 50.4995L96.9259 51.0193C95.8842 51.5035 95.7462 51.7124 93.4177 56.391L89.8762 63.4598C88.071 67.063 85.8829 71.7416 84.9101 74.0986C84.7364 74.514 84.5628 74.6185 83.659 74.6185C82.7552 74.6185 82.5816 74.514 82.408 74.0986C81.4352 71.7416 79.3874 67.063 77.6511 63.4598L71.7835 51.2614C71.6099 50.9149 71.6099 50.8793 71.2626 50.7772L70.1852 50.4995C69.9759 50.4306 69.9069 50.3618 69.9069 49.7375C69.9069 49.1132 69.9759 49.0088 70.1852 49.0088C70.9843 49.0088 73.2415 49.2509 75.7769 49.2509C77.6178 49.2509 82.7576 49.0088 83.5544 49.0088C83.7637 49.0088 83.8326 49.1132 83.8326 49.7375C83.8326 50.3618 83.7637 50.4662 83.5544 50.4995L81.5065 50.7772C81.1593 50.8128 81.0903 50.9149 81.2639 51.2614L87.4098 64.0841L90.1521 56.5642C91.8884 51.748 91.6458 51.5391 90.6373 51.157L88.8321 50.4995C88.6228 50.4306 88.5538 50.3262 88.5538 49.7019C88.5538 49.0776 88.6228 49.0088 88.8321 49.0088C89.6313 49.0088 91.8527 49.2509 93.6936 49.2509C95.5345 49.2509 97.2708 49.0088 98.0699 49.0088C98.2792 49.0088 98.3482 49.0776 98.3482 49.7019H98.3506Z" fill="#1C1818"/>
<path d="M105.681 56.457C111.722 56.457 115.889 59.8538 115.889 65.4675C115.889 71.359 111.411 74.7558 104.986 74.7558C98.9452 74.7558 94.7782 71.359 94.7782 65.7453C94.7782 59.8538 99.2568 56.457 105.681 56.457ZM105.959 72.9518C106.375 73.3672 106.689 73.4716 107.037 73.4716C107.731 73.4716 108.321 73.0206 108.321 71.1834C108.321 67.5445 106.202 59.747 104.711 58.2563C104.294 57.8409 103.98 57.7365 103.633 57.7365C102.939 57.7365 102.349 58.1875 102.349 60.0247C102.349 63.6635 104.468 71.4611 105.959 72.9518Z" fill="#1C1818"/>
<path d="M125.995 58.8142V65.6766C125.995 68.9 126.863 69.6976 128.357 69.6976C128.809 69.6976 129.051 69.4887 129.225 69.4887C129.608 69.4887 130.198 70.0441 130.057 70.3907C129.189 72.5745 126.759 74.7583 123.529 74.7583C119.883 74.7583 117.973 72.4368 117.973 68.6935V59.1988C117.973 58.8522 117.937 58.8166 117.556 58.7478L116.305 58.5745C116.063 58.5389 116.027 58.47 116.027 57.8814C116.027 57.2927 116.096 57.1526 116.305 57.1194C119.952 56.253 121.93 55.0401 124.188 52.683C124.397 52.4741 124.43 52.4053 124.987 52.4053C125.543 52.4053 125.645 52.4409 125.681 52.683C125.819 53.6871 125.924 55.2133 125.959 56.7373L129.884 56.7016C130.231 56.7016 130.369 56.8749 130.369 57.8102C130.369 58.7454 130.231 58.8498 129.884 58.8498C128.668 58.8498 127.175 58.8498 125.995 58.8142Z" fill="#1C1818"/>
<path d="M138.468 63.5288C138.989 65.2616 139.926 66.9255 140.898 67.8964C142.218 69.2138 143.156 69.5603 144.407 69.5603C145.831 69.5603 146.837 68.9717 147.774 68.1385C148.086 67.8608 148.954 68.5207 148.816 68.8672C147.392 72.4016 143.469 74.7587 139.719 74.7587C134.546 74.7587 130.552 71.2243 130.552 65.7482C130.552 60.2721 134.755 56.46 140.934 56.46C146.107 56.46 148.921 58.9547 148.921 62.2826C148.921 62.5936 148.921 62.9401 148.852 63.1846C148.816 63.3223 148.678 63.4267 148.469 63.4267C145.727 63.5644 141.767 63.6356 138.468 63.5312V63.5288ZM141.698 59.5434C141.698 58.226 141.141 57.5329 140.171 57.5329C139.093 57.5329 138.018 58.5037 138.018 60.5831C138.018 61.2762 138.123 62.0381 138.261 62.7668L139.371 62.6292C140.97 62.4559 141.698 61.3118 141.698 59.5458V59.5434Z" fill="#1C1818"/>
<path d="M167.72 59.9225C167.72 63.2148 165.81 64.8432 164.179 64.8432C163.553 64.8432 163.032 64.6343 162.269 64.1144C161.436 63.5258 160.742 63.2124 160.29 63.2124C160.116 63.2124 159.907 63.248 159.838 63.3169V72.2586C159.838 72.6051 159.907 72.674 160.254 72.7096L162.476 72.9517C162.685 72.9873 162.754 73.0893 162.754 73.7136C162.754 74.3379 162.685 74.4424 162.476 74.4424C161.676 74.4424 159.419 74.2002 155.842 74.2002C153.307 74.2002 151.016 74.4424 150.217 74.4424C150.008 74.4424 149.939 74.3735 149.939 73.7136C149.939 73.0537 150.008 72.9849 150.217 72.9517L151.397 72.7096C151.744 72.6407 151.813 72.6051 151.813 72.2586V63.1104C151.813 62.7638 151.744 62.7282 151.397 62.6594L150.217 62.4505C150.008 62.4149 149.939 62.346 149.939 61.793C149.939 61.2731 150.008 61.2043 150.217 61.1355C153.064 60.027 155.773 58.3274 158.551 56.3525C158.656 56.2837 158.725 56.248 158.829 56.248C159.072 56.248 159.733 56.5258 159.733 56.7679C159.733 57.3233 159.595 60.129 159.595 62.3817C160.637 59.0205 162.583 56.4546 164.699 56.4546C166.816 56.4546 167.72 58.0141 167.72 59.9201V59.9225Z" fill="#1C1818"/>
<path d="M193.659 48.835C196.646 48.835 199.251 48.9394 201.263 49.3548C201.958 49.4925 202.027 49.5637 202.062 50.2568C202.236 52.7515 202.305 54.5199 202.305 57.0503C202.305 57.328 202.167 57.3968 201.368 57.3968C200.569 57.3968 200.464 57.328 200.362 57.0503C199.631 54.9709 198.904 53.5847 197.446 52.1296C196.195 50.8811 194.91 50.3612 192.689 50.3612C189.216 50.3612 186.3 52.6827 186.3 58.1588C186.3 64.5701 188.21 69.7329 190.641 72.1588C191.335 72.8519 192.239 73.2341 192.862 73.2341C194.251 73.2341 194.563 72.8519 194.563 71.9855V64.2568C194.563 63.9102 194.494 63.8414 194.147 63.7726L192.62 63.5304C192.41 63.4948 192.342 63.3928 192.342 62.7685C192.342 62.1442 192.41 62.0398 192.62 62.0398C193.419 62.0398 196.161 62.2819 199.044 62.2819C201.927 62.2819 204.705 62.0398 205.504 62.0398C205.713 62.0398 205.782 62.1442 205.782 62.7685C205.782 63.3928 205.713 63.4972 205.504 63.5304L203.977 63.7726C203.63 63.8414 203.561 63.9102 203.561 64.2568V71.3256C204.046 71.29 204.393 71.2212 204.533 71.2212C204.812 71.2212 204.881 71.29 204.881 71.9499C204.881 72.5054 204.845 72.5742 204.602 72.6786C201.094 74.0293 196.72 74.758 191.338 74.758C182.968 74.758 176.615 69.9418 176.615 61.9709C176.615 53.5491 184.74 48.8373 193.664 48.8373L193.659 48.835Z" fill="#1C1818"/>
<path d="M229.581 72.1919C229.581 72.7805 229.512 72.8494 229.302 72.885C227.219 73.3004 224.441 73.9602 221.836 74.7222C221.558 74.791 220.726 74.5845 220.621 74.238C220.31 73.0939 219.996 71.4655 219.927 70.4947C219.023 72.574 216.801 74.7578 213.712 74.7578C210.066 74.7578 207.808 72.4363 207.808 68.693V58.9562C207.808 58.6096 207.739 58.5408 207.392 58.4719L206.213 58.1942C206.003 58.1586 205.934 58.0566 205.934 57.4655C205.934 56.8745 206.039 56.6679 206.246 56.6679C209.302 56.5991 215.343 56.5303 215.586 56.5303C215.829 56.5303 216.107 56.808 216.107 57.0501C216.107 57.6388 215.829 59.6137 215.829 63.8768V65.6785C215.829 68.9019 216.592 70.046 218.918 70.046C219.161 70.046 219.508 70.0104 219.682 69.9416V58.9562C219.682 58.6096 219.613 58.5408 219.265 58.4719L218.086 58.1942C217.876 58.1586 217.807 58.0566 217.807 57.4655C217.807 56.8745 217.912 56.6679 218.119 56.6679C221.175 56.5991 227.217 56.5303 227.459 56.5303C227.702 56.5303 227.98 56.808 227.98 57.0501C227.98 57.6388 227.702 59.6137 227.702 63.8768V70.7036C227.702 71.0501 227.771 71.1189 228.118 71.1878L229.298 71.4655C229.507 71.5011 229.576 71.6032 229.576 72.1942L229.581 72.1919Z" fill="#1C1818"/>
<path d="M230.477 73.7166C230.477 73.0924 230.546 72.9879 230.756 72.9547L231.935 72.7126C232.283 72.6437 232.352 72.5749 232.352 72.2283V63.1134C232.352 62.7668 232.283 62.7312 231.935 62.6624L230.756 62.4535C230.546 62.4179 230.477 62.3491 230.477 61.796C230.477 61.2761 230.546 61.2073 230.756 61.1385C233.603 60.03 236.692 58.2616 239.47 56.3555C239.575 56.2867 239.644 56.2511 239.748 56.2511C239.991 56.2511 240.652 56.5288 240.652 56.7709C240.652 57.3596 240.374 59.7166 240.374 63.9798V72.2283C240.374 72.5749 240.443 72.6437 240.79 72.7126L241.97 72.9547C242.179 72.9903 242.248 73.0924 242.248 73.7166C242.248 74.3409 242.179 74.4454 241.97 74.4454C241.171 74.4454 238.914 74.2032 236.378 74.2032C233.843 74.2032 231.517 74.4454 230.753 74.4454C230.544 74.4454 230.475 74.3409 230.475 73.7166H230.477ZM232.839 50.7061C232.839 48.4535 234.506 46.7207 236.833 46.7207C239.159 46.7207 240.826 48.4535 240.826 50.7061C240.826 52.9587 239.159 54.6915 236.833 54.6915C234.506 54.6915 232.839 52.9587 232.839 50.7061Z" fill="#1C1818"/>
<path d="M265.119 71.4639C265.329 71.4995 265.397 71.6016 265.397 72.1926C265.397 72.7836 265.329 72.8501 265.119 72.8857C263.036 73.3011 260.258 73.961 257.653 74.723C257.375 74.7918 256.543 74.5853 256.438 74.2387C256.126 73.0946 255.812 71.744 255.743 70.842C254.564 73.51 252.583 74.7586 250.118 74.7586C246.508 74.7586 242.895 71.2241 242.895 65.3683C242.895 59.5124 246.679 56.4622 252.409 56.4622C253.382 56.4622 254.457 56.5666 255.498 56.8443V51.7148C255.498 51.3683 255.429 51.2994 255.082 51.2306L253.903 50.9529C253.693 50.9173 253.624 50.8152 253.624 50.2241C253.624 49.6331 253.693 49.5666 253.903 49.531C256.507 49.0468 260.048 48.2492 262.479 47.5893C262.617 47.5537 262.791 47.5205 262.895 47.5205C263.138 47.5205 263.799 47.7982 263.799 48.0403C263.799 48.629 263.521 50.9861 263.521 55.2492V70.7043C263.521 71.0509 263.59 71.1197 263.937 71.1885L265.117 71.4663L265.119 71.4639ZM255.154 70.3886C255.292 70.3886 255.432 70.353 255.57 70.2509V66.1278C255.57 63.0444 254.181 59.3011 253.034 58.157C252.651 57.7748 252.271 57.5683 251.783 57.5683C251.053 57.5683 250.568 58.2258 250.568 59.5788C250.568 62.8355 252.442 68.1051 254.319 69.9756C254.666 70.3221 254.909 70.391 255.151 70.391L255.154 70.3886Z" fill="#1C1818"/>
<path d="M273.641 63.5288C274.162 65.2616 275.099 66.9255 276.072 67.8964C277.392 69.2138 278.329 69.5603 279.58 69.5603C281.005 69.5603 282.011 68.9717 282.948 68.1385C283.26 67.8608 284.128 68.5207 283.99 68.8672C282.565 72.4016 278.643 74.7587 274.892 74.7587C269.719 74.7587 265.726 71.2243 265.726 65.7482C265.726 60.2721 269.928 56.46 276.108 56.46C281.281 56.46 284.094 58.9547 284.094 62.2826C284.094 62.5936 284.094 62.9401 284.025 63.1846C283.99 63.3223 283.852 63.4267 283.642 63.4267C280.9 63.5644 276.94 63.6356 273.641 63.5312V63.5288ZM276.871 59.5434C276.871 58.226 276.315 57.5329 275.344 57.5329C274.267 57.5329 273.192 58.5037 273.192 60.5831C273.192 61.2762 273.296 62.0381 273.434 62.7668L274.545 62.6292C276.143 62.4559 276.871 61.3118 276.871 59.5458V59.5434Z" fill="#1C1818"/>
<g clip-path="url(#clip0_122_1144)">
<path d="M28.2172 10.4912C28.6641 9.21367 29.7074 6.85415 31.5018 6.27836C32.1457 6.07169 34.1138 5.69925 34.8483 5.57879C34.98 5.55779 35.3694 5.49369 35.8805 5.35665C37.4006 4.94996 37.9216 4.47253 38.6783 4.23823C39.7935 3.89342 41.5569 4.03599 44.3813 6.25515C42.6477 3.77849 39.8422 2.2832 36.9459 2.2832C36.4569 2.2832 35.9668 2.3252 35.4778 2.41361C33.3571 2.79268 31.4387 3.99068 30.0769 5.78656C29.0348 7.16028 28.3975 8.78818 28.2161 10.4901L28.2172 10.4912Z" fill="#8ABB3E"/>
<path d="M38.6784 4.23895C37.9216 4.47324 37.4006 4.94957 35.8805 5.35737C35.3694 5.49441 34.9789 5.5574 34.8484 5.57951C34.1138 5.69997 32.1468 6.0713 31.5018 6.27907C29.7074 6.85597 28.6642 9.21438 28.2172 10.4919C28.1973 10.6743 28.184 10.8578 28.1752 11.0423C28.8611 10.4057 29.6001 9.81669 30.3822 9.28511C32.1346 8.09264 34.0529 7.21846 36.0863 6.68467C39.4096 5.8127 42.3667 6.02047 44.5218 6.46142C44.4765 6.3929 44.43 6.32438 44.3824 6.25697C41.5591 4.03781 39.7946 3.89524 38.6795 4.24005L38.6784 4.23895Z" fill="#709E0B"/>
<path d="M45.9644 6.98384C43.9344 2.96216 39.5501 0.683318 35.3041 1.44367C32.9378 1.86695 30.8026 3.19756 29.2903 5.19237C28.7128 5.95493 28.2471 6.78712 27.9019 7.66572C27.5335 6.6766 27.0069 5.63444 26.258 4.60222C24.2168 1.78737 21.5418 0.517544 20.1291 0.0113807C20.0384 -0.020669 19.9377 0.0169065 19.8901 0.0997935L18.5957 2.39079C18.5637 2.44715 18.5614 2.51678 18.5902 2.57425C18.619 2.63282 18.6743 2.67371 18.7396 2.68255C19.8337 2.8417 22.5983 3.48601 24.6394 6.03672C26.352 8.17631 26.6308 10.4938 26.6452 11.6852C26.6463 11.7935 26.7348 11.8797 26.8421 11.8797H26.8443C26.9538 11.8786 27.0412 11.7891 27.039 11.6797C27.039 11.6686 27.039 11.6565 27.039 11.6443L27.1762 11.6178C27.1784 11.8255 27.1861 12.0333 27.2016 12.2422C27.216 12.4378 27.3432 12.6058 27.528 12.6721C27.5822 12.692 27.6386 12.7008 27.6939 12.7008C27.8278 12.7008 27.9583 12.6467 28.0524 12.5461C28.9142 11.6366 29.8844 10.8121 30.9365 10.096C32.5948 8.9676 34.4114 8.13873 36.3352 7.63478C40.0745 6.6534 43.3248 7.11756 45.3925 7.67899C45.5805 7.72982 45.7808 7.66572 45.9047 7.51542C46.0275 7.36401 46.0507 7.15514 45.9633 6.98163L45.9644 6.98384ZM35.4778 2.414C35.9668 2.32669 36.4569 2.28359 36.9459 2.28359C39.8411 2.28359 42.6466 3.77887 44.3813 6.25554C44.4289 6.32295 44.4753 6.39147 44.5207 6.45999C42.3656 6.01903 39.4085 5.81016 36.0852 6.68324C34.0529 7.21703 32.1335 8.09121 30.3811 9.28368C29.599 9.81526 28.86 10.4043 28.1741 11.0409C28.1829 10.8563 28.1973 10.6729 28.2161 10.4905C28.3975 8.78857 29.0348 7.16067 30.0769 5.78695C31.4387 3.99106 33.356 2.79307 35.4778 2.414Z" fill="#1C1818"/>
<path d="M46.1326 29.6992H40.1862L35.8717 34.0093H42.4751C42.6101 34.0093 42.734 34.111 42.7938 34.2713C43.0637 34.9874 43.3336 35.7036 43.6036 36.4197C43.7219 36.7347 43.5494 37.1049 43.2849 37.1049H11.7677C11.5088 37.1049 11.3362 36.7501 11.4424 36.4374C11.6847 35.7212 11.9281 35.0051 12.1704 34.289C12.2279 34.1188 12.3551 34.0104 12.4956 34.0104H19.181L14.8664 29.7003H8.85036C6.38 33.3838 3.90853 37.0684 1.43817 40.7519C18.807 40.7155 36.1759 40.6779 53.5447 40.6414C51.0744 36.9944 48.6029 33.3474 46.1326 29.7003V29.6992Z" fill="white"/>
<path d="M13.9493 50.4758C10.324 50.8295 7.4144 51.098 5.75275 51.2495V72.326C5.75275 72.6487 6.01494 72.9106 6.33798 72.9106H48.645C48.968 72.9106 49.2302 72.6487 49.2302 72.326V50.9179C45.3128 49.7829 42.0813 49.2845 39.9517 49.0391C33.4511 48.2887 29.308 48.9772 13.9493 50.4758Z" fill="#627CEF"/>
<path d="M54.9785 40.7512C55.0028 40.4329 54.921 40.1091 54.7362 39.8351L51.0301 34.3645L47.324 28.894C47.0563 28.4994 46.6105 28.2629 46.1326 28.2629H41.6244L42.4209 27.4672C45.0473 24.8436 46.4279 21.7944 46.4114 18.6502C46.4036 17.229 46.1115 15.842 45.5418 14.5269C44.9942 13.2615 44.2154 12.1209 43.2285 11.1351C42.2417 10.1493 41.1 9.37241 39.8333 8.82425C38.5168 8.25509 37.1273 7.96223 35.7057 7.95449C35.6869 7.95449 35.6681 7.95449 35.6493 7.95449C32.7774 7.95449 29.9862 9.11601 27.528 11.3252C25.0521 9.10054 22.2421 7.93791 19.348 7.95228C17.9253 7.96002 16.5369 8.25178 15.2204 8.82204C13.9537 9.3691 12.812 10.1471 11.8252 11.1329C10.8384 12.1187 10.0607 13.2604 9.51194 14.5247C8.94219 15.8398 8.64903 17.2279 8.64128 18.648C8.62469 21.78 9.99318 24.8159 12.5974 27.4318C12.6085 27.444 12.6195 27.4562 12.6317 27.4683L13.4282 28.264H8.85037C8.37024 28.264 7.92219 28.5027 7.65557 28.9006L3.94948 34.4264L0.243385 39.9511C0.0807596 40.1931 0 40.4738 0 40.7546V43.8744C0 44.5906 0.580806 45.1708 1.29769 45.1708H3.09763V72.3257C3.09763 74.1105 4.5513 75.5627 6.33797 75.5627H48.645C50.4316 75.5627 51.8853 74.1105 51.8853 72.3257V45.1708H54.1289C54.6002 45.1708 54.9829 44.7884 54.9829 44.3176V40.7546C54.9829 40.7546 54.9807 40.7501 54.9785 40.7501V40.7512ZM10.4744 18.6558C10.4811 17.4832 10.7222 16.3371 11.1935 15.2497C11.6493 14.1975 12.2976 13.2471 13.1207 12.426C13.9438 11.6037 14.8941 10.9561 15.9473 10.5008C17.0359 10.03 18.1831 9.78795 19.3569 9.78243C19.3724 9.78243 19.3867 9.78243 19.4022 9.78243C20.0937 9.78243 20.7807 9.86531 21.461 10.0278C23.3683 10.4831 25.2114 11.5673 26.8775 13.2316L26.8797 13.2338C27.2381 13.5919 27.8178 13.5919 28.1763 13.2338C30.4486 10.9638 33.0495 9.77137 35.6958 9.78574C36.8695 9.79237 38.0157 10.0333 39.1043 10.5041C40.1575 10.9594 41.1089 11.607 41.9308 12.4293C42.7539 13.2515 43.4022 14.2009 43.858 15.253C44.3293 16.3404 44.5716 17.4865 44.5771 18.658C44.5904 21.3026 43.3967 23.8997 41.1244 26.1709L31.5084 35.7769H23.5453L13.9615 26.2029C13.9515 26.1918 13.9415 26.1808 13.9305 26.1709C13.9305 26.1709 13.9283 26.1686 13.9272 26.1675C11.6548 23.8975 10.46 21.2993 10.4744 18.6547V18.6558ZM1.43819 40.7512C3.90855 37.0677 6.38001 33.3831 8.85037 29.6996H14.8664L19.181 34.0098H12.4956C12.3551 34.0098 12.2279 34.1192 12.1704 34.2883C11.9281 35.0044 11.6847 35.7205 11.4424 36.4367C11.3362 36.7494 11.5088 37.1042 11.7677 37.1042H43.2839C43.5494 37.1042 43.7208 36.734 43.6025 36.419C43.3325 35.7029 43.0626 34.9867 42.7927 34.2706C42.7318 34.1103 42.609 34.0086 42.474 34.0086H35.8706L40.1851 29.6985H46.1315C48.6018 33.3456 51.0733 36.9926 53.5436 40.6396C36.1748 40.6761 18.8059 40.7137 1.43708 40.7501L1.43819 40.7512ZM49.2302 50.9187V72.3268C49.2302 72.6495 48.968 72.9114 48.645 72.9114H6.33797C6.01493 72.9114 5.75274 72.6495 5.75274 72.3268V51.2503C5.75274 51.2503 5.75053 51.2503 5.74832 51.2503V45.1719H49.2302V50.9187Z" fill="#1C1818"/>
<path d="M5.74832 51.2503C5.74832 51.2503 5.75053 51.2503 5.75275 51.2503C7.4133 51.0989 10.3229 50.8314 13.9493 50.4766C29.308 48.978 33.4511 48.2895 39.9517 49.0399C42.0813 49.2853 45.3128 49.7837 49.2302 50.9187V45.1719H5.74832V51.2503Z" fill="#4F6FE0"/>
<path d="M16.6221 18.6972C17.0469 20.724 18.6112 20.8577 21.4035 24.6186C23.8517 27.9142 25.0222 31.0053 25.759 32.9935C26.1141 33.9528 26.4139 34.8833 26.6684 35.7774H31.5095L41.1255 26.1714C43.3978 23.9014 44.5926 21.3031 44.5782 18.6585C44.5716 17.4859 44.3304 16.3398 43.8591 15.2535C43.4033 14.2014 42.755 13.2509 41.9319 12.4298C41.1089 11.6075 40.1586 10.9599 39.1054 10.5046C38.0168 10.0338 36.8695 9.79177 35.6969 9.78624C33.0506 9.77298 30.4497 10.9643 28.1774 13.2343C27.8189 13.5924 27.2392 13.5924 26.8808 13.2343L26.8786 13.2321C25.2125 11.5678 23.3694 10.4836 21.4621 10.0283C16.8887 14.1406 16.2437 16.8902 16.6232 18.6983L16.6221 18.6972ZM41.964 16.7819C42.3092 16.7079 42.6488 16.9267 42.7241 17.2715C42.7982 17.6163 42.5791 17.9556 42.234 18.0307C41.8888 18.1048 41.5492 17.886 41.4739 17.5412C41.3998 17.1963 41.6189 16.8571 41.964 16.7819ZM38.3818 12.2872C38.4416 12.2508 38.7082 12.0993 39.1817 12.1701C40.4805 12.3668 41.3788 13.9892 41.8302 15.2104C41.8501 15.2656 41.8611 15.3198 41.8611 15.3198C41.8678 15.3529 41.8733 15.3883 41.8744 15.4237C41.8943 15.7917 41.6111 16.1056 41.2427 16.1254C41.0159 16.1376 40.8467 16.0227 40.8124 15.9972C40.684 15.9011 40.6365 15.7873 40.5624 15.6325C40.3997 15.2955 40.1785 14.8435 39.8112 14.5307C39.7205 14.4533 39.6397 14.4047 39.5966 14.3782C39.1186 14.0919 38.8255 14.2312 38.4759 14.061C38.2004 13.9273 37.9238 13.6156 37.8884 13.2332C37.853 12.8398 38.0831 12.4685 38.3818 12.2872Z" fill="#F63948"/>
<path d="M13.9305 26.1718C13.9415 26.1828 13.9515 26.1928 13.9615 26.2038L23.5453 35.7778H26.6673C26.4128 34.8826 26.1141 33.9532 25.7579 32.9939C25.0211 31.0057 23.8506 27.9157 21.4024 24.619C18.6101 20.8593 17.0469 20.7244 16.621 18.6976C16.2415 16.8895 16.8876 14.1399 21.4599 10.0276C20.7807 9.86511 20.0926 9.78223 19.4011 9.78223C19.3856 9.78223 19.3712 9.78223 19.3558 9.78223C18.182 9.78886 17.0347 10.0298 15.9462 10.5006C14.893 10.9559 13.9415 11.6035 13.1196 12.4258C12.2965 13.248 11.6482 14.1973 11.1924 15.2495C10.7211 16.3369 10.4788 17.483 10.4733 18.6556C10.4589 21.3002 11.6537 23.8973 13.9261 26.1684C13.9261 26.1684 13.9283 26.1707 13.9294 26.1718H13.9305Z" fill="#DD283E"/>
<path d="M41.4739 17.5412C41.5481 17.886 41.8888 18.1049 42.234 18.0308C42.5791 17.9568 42.7982 17.6164 42.7241 17.2716C42.6499 16.9268 42.3092 16.7079 41.964 16.782C41.6189 16.856 41.3998 17.1964 41.4739 17.5412Z" fill="white"/>
<path d="M38.4759 14.0613C38.8255 14.2315 39.1186 14.0922 39.5965 14.3785C39.6386 14.4039 39.7193 14.4525 39.8112 14.531C40.1796 14.8448 40.4008 15.2958 40.5623 15.6328C40.6365 15.7875 40.684 15.9014 40.8124 15.9975C40.8467 16.0229 41.0159 16.1379 41.2427 16.1257C41.6111 16.1058 41.8943 15.792 41.8744 15.4239C41.8722 15.3886 41.8678 15.3543 41.8611 15.3201C41.8611 15.3201 41.8501 15.2648 41.8302 15.2107C41.3799 13.9895 40.4805 12.366 39.1817 12.1704C38.7082 12.0985 38.4416 12.251 38.3818 12.2875C38.0831 12.4688 37.853 12.8401 37.8884 13.2335C37.9227 13.617 38.2004 13.9276 38.4759 14.0613Z" fill="white"/>
</g>
<defs>
<clipPath id="clip0_122_1144">
<rect width="55" height="76.0003" fill="white"/>
</clipPath>
</defs>
</svg>
