<svg width="124" height="22" viewBox="0 0 124 22" fill="none" xmlns="http://www.w3.org/2000/svg">
<g clip-path="url(#clip0_235_3552)">
<path d="M55.4367 10.9312C55.4367 4.89405 50.5426 0 44.5055 0C38.4684 0 33.5743 4.89405 33.5743 10.9312C33.5743 16.3872 37.5717 20.9095 42.7975 21.7296V14.091H40.022V10.9312H42.7975V8.5229C42.7975 5.78327 44.4295 4.26999 46.9264 4.26999C48.122 4.26999 49.3733 4.48349 49.3733 4.48349V7.17358H47.9949C46.6371 7.17358 46.2135 8.01627 46.2135 8.88158V10.9312H49.2452L48.7605 14.091H46.2135V21.7296C51.4393 20.9095 55.4367 16.3872 55.4367 10.9312Z" fill="#1C1818"/>
</g>
<g clip-path="url(#clip1_235_3552)">
<path d="M78.8609 1.96847C81.7815 1.96847 82.1274 1.98128 83.276 2.03252C84.3435 2.07948 84.92 2.25882 85.3043 2.40827C85.8124 2.60469 86.1796 2.84381 86.5597 3.22384C86.944 3.60814 87.1788 3.97109 87.3752 4.47922C87.5247 4.86352 87.704 5.44424 87.751 6.50746C87.8022 7.66036 87.815 8.00623 87.815 10.9226C87.815 13.8433 87.8022 14.1892 87.751 15.3378C87.704 16.4053 87.5247 16.9818 87.3752 17.3661C87.1788 17.8742 86.9397 18.2414 86.5597 18.6214C86.1754 19.0057 85.8124 19.2406 85.3043 19.437C84.92 19.5864 84.3393 19.7658 83.276 19.8128C82.1231 19.864 81.7773 19.8768 78.8609 19.8768C75.9402 19.8768 75.5943 19.864 74.4457 19.8128C73.3782 19.7658 72.8017 19.5864 72.4174 19.437C71.9093 19.2406 71.5421 19.0015 71.1621 18.6214C70.7778 18.2371 70.5429 17.8742 70.3465 17.3661C70.1971 16.9818 70.0177 16.401 69.9707 15.3378C69.9195 14.1849 69.9067 13.839 69.9067 10.9226C69.9067 8.00196 69.9195 7.65609 69.9707 6.50746C70.0177 5.43997 70.1971 4.86352 70.3465 4.47922C70.5429 3.97109 70.782 3.60387 71.1621 3.22384C71.5464 2.83954 71.9093 2.60469 72.4174 2.40827C72.8017 2.25882 73.3825 2.07948 74.4457 2.03252C75.5943 1.98128 75.9402 1.96847 78.8609 1.96847ZM78.8609 0C75.8932 0 75.5217 0.01281 74.356 0.0640498C73.1946 0.11529 72.3961 0.303169 71.7044 0.572179C70.9827 0.853998 70.3721 1.22549 69.7658 1.8361C69.1552 2.44243 68.7837 3.05304 68.5019 3.7704C68.2329 4.46641 68.045 5.26063 67.9937 6.42206C67.9425 7.59204 67.9297 7.96353 67.9297 10.9312C67.9297 13.8988 67.9425 14.2703 67.9937 15.436C68.045 16.5975 68.2329 17.3959 68.5019 18.0877C68.7837 18.8093 69.1552 19.4199 69.7658 20.0263C70.3721 20.6326 70.9827 21.0084 71.7001 21.2859C72.3961 21.5549 73.1903 21.7428 74.3518 21.794C75.5175 21.8453 75.8889 21.8581 78.8566 21.8581C81.8242 21.8581 82.1957 21.8453 83.3614 21.794C84.5229 21.7428 85.3214 21.5549 86.0131 21.2859C86.7305 21.0084 87.3411 20.6326 87.9474 20.0263C88.5537 19.4199 88.9295 18.8093 89.207 18.0919C89.4761 17.3959 89.6639 16.6017 89.7152 15.4403C89.7664 14.2746 89.7792 13.9031 89.7792 10.9354C89.7792 7.9678 89.7664 7.59631 89.7152 6.4306C89.6639 5.26917 89.4761 4.47068 89.207 3.77894C88.938 3.05304 88.5666 2.44243 87.9559 1.8361C87.3496 1.22976 86.739 0.853998 86.0216 0.576449C85.3256 0.307439 84.5314 0.11956 83.37 0.0683198C82.2 0.01281 81.8285 0 78.8609 0Z" fill="#1C1818"/>
<path d="M78.8609 5.31641C75.7608 5.31641 73.2458 7.83143 73.2458 10.9314C73.2458 14.0315 75.7608 16.5465 78.8609 16.5465C81.9609 16.5465 84.4759 14.0315 84.4759 10.9314C84.4759 7.83143 81.9609 5.31641 78.8609 5.31641ZM78.8609 14.5737C76.8497 14.5737 75.2186 12.9426 75.2186 10.9314C75.2186 8.92028 76.8497 7.28914 78.8609 7.28914C80.872 7.28914 82.5032 8.92028 82.5032 10.9314C82.5032 12.9426 80.872 14.5737 78.8609 14.5737Z" fill="#1C1818"/>
<path d="M86.0088 5.09409C86.0088 5.81999 85.4196 6.40498 84.6979 6.40498C83.972 6.40498 83.3871 5.81572 83.3871 5.09409C83.3871 4.36819 83.9763 3.7832 84.6979 3.7832C85.4196 3.7832 86.0088 4.37246 86.0088 5.09409Z" fill="#1C1818"/>
</g>
<path d="M121.748 0H103.118C102.225 0 101.504 0.704548 101.504 1.57563V20.2825C101.504 21.1535 102.225 21.8623 103.118 21.8623H121.748C122.64 21.8623 123.366 21.1535 123.366 20.2867V1.57563C123.366 0.704548 122.64 0 121.748 0ZM107.99 18.63H104.745V8.19411H107.99V18.63ZM106.367 6.7722C105.325 6.7722 104.484 5.93102 104.484 4.89341C104.484 3.8558 105.325 3.01461 106.367 3.01461C107.405 3.01461 108.246 3.8558 108.246 4.89341C108.246 5.92675 107.405 6.7722 106.367 6.7722ZM120.134 18.63H116.893V13.5572C116.893 12.3488 116.871 10.7903 115.206 10.7903C113.519 10.7903 113.263 12.1097 113.263 13.4718V18.63H110.027V8.19411H113.135V9.62029H113.178C113.609 8.80045 114.668 7.93364 116.244 7.93364C119.527 7.93364 120.134 10.0943 120.134 12.9039V18.63Z" fill="#1C1818"/>
<path d="M6.87767 19.5203C15.1256 19.5203 19.6381 12.9109 19.6381 7.18102C19.6381 6.99521 19.6338 6.80528 19.6253 6.61947C20.5031 6.00559 21.2607 5.24522 21.8623 4.37408C21.0448 4.72581 20.1768 4.95553 19.288 5.05538C20.2238 4.51292 20.9246 3.66073 21.2603 2.6568C20.3799 3.16136 19.417 3.51727 18.4131 3.7093C17.7366 3.01425 16.8422 2.55405 15.8681 2.39984C14.8941 2.24563 13.8946 2.406 13.0243 2.85617C12.1539 3.30633 11.4612 4.02121 11.0531 4.89028C10.645 5.75935 10.5444 6.73421 10.7668 7.66412C8.98405 7.57762 7.24002 7.12979 5.64776 6.34969C4.05549 5.56959 2.65053 4.47462 1.52396 3.13577C0.951376 4.09039 0.776165 5.22002 1.03393 6.29507C1.2917 7.37012 1.96311 8.30993 2.91171 8.92349C2.19956 8.90163 1.50301 8.71622 0.879618 8.38258V8.43626C0.87898 9.43806 1.23713 10.4092 1.8932 11.1845C2.54926 11.9598 3.46274 12.4915 4.47836 12.6892C3.81867 12.8637 3.1263 12.8892 2.45482 12.7635C2.74141 13.6251 3.299 14.3786 4.04979 14.919C4.80058 15.4593 5.70709 15.7596 6.64282 15.7777C5.05423 16.9844 3.09186 17.6389 1.07177 17.6358C0.713521 17.6353 0.355627 17.6141 0 17.5722C2.0522 18.8454 4.43945 19.5216 6.87767 19.5203Z" fill="#1C1818"/>
<defs>
<clipPath id="clip0_235_3552">
<rect width="21.8623" height="21.8623" fill="white" transform="translate(33.5743)"/>
</clipPath>
<clipPath id="clip1_235_3552">
<rect width="21.8623" height="21.8623" fill="white" transform="translate(67.9297)"/>
</clipPath>
</defs>
</svg>
