<svg width="124" height="22" viewBox="0 0 124 22" fill="none" xmlns="http://www.w3.org/2000/svg">
<g clip-path="url(#clip0_235_3552)">
<path d="M55.9366 10.9312C55.9366 4.89405 51.0426 0 45.0055 0C38.9683 0 34.0743 4.89405 34.0743 10.9312C34.0743 16.3872 38.0716 20.9095 43.2975 21.7296V14.091H40.522V10.9312H43.2975V8.5229C43.2975 5.78327 44.9294 4.26999 47.4263 4.26999C48.6219 4.26999 49.8732 4.48349 49.8732 4.48349V7.17358H48.4949C47.137 7.17358 46.7134 8.01627 46.7134 8.88158V10.9312H49.7451L49.2605 14.091H46.7134V21.7296C51.9393 20.9095 55.9366 16.3872 55.9366 10.9312Z" fill="#1C1818"/>
</g>
<g clip-path="url(#clip1_235_3552)">
<path d="M79.3609 1.96847C82.2815 1.96847 82.6274 1.98128 83.776 2.03252C84.8435 2.07948 85.42 2.25882 85.8043 2.40827C86.3124 2.60469 86.6796 2.84381 87.0597 3.22384C87.444 3.60814 87.6788 3.97109 87.8752 4.47922C88.0247 4.86352 88.204 5.44424 88.251 6.50746C88.3022 7.66036 88.315 8.00623 88.315 10.9226C88.315 13.8433 88.3022 14.1892 88.251 15.3378C88.204 16.4053 88.0247 16.9818 87.8752 17.3661C87.6788 17.8742 87.4397 18.2414 87.0597 18.6214C86.6754 19.0057 86.3124 19.2406 85.8043 19.437C85.42 19.5864 84.8393 19.7658 83.776 19.8128C82.6231 19.864 82.2773 19.8768 79.3609 19.8768C76.4402 19.8768 76.0943 19.864 74.9457 19.8128C73.8782 19.7658 73.3017 19.5864 72.9174 19.437C72.4093 19.2406 72.0421 19.0015 71.6621 18.6214C71.2778 18.2371 71.0429 17.8742 70.8465 17.3661C70.6971 16.9818 70.5177 16.401 70.4707 15.3378C70.4195 14.1849 70.4067 13.839 70.4067 10.9226C70.4067 8.00196 70.4195 7.65609 70.4707 6.50746C70.5177 5.43997 70.6971 4.86352 70.8465 4.47922C71.0429 3.97109 71.282 3.60387 71.6621 3.22384C72.0464 2.83954 72.4093 2.60469 72.9174 2.40827C73.3017 2.25882 73.8825 2.07948 74.9457 2.03252C76.0943 1.98128 76.4402 1.96847 79.3609 1.96847ZM79.3609 0C76.3932 0 76.0217 0.01281 74.856 0.0640498C73.6946 0.11529 72.8961 0.303169 72.2044 0.572179C71.4827 0.853998 70.8721 1.22549 70.2658 1.8361C69.6552 2.44243 69.2837 3.05304 69.0019 3.7704C68.7329 4.46641 68.545 5.26063 68.4937 6.42206C68.4425 7.59204 68.4297 7.96353 68.4297 10.9312C68.4297 13.8988 68.4425 14.2703 68.4937 15.436C68.545 16.5975 68.7329 17.3959 69.0019 18.0877C69.2837 18.8093 69.6552 19.4199 70.2658 20.0263C70.8721 20.6326 71.4827 21.0084 72.2001 21.2859C72.8961 21.5549 73.6903 21.7428 74.8518 21.794C76.0175 21.8453 76.3889 21.8581 79.3566 21.8581C82.3242 21.8581 82.6957 21.8453 83.8614 21.794C85.0229 21.7428 85.8214 21.5549 86.5131 21.2859C87.2305 21.0084 87.8411 20.6326 88.4474 20.0263C89.0537 19.4199 89.4295 18.8093 89.707 18.0919C89.9761 17.3959 90.1639 16.6017 90.2152 15.4403C90.2664 14.2746 90.2792 13.9031 90.2792 10.9354C90.2792 7.9678 90.2664 7.59631 90.2152 6.4306C90.1639 5.26917 89.9761 4.47068 89.707 3.77894C89.438 3.05304 89.0666 2.44243 88.4559 1.8361C87.8496 1.22976 87.239 0.853998 86.5216 0.576449C85.8256 0.307439 85.0314 0.11956 83.87 0.0683198C82.7 0.01281 82.3285 0 79.3609 0Z" fill="#1C1818"/>
<path d="M79.3609 5.31641C76.2608 5.31641 73.7458 7.83143 73.7458 10.9314C73.7458 14.0315 76.2608 16.5465 79.3609 16.5465C82.4609 16.5465 84.9759 14.0315 84.9759 10.9314C84.9759 7.83143 82.4609 5.31641 79.3609 5.31641ZM79.3609 14.5737C77.3497 14.5737 75.7186 12.9426 75.7186 10.9314C75.7186 8.92028 77.3497 7.28914 79.3609 7.28914C81.372 7.28914 83.0032 8.92028 83.0032 10.9314C83.0032 12.9426 81.372 14.5737 79.3609 14.5737Z" fill="#1C1818"/>
<path d="M86.5088 5.09409C86.5088 5.81999 85.9196 6.40498 85.1979 6.40498C84.472 6.40498 83.8871 5.81572 83.8871 5.09409C83.8871 4.36819 84.4763 3.7832 85.1979 3.7832C85.9196 3.7832 86.5088 4.37246 86.5088 5.09409Z" fill="#1C1818"/>
</g>
<path d="M122.248 0H103.618C102.725 0 102.004 0.704548 102.004 1.57563V20.2825C102.004 21.1535 102.725 21.8623 103.618 21.8623H122.248C123.14 21.8623 123.866 21.1535 123.866 20.2867V1.57563C123.866 0.704548 123.14 0 122.248 0ZM108.49 18.63H105.245V8.19411H108.49V18.63ZM106.867 6.7722C105.825 6.7722 104.984 5.93102 104.984 4.89341C104.984 3.8558 105.825 3.01461 106.867 3.01461C107.905 3.01461 108.746 3.8558 108.746 4.89341C108.746 5.92675 107.905 6.7722 106.867 6.7722ZM120.634 18.63H117.393V13.5572C117.393 12.3488 117.371 10.7903 115.706 10.7903C114.019 10.7903 113.763 12.1097 113.763 13.4718V18.63H110.527V8.19411H113.635V9.62029H113.678C114.109 8.80045 115.168 7.93364 116.744 7.93364C120.027 7.93364 120.634 10.0943 120.634 12.9039V18.63Z" fill="#1C1818"/>
<path d="M7.37767 19.5203C15.6256 19.5203 20.1381 12.9109 20.1381 7.18102C20.1381 6.99521 20.1338 6.80528 20.1253 6.61947C21.0031 6.00559 21.7607 5.24522 22.3623 4.37408C21.5448 4.72581 20.6768 4.95553 19.788 5.05538C20.7238 4.51292 21.4246 3.66073 21.7603 2.6568C20.8799 3.16136 19.917 3.51727 18.9131 3.7093C18.2366 3.01425 17.3422 2.55405 16.3681 2.39984C15.3941 2.24563 14.3946 2.406 13.5243 2.85617C12.6539 3.30633 11.9612 4.02121 11.5531 4.89028C11.145 5.75935 11.0444 6.73421 11.2668 7.66412C9.48405 7.57762 7.74002 7.12979 6.14776 6.34969C4.55549 5.56959 3.15053 4.47462 2.02396 3.13577C1.45138 4.09039 1.27616 5.22002 1.53393 6.29507C1.7917 7.37012 2.46311 8.30993 3.41171 8.92349C2.69956 8.90163 2.00301 8.71622 1.37962 8.38258V8.43626C1.37898 9.43806 1.73713 10.4092 2.3932 11.1845C3.04926 11.9598 3.96274 12.4915 4.97836 12.6892C4.31867 12.8637 3.6263 12.8892 2.95482 12.7635C3.24141 13.6251 3.799 14.3786 4.54979 14.919C5.30058 15.4593 6.20709 15.7596 7.14282 15.7777C5.55423 16.9844 3.59186 17.6389 1.57177 17.6358C1.21352 17.6353 0.855627 17.6141 0.5 17.5722C2.5522 18.8454 4.93945 19.5216 7.37767 19.5203Z" fill="#1C1818"/>
<defs>
<clipPath id="clip0_235_3552">
<rect width="21.8623" height="21.8623" fill="white" transform="translate(34.0743)"/>
</clipPath>
<clipPath id="clip1_235_3552">
<rect width="21.8623" height="21.8623" fill="white" transform="translate(68.4297)"/>
</clipPath>
</defs>
</svg>
