<svg width="250" height="159" viewBox="0 0 250 159" fill="none" xmlns="http://www.w3.org/2000/svg">
<g filter="url(#filter0_d_205_2797)">
<rect width="250" height="153" rx="20" fill="#F63948"/>
<rect x="143" y="58" width="36" height="36" rx="0.5" transform="rotate(90 143 58)" stroke="black" stroke-width="1.5" stroke-linecap="round" stroke-linejoin="round"/>
<path d="M107 80L114.646 72.3536C114.842 72.1583 115.158 72.1583 115.354 72.3536L137 94" stroke="black" stroke-width="1.5" stroke-linecap="round"/>
<path fill-rule="evenodd" clip-rule="evenodd" d="M128 72C130.761 72 133 69.7614 133 67C133 64.2386 130.761 62 128 62C125.239 62 123 64.2386 123 67C123 69.7614 125.239 72 128 72Z" stroke="black" stroke-width="1.5"/>
<path d="M128 85L143 70" stroke="black" stroke-width="1.5"/>
<rect x="1" y="1" width="248" height="151" rx="19" stroke="#1C1818" stroke-width="2"/>
</g>
<defs>
<filter id="filter0_d_205_2797" x="0" y="0" width="250" height="159" filterUnits="userSpaceOnUse" color-interpolation-filters="sRGB">
<feFlood flood-opacity="0" result="BackgroundImageFix"/>
<feColorMatrix in="SourceAlpha" type="matrix" values="0 0 0 0 0 0 0 0 0 0 0 0 0 0 0 0 0 0 127 0" result="hardAlpha"/>
<feOffset dy="6"/>
<feComposite in2="hardAlpha" operator="out"/>
<feColorMatrix type="matrix" values="0 0 0 0 0.109804 0 0 0 0 0.0941176 0 0 0 0 0.0941176 0 0 0 1 0"/>
<feBlend mode="normal" in2="BackgroundImageFix" result="effect1_dropShadow_205_2797"/>
<feBlend mode="normal" in="SourceGraphic" in2="effect1_dropShadow_205_2797" result="shape"/>
</filter>
</defs>
</svg>
