<svg width="22" height="18" viewBox="0 0 22 18" fill="none" xmlns="http://www.w3.org/2000/svg">
<path d="M6.87767 17.1776C15.1256 17.1776 19.6381 10.5682 19.6381 4.83825C19.6381 4.65244 19.6338 4.4625 19.6253 4.2767C20.5031 3.66282 21.2607 2.90245 21.8623 2.03131C21.0448 2.38304 20.1768 2.61276 19.288 2.7126C20.2238 2.17014 20.9246 1.31796 21.2603 0.314029C20.3799 0.818582 19.417 1.1745 18.4131 1.36653C17.7366 0.67148 16.8422 0.211275 15.8681 0.0570656C14.8941 -0.0971438 13.8946 0.0632312 13.0243 0.513395C12.1539 0.963559 11.4612 1.67844 11.0531 2.54751C10.645 3.41658 10.5444 4.39143 10.7668 5.32135C8.98405 5.23484 7.24002 4.78702 5.64776 4.00692C4.05549 3.22682 2.65053 2.13185 1.52396 0.793001C0.951376 1.74762 0.776165 2.87725 1.03393 3.9523C1.2917 5.02735 1.96311 5.96716 2.91171 6.58072C2.19956 6.55885 1.50301 6.37344 0.879618 6.03981V6.09349C0.87898 7.09529 1.23713 8.06639 1.8932 8.84171C2.54926 9.61704 3.46274 10.1487 4.47836 10.3464C3.81867 10.521 3.1263 10.5464 2.45482 10.4207C2.74141 11.2823 3.299 12.0358 4.04979 12.5762C4.80058 13.1166 5.70709 13.4168 6.64282 13.435C5.05423 14.6416 3.09186 15.2961 1.07177 15.2931C0.713521 15.2925 0.355627 15.2713 0 15.2295C2.0522 16.5026 4.43945 17.1788 6.87767 17.1776Z" fill="black"/>
</svg>
