<svg width="40" height="28" viewBox="0 0 40 28" fill="none" xmlns="http://www.w3.org/2000/svg">
<path d="M3.24998 15.9983H31.9116L23.1391 24.7177C22.936 24.9199 22.783 25.1533 22.6889 25.4044C22.5948 25.6556 22.5613 25.9196 22.5905 26.1815C22.6494 26.7103 22.9598 27.1981 23.4533 27.5375C23.9468 27.877 24.5831 28.0403 25.2221 27.9915C25.8612 27.9428 26.4506 27.686 26.8608 27.2775L38.9441 15.2783C39.0254 15.1829 39.0981 15.0826 39.1616 14.9784C39.1616 14.8784 39.2825 14.8184 39.3308 14.7184C39.4404 14.4891 39.4977 14.245 39.5 13.9984C39.4977 13.7519 39.4404 13.5078 39.3308 13.2785C39.3308 13.1785 39.21 13.1185 39.1616 13.0185C39.0981 12.9142 39.0254 12.8139 38.9441 12.7185L26.8608 0.719286C26.6336 0.493535 26.3491 0.311987 26.0274 0.187553C25.7058 0.0631186 25.355 -0.0011447 25 -0.000667566C24.4353 -0.00158053 23.8881 0.16116 23.4533 0.459302C23.2086 0.62719 23.0063 0.833377 22.8581 1.06606C22.7098 1.29874 22.6185 1.55333 22.5893 1.81527C22.5601 2.07721 22.5936 2.34134 22.688 2.59253C22.7823 2.84372 22.9357 3.07703 23.1391 3.27912L31.9116 11.9985H3.24998C2.60904 11.9985 1.99435 12.2092 1.54114 12.5843C1.08793 12.9593 0.833313 13.468 0.833313 13.9984C0.833313 14.5288 1.08793 15.0375 1.54114 15.4125C1.99435 15.7876 2.60904 15.9983 3.24998 15.9983Z" fill="#231F20"/>
</svg>
