<svg width="42" height="23" viewBox="0 0 42 23" fill="none" xmlns="http://www.w3.org/2000/svg">
<path d="M7.34213 22.8082C6.40378 22.6207 4.07982 22.1696 2.4114 20.245C1.20995 18.8584 0.54346 16.9918 0.523728 14.7746C0.477688 9.72852 3.25547 6.05334 4.17848 4.94141C5.05325 3.8853 5.95872 3.13731 6.10342 3.02121C7.40571 1.95617 8.64662 1.34885 9.45123 1.0117C11.2512 0.261477 13.1213 -0.0578126 14.4236 0.00917115C15.3532 0.0560598 16.3069 0.265942 16.3069 0.265942C16.6204 0.335159 16.8769 0.406608 17.2014 0.500386C21.1061 1.64134 22.3865 5.57106 19.8937 8.8555C18.4007 10.8226 16.2981 11.8608 14.0268 12.5508C11.1087 13.4372 8.11824 13.4417 5.11683 13.1626C4.87128 13.1402 4.62354 13.1224 4.38457 13.1045C3.41552 17.3758 6.04641 20.8389 10.2361 20.8322C13.7593 20.8255 16.9646 19.6444 20.1151 18.0189C22.5509 12.16 24.9976 6.27662 27.4619 0.348556H28.9396C30.3011 3.42534 31.6626 6.50213 33.0986 9.74861C35.9136 7.77259 38.5445 5.69833 41.0746 3.47C38.8581 6.18954 36.271 8.52058 33.559 10.7936C35.2822 14.7143 36.9748 18.5681 38.7177 22.5358H36.3171C34.8262 19.1688 33.3156 15.7571 31.7612 12.2449C31.2175 12.6512 30.7637 13.0152 30.2857 13.3434C27.8675 15.0135 25.458 16.6948 23.0135 18.3225C22.404 18.7289 21.9567 19.1688 21.7024 19.8743C21.378 20.7764 20.9592 21.6427 20.5711 22.5514H18.3064C18.5147 21.9598 18.6988 21.4306 18.9312 20.7674C17.2781 21.5199 15.8202 21.9776 14.713 22.2634C13.8689 22.4822 12.7311 22.7703 11.2052 22.8975C10.0344 22.9958 8.80008 23.1007 7.34213 22.8082ZM4.51611 11.0459C7.21278 11.6532 10.8938 11.5974 13.3603 10.894C14.9936 10.4274 16.5546 9.76871 17.6903 8.4268C18.7186 7.2077 19.1899 5.76754 18.6616 4.18449C18.1705 2.71755 16.9537 2.09907 15.5505 1.88918C10.3786 1.1144 4.94582 5.60678 4.51611 11.0481V11.0459ZM31.2635 11.0928C30.2638 8.8287 29.3101 6.66066 28.2687 4.29837C26.5477 8.35089 24.8244 12.4034 23.1034 16.4559L31.2635 11.0928Z" fill="#1C1818"/>
</svg>
