<svg width="24" height="24" viewBox="0 0 24 24" fill="none" xmlns="http://www.w3.org/2000/svg">
<path d="M22.0469 4.19159C21.5289 4.19159 21.0321 4.39736 20.6658 4.76364C20.2995 5.12992 20.0937 5.62671 20.0937 6.14471L20.0937 17.0627L3.90234 0.851742C3.53456 0.483961 3.03574 0.277344 2.51562 0.277344C1.9955 0.277344 1.49668 0.483961 1.1289 0.851742C0.761122 1.21952 0.554504 1.71834 0.554504 2.23846C0.554504 2.75858 0.761122 3.2574 1.1289 3.62518L17.3398 19.8166L6.42187 19.8166C5.90387 19.8166 5.40709 20.0224 5.0408 20.3886C4.67452 20.7549 4.46875 21.2517 4.46875 21.7697C4.46875 22.2877 4.67452 22.7845 5.0408 23.1508C5.40709 23.5171 5.90387 23.7228 6.42187 23.7228L22.0469 23.7228C22.5649 23.7228 23.0617 23.5171 23.4279 23.1508C23.7942 22.7845 24 22.2877 24 21.7697L24 6.14471C24 5.62671 23.7942 5.12992 23.4279 4.76364C23.0617 4.39736 22.5649 4.19159 22.0469 4.19159Z" fill="#231F20"/>
</svg>
