<svg width="33" height="33" viewBox="0 0 33 33" fill="none" xmlns="http://www.w3.org/2000/svg">
<path d="M30.3125 5.75514C29.5997 5.75514 28.9162 6.03828 28.4122 6.54229C27.9082 7.04629 27.625 7.72987 27.625 8.44264V23.4658L5.34563 1.15951C4.83957 0.653446 4.1532 0.369141 3.43751 0.369141C2.72182 0.369141 2.03545 0.653446 1.52939 1.15951C1.02332 1.66558 0.739014 2.35195 0.739014 3.06764C0.739014 3.78332 1.02332 4.4697 1.52939 4.97576L23.8356 27.2551H8.81251C8.09974 27.2551 7.41616 27.5383 6.91216 28.0423C6.40816 28.5463 6.12501 29.2299 6.12501 29.9426C6.12501 30.6554 6.40816 31.339 6.91216 31.843C7.41616 32.347 8.09974 32.6301 8.81251 32.6301H30.3125C31.0253 32.6301 31.7089 32.347 32.2129 31.843C32.7169 31.339 33 30.6554 33 29.9426V8.44264C33 7.72987 32.7169 7.04629 32.2129 6.54229C31.7089 6.03828 31.0253 5.75514 30.3125 5.75514Z" fill="#231F20"/>
</svg>
